SplineFontDB: 3.2
FontName: Vazir-Bold
FullName: Vazir Bold
FamilyName: Vazir
Weight: Bold
Copyright: Copyright (c) 2003 by Bitstream, Inc. All Rights Reserved.\nDejaVu changes are in public domain\nChanges by Saber Rastikerdar are in public domain.\nNon-Arabic(Latin) glyphs and data in extended version are imported from Roboto font under the Apache License, Version 2.0.
Version: 22.1.0
ItalicAngle: 0
UnderlinePosition: -500
UnderlineWidth: 100
Ascent: 1638
Descent: 410
InvalidEm: 0
LayerCount: 2
Layer: 0 0 "Back" 1
Layer: 1 0 "Fore" 0
PreferredKerning: 4
XUID: [1021 502 1027637223 15917614]
UniqueID: 4184387
UseUniqueID: 1
FSType: 0
OS2Version: 1
OS2_WeightWidthSlopeOnly: 0
OS2_UseTypoMetrics: 1
CreationTime: 1431850356
ModificationTime: 1581930552
PfmFamily: 33
TTFWeight: 700
TTFWidth: 5
LineGap: 0
VLineGap: 0
Panose: 2 11 6 3 3 8 4 2 2 4
OS2TypoAscent: 2100
OS2TypoAOffset: 0
OS2TypoDescent: -1100
OS2TypoDOffset: 0
OS2TypoLinegap: 0
OS2WinAscent: 2100
OS2WinAOffset: 0
OS2WinDescent: 1100
OS2WinDOffset: 0
HheadAscent: 2100
HheadAOffset: 0
HheadDescent: -1100
HheadDOffset: 0
OS2SubXSize: 1331
OS2SubYSize: 1433
OS2SubXOff: 0
OS2SubYOff: 286
OS2SupXSize: 1331
OS2SupYSize: 1433
OS2SupXOff: 0
OS2SupYOff: 983
OS2StrikeYSize: 102
OS2StrikeYPos: 530
OS2CapHeight: 1638
OS2XHeight: 1082
OS2Vendor: '    '
OS2CodePages: 00000041.20080000
OS2UnicodeRanges: 80002003.80000000.00000008.00000000
Lookup: 1 9 0 "Single Substitution 1" { "Single Substitution 1 subtable"  } []
Lookup: 1 9 0 "'fina' Terminal Forms in Arabic lookup 9" { "'fina' Terminal Forms in Arabic lookup 9 subtable"  } ['fina' ('DFLT' <'dflt' > 'arab' <'FAR ' 'KUR ' 'URD ' 'dflt' > ) ]
Lookup: 1 9 0 "'medi' Medial Forms in Arabic lookup 11" { "'medi' Medial Forms in Arabic lookup 11 subtable"  } ['medi' ('DFLT' <'dflt' > 'arab' <'FAR ' 'KUR ' 'URD ' 'dflt' > ) ]

StartChar: exclam
Encoding: 33 33 1
GlifName: exclam
Width: 632
VWidth: 2762
GlyphClass: 2
Flags: HW
LayerCount: 2
Fore
SplineSet
143 174 m 0
 143 268.897460938 220.413085938 348 316 348 c 0
 411.584960938 348 489 268.893554688 489 174 c 0
 489 78.8173828125 411.184570312 1 316 1 c 0
 220.569335938 1 143 75.9228515625 143 174 c 0
179.879882812 1376 m 1
 456.077148438 1376 l 5
 438.951171875 475 l 1
 198.08984375 475 l 1
 179.879882812 1376 l 1
EndSplineSet
EndChar

StartChar: period
Encoding: 46 46 2
GlifName: period
Width: 632
VWidth: 2762
GlyphClass: 2
Flags: HW
LayerCount: 2
Fore
SplineSet
143 174 m 0
 143 268.897460938 220.413085938 348 316 348 c 0
 411.584960938 348 489 268.893554688 489 174 c 0
 489 78.8173828125 411.184570312 1 316 1 c 0
 220.569335938 1 143 75.9228515625 143 174 c 0
EndSplineSet
EndChar

StartChar: colon
Encoding: 58 58 3
GlifName: colon
Width: 632
VWidth: 2762
GlyphClass: 2
Flags: HW
LayerCount: 2
Fore
SplineSet
143 794 m 0
 143 888.897460938 220.413085938 968 316 968 c 0
 411.584960938 968 489 888.893554688 489 794 c 0
 489 698.817382812 411.184570312 621 316 621 c 0
 220.569335938 621 143 695.922851562 143 794 c 0
143 174 m 0
 143 268.897460938 220.413085938 348 316 348 c 0
 411.584960938 348 489 268.893554688 489 174 c 0
 489 78.8173828125 411.184570312 1 316 1 c 0
 220.569335938 1 143 75.9228515625 143 174 c 0
EndSplineSet
EndChar

StartChar: uni060C
Encoding: 1548 1548 5
GlifName: afii57388
Width: 669
VWidth: 2770
GlyphClass: 2
Flags: HW
LayerCount: 2
Fore
SplineSet
529.991210938 591.478515625 m 2
 443.06640625 512.005859375 393.975585938 449.438476562 383.189453125 362.194335938 c 1
 478.735351562 348.37890625 516 277.266601562 516 191 c 0
 516 86.7138671875 451.302734375 9 341 9 c 0
 204.7109375 9 143 103.30859375 143 223 c 0
 143 431.127929688 252.057617188 593.6328125 404.517578125 711.6328125 c 2
 429.3671875 730.865234375 l 1
 453.936523438 711.276367188 l 1
 527.936523438 652.276367188 l 1
 564.5546875 623.080078125 l 1
 529.991210938 591.478515625 l 2
EndSplineSet
EndChar

StartChar: uni0615
Encoding: 1557 1557 6
GlifName: uni0615
Width: -29
VWidth: 2712
GlyphClass: 4
Flags: HW
AnchorPoint: "Anchor-10" 658.199 1622.46 mark 0
AnchorPoint: "Anchor-9" 658.199 1622.46 mark 0
AnchorPoint: "Anchor-1" 672.366 2445.86 basemark 0
AnchorPoint: "Anchor-1" 658.199 1622.46 mark 0
LayerCount: 2
Fore
SplineSet
905 1918 m 0
 905 1964.13353137 884.248475671 1985 837 1985 c 0
 772.86163642 1985 677.439530989 1921.11558502 559.40754714 1796 c 1
 678 1796 l 2
 788.757141645 1796 905 1831.73062097 905 1918 c 0
547.048626149 1912.82937032 m 1
 650.770920072 2025.43261318 748.701833546 2086 841 2086 c 0
 944.761796734 2086 999 2031.70047023 999 1927 c 0
 999 1777.75537718 884.263105449 1704 668 1704 c 2
 357 1704 l 1
 347 1704 l 1
 347 1714 l 1
 347 1786 l 1
 347 1796 l 1
 357 1796 l 1
 455 1796 l 1
 455 2317.97363281 l 1
 455 2328.10424414 l 1
 465.129758432 2327.97279091 l 1
 538.125852182 2327.02552529 l 1
 548.019259714 2326.89713918 l 1
 547.996066275 2317.00292584 l 1
 547.048626149 1912.82937032 l 1
EndSplineSet
EndChar

StartChar: uni061B
Encoding: 1563 1563 7
GlifName: uni061B_
Width: 669
VWidth: 2770
GlyphClass: 2
Flags: HW
LayerCount: 2
Fore
SplineSet
171 174 m 0
 171 268.897460938 248.413085938 348 344 348 c 0
 439.584960938 348 517 268.893554688 517 174 c 0
 517 78.8173828125 439.184570312 1 344 1 c 0
 248.569335938 1 171 75.9228515625 171 174 c 0
529.921875 1054.41601562 m 6
 442.788085938 975.125 393.954101562 912.887695312 383.166992188 825.166015625 c 5
 478.72265625 811.162109375 516 739.951171875 516 654 c 4
 516 549.713867188 451.302734375 472 341 472 c 4
 204.7109375 472 143 566.30859375 143 686 c 4
 143 894.127929688 252.057617188 1056.6328125 404.517578125 1174.6328125 c 6
 429.3671875 1193.86523438 l 5
 453.936523438 1174.27636719 l 5
 527.936523438 1115.27636719 l 5
 564.641601562 1086.01074219 l 5
 529.921875 1054.41601562 l 6
EndSplineSet
EndChar

StartChar: uni061F
Encoding: 1567 1567 8
GlifName: uni061F_
Width: 924
VWidth: 2762
GlyphClass: 2
Flags: HW
LayerCount: 2
Fore
SplineSet
352 174 m 0
 352 268.897460938 429.413085938 348 525 348 c 0
 620.584960938 348 698 268.893554688 698 174 c 0
 698 78.8173828125 620.184570312 1 525 1 c 0
 429.569335938 1 352 75.9228515625 352 174 c 0
59 991 m 0
 59 1228.86914062 265.135742188 1386 469 1386 c 0
 742.455078125 1386 864.946289062 1227.20019531 866 951.15234375 c 2
 866.153320312 941 l 5
 826 941 l 5
 670 941 l 5
 630.291015625 941 l 5
 630.000976562 950.708007812 l 2
 629.088867188 1075.734375 593.6015625 1126 480 1126 c 0
 376.495117188 1126 320 1076.25976562 320 982 c 0
 320 845.518554688 656.311786986 820.079489995 658 502.16015625 c 2
 658.16015625 472 l 1
 618 472 l 1
 433 472 l 1
 393.1953125 472 l 1
 393 501.8046875 l 2
 391.353010689 753.135256357 59 659.580078125 59 991 c 0
EndSplineSet
EndChar

StartChar: uni0621
Encoding: 1569 1569 9
GlifName: uni0621
Width: 830
VWidth: 2950
GlyphClass: 2
Flags: HW
AnchorPoint: "Anchor-7" 445.326 34.3535 basechar 0
AnchorPoint: "Anchor-10" 441.848 1139.06 basechar 0
LayerCount: 2
Fore
SplineSet
458.462890625 445.05078125 m 1
 537.838867188 463.154296875 618.6484375 481.038085938 697.07421875 498.991210938 c 2
 738.995117188 508.587890625 l 1
 745.53515625 466.08203125 l 1
 771.53515625 297.08203125 l 1
 777.795898438 256.3828125 l 1
 736.932617188 251.305664062 l 2
 576.181640625 231.330078125 368.865234375 152.631835938 117.202148438 14.91015625 c 2
 58 -17.4873046875 l 1
 58 50 l 1
 58 223 l 1
 58 243.995117188 l 1
 75.2802734375 255.920898438 l 2
 121.450195312 287.78515625 165.264648438 313.583984375 207.0703125 334.104492188 c 1
 124.811523438 393.86328125 78 473.811523438 78 574 c 0
 78 801.321289062 245.18359375 948 453 948 c 0
 571.048828125 948 666.9765625 915.438476562 736.045898438 847.520507812 c 2
 755.209960938 828.67578125 l 1
 745.00390625 803.811523438 l 1
 690.00390625 669.811523438 l 1
 671.044921875 623.620117188 l 1
 630.103515625 652.202148438 l 2
 583.892578125 684.461914062 531.923828125 701 466 701 c 0
 375.53515625 701 320 654.23046875 320 575 c 0
 320 541.3671875 355.041992188 494.458007812 458.462890625 445.05078125 c 1
EndSplineSet
EndChar

StartChar: uni0627
Encoding: 1575 1575 15
GlifName: uni0627
Width: 465
VWidth: 2950
GlyphClass: 2
Flags: HW
AnchorPoint: "Anchor-10" 224.871 1515.46 basechar 0
AnchorPoint: "Anchor-7" 228.587 -198.365 basechar 0
LayerCount: 2
Fore
SplineSet
148 1386 m 1
 317 1386 l 1
 357 1386 l 5
 357 1346 l 1
 357 41 l 1
 357 1 l 1
 317 1 l 1
 148 1 l 1
 108 1 l 1
 108 41 l 1
 108 1346 l 1
 108 1386 l 1
 148 1386 l 1
EndSplineSet
Substitution2: "'fina' Terminal Forms in Arabic lookup 9 subtable" uniFE8E
EndChar

StartChar: uni062D
Encoding: 1581 1581 21
GlifName: uni062D_
Width: 1347
VWidth: 2950
GlyphClass: 2
Flags: HW
AnchorPoint: "Anchor-7" 690.833 -790.619 basechar 0
AnchorPoint: "Anchor-10" 601.478 1216.07 basechar 0
LayerCount: 2
Fore
SplineSet
709.375 598.170898438 m 5
 585.901367188 647.567382812 506.001953125 676 477 676 c 4
 418.35546875 676 351.596679688 634.939453125 307.715820312 577.625976562 c 6
 280.670898438 542.567382812 l 5
 260.615234375 516.568359375 l 5
 231.206054688 531.17578125 l 5
 80.2060546875 606.17578125 l 5
 42.078125 625.11328125 l 5
 63.3525390625 661.989257812 l 5
 78.6201171875 688.452148438 l 5
 168.51171875 835.061523438 310.080078125 934 478 934 c 4
 574.026367188 934 679.11328125 891.638671875 798.469726562 833.983398438 c 4
 1004.41210938 733.5 1124.06152344 693.477539062 1230.08398438 687.9453125 c 6
 1271.0078125 685.810546875 l 5
 1267.88378906 644.950195312 l 5
 1254.88378906 474.950195312 l 5
 1252.27832031 440.877929688 l 5
 1218.21679688 438.129882812 l 6
 685.506835938 395.153320312 305 166.15625 305 -95 c 4
 305 -313.041992188 450.592773438 -426 798 -426 c 4
 955.787139281 -426 1085.06347656 -384.377929688 1220 -324 c 5
 1230.23730469 -373.719726562 l 5
 1265.23730469 -543.719726562 l 5
 1271.55078125 -574.38671875 l 5
 1123.92480469 -640.895507812 981.938133834 -677 784 -677 c 4
 369.944335938 -677 59 -501.993164062 59 -111 c 4
 59 207.313476562 293.124023438 472.37109375 709.375 598.170898438 c 5
EndSplineSet
Substitution2: "'fina' Terminal Forms in Arabic lookup 9 subtable" uniFEA2
Substitution2: "'medi' Medial Forms in Arabic lookup 11 subtable" uniFEA4
Substitution2: "'init' Initial Forms in Arabic lookup 13 subtable" uniFEA3
EndChar

StartChar: uni062F
Encoding: 1583 1583 23
GlifName: uni062F_
Width: 963
VWidth: 2950
GlyphClass: 2
Flags: HW
AnchorPoint: "Anchor-10" 371.137 1249.03 basechar 0
AnchorPoint: "Anchor-7" 432.24 -201.316 basechar 0
LayerCount: 2
Fore
SplineSet
105.934570312 286.205078125 m 2
 188.284179688 269.5390625 257.809570312 261 317 261 c 0
 566.600585938 261 649 320.940429688 649 404 c 0
 649 502.838867188 526.966796875 648.974609375 253.677734375 821.157226562 c 2
 219.05859375 842.967773438 l 1
 241.6484375 877.083984375 l 1
 339.6484375 1025.08398438 l 1
 360.734375 1056.92675781 l 1
 393.518554688 1037.33691406 l 2
 724.256835938 839.700195312 905 632.560546875 905 407 c 0
 905 134.591796875 695.203125 2 330 2 c 0
 243.140625 2 162.362304688 11.2998046875 89.619140625 26.8876953125 c 2
 58 33.6630859375 l 1
 58 66 l 1
 58 247 l 1
 58 295.90625 l 1
 105.934570312 286.205078125 l 2
EndSplineSet
Substitution2: "'fina' Terminal Forms in Arabic lookup 9 subtable" uniFEAA
EndChar

StartChar: uni0631
Encoding: 1585 1585 25
GlifName: uni0631
Width: 780
VWidth: 2142
GlyphClass: 2
Flags: HW
AnchorPoint: "Anchor-10" 493.256 888.2 basechar 0
AnchorPoint: "Anchor-7" 322.969 -599.998 basechar 0
LayerCount: 2
Fore
SplineSet
637.100585938 581.951171875 m 2
 693.001953125 443.233398438 722 295.297851562 722 175 c 0
 722 -207.5546875 491.612304688 -444.798828125 57.4677734375 -527.296875 c 2
 24.7998046875 -533.50390625 l 1
 12.728515625 -502.521484375 l 1
 -47.271484375 -348.521484375 l 1
 -64.74609375 -303.669921875 l 1
 -17.453125 -294.700195312 l 2
 319.6171875 -230.7734375 473.170898438 -76.7861328125 475 170.1484375 c 0
 475 253.70703125 450.086914062 378.294921875 401.186523438 493.354492188 c 2
 384.60546875 532.370117188 l 1
 424.517578125 546.659179688 l 1
 586.517578125 604.659179688 l 1
 622.725585938 617.623046875 l 1
 637.100585938 581.951171875 l 2
EndSplineSet
PairPos2: "'kern' Horizontal Kerning lookup 15-1" uniFEE7 dx=-178 dy=0 dh=-178 dv=0 dx=0 dy=0 dh=0 dv=0
PairPos2: "'kern' Horizontal Kerning lookup 15-2" uniFE8B dx=-178 dy=0 dh=-178 dv=0 dx=0 dy=0 dh=0 dv=0
PairPos2: "'kern' Horizontal Kerning lookup 15-2" uni0640 dx=-178 dy=0 dh=-178 dv=0 dx=0 dy=0 dh=0 dv=0
PairPos2: "'kern' Horizontal Kerning lookup 15-2" uni067E dx=-178 dy=0 dh=-178 dv=0 dx=0 dy=0 dh=0 dv=0
PairPos2: "'kern' Horizontal Kerning lookup 15-2" uni06AF dx=-226 dy=0 dh=-226 dv=0 dx=0 dy=0 dh=0 dv=0
PairPos2: "'kern' Horizontal Kerning lookup 15-2" uniFB92 dx=-226 dy=0 dh=-226 dv=0 dx=0 dy=0 dh=0 dv=0
PairPos2: "'kern' Horizontal Kerning lookup 15-2" uniFB94 dx=-226 dy=0 dh=-226 dv=0 dx=0 dy=0 dh=0 dv=0
PairPos2: "'kern' Horizontal Kerning lookup 15-2" uni0621 dx=-178 dy=0 dh=-178 dv=0 dx=0 dy=0 dh=0 dv=0
PairPos2: "'kern' Horizontal Kerning lookup 15-2" uni0622 dx=-143 dy=0 dh=-143 dv=0 dx=0 dy=0 dh=0 dv=0
PairPos2: "'kern' Horizontal Kerning lookup 15-2" uni0623 dx=-143 dy=0 dh=-143 dv=0 dx=0 dy=0 dh=0 dv=0
PairPos2: "'kern' Horizontal Kerning lookup 15-2" uni0627 dx=-143 dy=0 dh=-143 dv=0 dx=0 dy=0 dh=0 dv=0
PairPos2: "'kern' Horizontal Kerning lookup 15-2" uni0628 dx=-178 dy=0 dh=-178 dv=0 dx=0 dy=0 dh=0 dv=0
PairPos2: "'kern' Horizontal Kerning lookup 15-2" uni0629 dx=-178 dy=0 dh=-178 dv=0 dx=0 dy=0 dh=0 dv=0
PairPos2: "'kern' Horizontal Kerning lookup 15-2" uni062A dx=-178 dy=0 dh=-178 dv=0 dx=0 dy=0 dh=0 dv=0
PairPos2: "'kern' Horizontal Kerning lookup 15-2" uniFE97 dx=-178 dy=0 dh=-178 dv=0 dx=0 dy=0 dh=0 dv=0
PairPos2: "'kern' Horizontal Kerning lookup 15-2" uni062B dx=-178 dy=0 dh=-178 dv=0 dx=0 dy=0 dh=0 dv=0
PairPos2: "'kern' Horizontal Kerning lookup 15-2" uniFE9B dx=-178 dy=0 dh=-178 dv=0 dx=0 dy=0 dh=0 dv=0
PairPos2: "'kern' Horizontal Kerning lookup 15-2" uniFE9F dx=-178 dy=0 dh=-178 dv=0 dx=0 dy=0 dh=0 dv=0
PairPos2: "'kern' Horizontal Kerning lookup 15-2" uniFEA3 dx=-178 dy=0 dh=-178 dv=0 dx=0 dy=0 dh=0 dv=0
PairPos2: "'kern' Horizontal Kerning lookup 15-2" uniFEA7 dx=-178 dy=0 dh=-178 dv=0 dx=0 dy=0 dh=0 dv=0
PairPos2: "'kern' Horizontal Kerning lookup 15-2" uni062F dx=-178 dy=0 dh=-178 dv=0 dx=0 dy=0 dh=0 dv=0
PairPos2: "'kern' Horizontal Kerning lookup 15-2" uni0630 dx=-178 dy=0 dh=-178 dv=0 dx=0 dy=0 dh=0 dv=0
PairPos2: "'kern' Horizontal Kerning lookup 15-2" uni0633 dx=-178 dy=0 dh=-178 dv=0 dx=0 dy=0 dh=0 dv=0
PairPos2: "'kern' Horizontal Kerning lookup 15-2" uniFEB3 dx=-178 dy=0 dh=-178 dv=0 dx=0 dy=0 dh=0 dv=0
PairPos2: "'kern' Horizontal Kerning lookup 15-2" uni0634 dx=-178 dy=0 dh=-178 dv=0 dx=0 dy=0 dh=0 dv=0
PairPos2: "'kern' Horizontal Kerning lookup 15-2" uniFEB7 dx=-178 dy=0 dh=-178 dv=0 dx=0 dy=0 dh=0 dv=0
PairPos2: "'kern' Horizontal Kerning lookup 15-2" uni0635 dx=-178 dy=0 dh=-178 dv=0 dx=0 dy=0 dh=0 dv=0
PairPos2: "'kern' Horizontal Kerning lookup 15-2" uniFEBB dx=-178 dy=0 dh=-178 dv=0 dx=0 dy=0 dh=0 dv=0
PairPos2: "'kern' Horizontal Kerning lookup 15-2" uni0636 dx=-178 dy=0 dh=-178 dv=0 dx=0 dy=0 dh=0 dv=0
PairPos2: "'kern' Horizontal Kerning lookup 15-2" uniFEBF dx=-178 dy=0 dh=-178 dv=0 dx=0 dy=0 dh=0 dv=0
PairPos2: "'kern' Horizontal Kerning lookup 15-2" uni0637 dx=-178 dy=0 dh=-178 dv=0 dx=0 dy=0 dh=0 dv=0
PairPos2: "'kern' Horizontal Kerning lookup 15-2" uniFEC3 dx=-178 dy=0 dh=-178 dv=0 dx=0 dy=0 dh=0 dv=0
PairPos2: "'kern' Horizontal Kerning lookup 15-2" uni0638 dx=-178 dy=0 dh=-178 dv=0 dx=0 dy=0 dh=0 dv=0
PairPos2: "'kern' Horizontal Kerning lookup 15-2" uniFEC7 dx=-178 dy=0 dh=-178 dv=0 dx=0 dy=0 dh=0 dv=0
PairPos2: "'kern' Horizontal Kerning lookup 15-2" uniFECB dx=-178 dy=0 dh=-178 dv=0 dx=0 dy=0 dh=0 dv=0
PairPos2: "'kern' Horizontal Kerning lookup 15-2" uniFECF dx=-178 dy=0 dh=-178 dv=0 dx=0 dy=0 dh=0 dv=0
PairPos2: "'kern' Horizontal Kerning lookup 15-2" uni0641 dx=-178 dy=0 dh=-178 dv=0 dx=0 dy=0 dh=0 dv=0
PairPos2: "'kern' Horizontal Kerning lookup 15-2" uniFED3 dx=-178 dy=0 dh=-178 dv=0 dx=0 dy=0 dh=0 dv=0
PairPos2: "'kern' Horizontal Kerning lookup 15-2" uni0642 dx=-60 dy=0 dh=-60 dv=0 dx=0 dy=0 dh=0 dv=0
PairPos2: "'kern' Horizontal Kerning lookup 15-2" uniFED7 dx=-178 dy=0 dh=-178 dv=0 dx=0 dy=0 dh=0 dv=0
PairPos2: "'kern' Horizontal Kerning lookup 15-2" uni0643 dx=-143 dy=0 dh=-143 dv=0 dx=0 dy=0 dh=0 dv=0
PairPos2: "'kern' Horizontal Kerning lookup 15-2" uniFEDB dx=-226 dy=0 dh=-226 dv=0 dx=0 dy=0 dh=0 dv=0
PairPos2: "'kern' Horizontal Kerning lookup 15-2" uni0644 dx=-60 dy=0 dh=-60 dv=0 dx=0 dy=0 dh=0 dv=0
PairPos2: "'kern' Horizontal Kerning lookup 15-2" uniFEDF dx=-143 dy=0 dh=-143 dv=0 dx=0 dy=0 dh=0 dv=0
PairPos2: "'kern' Horizontal Kerning lookup 15-2" uniFEFB dx=-143 dy=0 dh=-143 dv=0 dx=0 dy=0 dh=0 dv=0
PairPos2: "'kern' Horizontal Kerning lookup 15-2" uni0645 dx=-178 dy=0 dh=-178 dv=0 dx=0 dy=0 dh=0 dv=0
PairPos2: "'kern' Horizontal Kerning lookup 15-2" uniFEE3 dx=-178 dy=0 dh=-178 dv=0 dx=0 dy=0 dh=0 dv=0
PairPos2: "'kern' Horizontal Kerning lookup 15-2" uni0646 dx=-60 dy=0 dh=-60 dv=0 dx=0 dy=0 dh=0 dv=0
PairPos2: "'kern' Horizontal Kerning lookup 15-2" uni0647 dx=-178 dy=0 dh=-178 dv=0 dx=0 dy=0 dh=0 dv=0
PairPos2: "'kern' Horizontal Kerning lookup 15-2" uniFEEB dx=-178 dy=0 dh=-178 dv=0 dx=0 dy=0 dh=0 dv=0
PairPos2: "'kern' Horizontal Kerning lookup 15-2" uni0649 dx=-60 dy=0 dh=-60 dv=0 dx=0 dy=0 dh=0 dv=0
PairPos2: "'kern' Horizontal Kerning lookup 15-2" uni0626 dx=-60 dy=0 dh=-60 dv=0 dx=0 dy=0 dh=0 dv=0
PairPos2: "'kern' Horizontal Kerning lookup 15-2" uni064A dx=-60 dy=0 dh=-60 dv=0 dx=0 dy=0 dh=0 dv=0
PairPos2: "'kern' Horizontal Kerning lookup 15-2" uni06A9 dx=-226 dy=0 dh=-226 dv=0 dx=0 dy=0 dh=0 dv=0
PairPos2: "'kern' Horizontal Kerning lookup 15-2" uniFB8E dx=-226 dy=0 dh=-226 dv=0 dx=0 dy=0 dh=0 dv=0
PairPos2: "'kern' Horizontal Kerning lookup 15-2" uniFB90 dx=-226 dy=0 dh=-226 dv=0 dx=0 dy=0 dh=0 dv=0
PairPos2: "'kern' Horizontal Kerning lookup 15-2" uniFBFE dx=30 dy=0 dh=30 dv=0 dx=0 dy=0 dh=0 dv=0
PairPos2: "'kern' Horizontal Kerning lookup 15-2" uni0631 dx=-30 dy=0 dh=-30 dv=0 dx=0 dy=0 dh=0 dv=0
PairPos2: "'kern' Horizontal Kerning lookup 15-2" uni0632 dx=-30 dy=0 dh=-30 dv=0 dx=0 dy=0 dh=0 dv=0
PairPos2: "'kern' Horizontal Kerning lookup 15-2" uni0624 dx=-30 dy=0 dh=-30 dv=0 dx=0 dy=0 dh=0 dv=0
PairPos2: "'kern' Horizontal Kerning lookup 15-2" uni0648 dx=-30 dy=0 dh=-30 dv=0 dx=0 dy=0 dh=0 dv=0
PairPos2: "'kern' Horizontal Kerning lookup 15-2" uni0698 dx=-40 dy=0 dh=-40 dv=0 dx=0 dy=0 dh=0 dv=0
PairPos2: "'kern' Horizontal Kerning lookup 15-5" uni06C0 dx=-178 dy=0 dh=-178 dv=0 dx=0 dy=0 dh=0 dv=0
Substitution2: "'fina' Terminal Forms in Arabic lookup 9 subtable" uniFEAE
EndChar

StartChar: uni0633
Encoding: 1587 1587 27
GlifName: uni0633
Width: 2456
GlyphClass: 2
Flags: HW
AnchorPoint: "Anchor-10" 1767.53 928.1 basechar 0
AnchorPoint: "Anchor-7" 710.902 -676.086 basechar 0
LayerCount: 2
Fore
SplineSet
1531 0 m 0
 1474 0 1422 10 1379 29 c 1
 1365 -136 1306 -269 1200 -363 c 0
 1081 -469 920 -520 721 -520 c 0
 289 -520 58 -309 58 96 c 0
 58 242 89 390 151 540 c 2
 166 577 l 1
 203 562 l 1
 358 499 l 1
 394 484 l 1
 380 448 l 2
 333 323 310 207 310 101 c 0
 310 -149 438 -267 728 -267 c 0
 1008 -267 1136 -139 1137 140 c 0
 1137 254 1109 371 1051 492 c 2
 1032 532 l 1
 1074 547 l 1
 1243 605 l 1
 1282 618 l 1
 1294 579 l 1
 1353 396 l 2
 1384 300 1433 261 1533 260 c 0
 1641 260 1678 307 1678 429 c 0
 1678 459 1675 518 1668 604 c 2
 1665 642 l 1
 1703 647 l 1
 1868 667 l 1
 1910 672 l 1
 1913 630 l 1
 1929 404 l 2
 1935 311 1971 260 2047 260 c 0
 2105 260 2146 299 2146 442 c 0
 2146 508 2132 593 2103 695 c 2
 2093 734 l 1
 2132 745 l 1
 2300 790 l 1
 2337 800 l 1
 2348 763 l 2
 2381 658 2398 556 2398 457 c 0
 2398 222 2308 1 2048 0 c 0
 1943 0 1858 38 1801 114 c 1
 1729 38 1637 0 1531 0 c 0
EndSplineSet
Substitution2: "'fina' Terminal Forms in Arabic lookup 9 subtable" uniFEB2
Substitution2: "'medi' Medial Forms in Arabic lookup 11 subtable" uniFEB4
Substitution2: "'init' Initial Forms in Arabic lookup 13 subtable" uniFEB3
EndChar

StartChar: uni0635
Encoding: 1589 1589 29
GlifName: uni0635
Width: 2575
VWidth: 2950
GlyphClass: 2
Flags: HW
AnchorPoint: "Anchor-7" 710.902 -676.086 basechar 0
AnchorPoint: "Anchor-10" 2052.53 1168.1 basechar 0
LayerCount: 2
Fore
SplineSet
1752.86523438 261 m 2
 2121.66699219 261 2259 340.8046875 2259 453 c 0
 2259 540.817382812 2198.66113281 605 2104 605 c 0
 1986.11621094 605 1840.85253906 494.591796875 1679.90234375 260.506835938 c 1
 1752.86523438 261 l 2
1137 140.067382812 m 0
 1137 256.118164062 1107.79785156 373.154296875 1050.93457031 491.700195312 c 2
 1031.48925781 532.239257812 l 1
 1074.015625 546.833984375 l 1
 1243.015625 604.833984375 l 1
 1281.56445312 618.063476562 l 1
 1294.0703125 579.274414062 l 1
 1353.05273438 396.329101562 l 2
 1369.87695312 344.653320312 1388.79199219 312.823242188 1402.66113281 299.73046875 c 1
 1624.95605469 668.0625 1851.28222656 867 2098 867 c 0
 2337.57128906 867 2517 690.586914062 2517 461.928710938 c 0
 2515.87597656 146.055664062 2239.69140625 0 1757 0 c 2
 1706 0 l 2
 1567.42773438 0 1460.59960938 13.1005859375 1379.50878906 39.25 c 1
 1351.484375 -332.780273438 1092.46289062 -520 721 -520 c 0
 288.607421875 -520 58 -309.212890625 58 96 c 0
 58 241.758789062 89.298828125 390.05859375 151.001953125 540.204101562 c 2
 166.1484375 577.059570312 l 1
 203.061523438 562.055664062 l 1
 358.061523438 499.055664062 l 1
 394.213867188 484.362304688 l 1
 380.416992188 447.858398438 l 2
 333.69921875 324.250976562 310 210.14453125 310 101 c 0
 310 -148.56640625 438.224609375 -267 728 -267 c 0
 1006.27636719 -267 1136.06347656 -139.001953125 1137 140.067382812 c 0
EndSplineSet
Substitution2: "'fina' Terminal Forms in Arabic lookup 9 subtable" uniFEBA
Substitution2: "'medi' Medial Forms in Arabic lookup 11 subtable" uniFEBC
Substitution2: "'init' Initial Forms in Arabic lookup 13 subtable" uniFEBB
EndChar

StartChar: uni0637
Encoding: 1591 1591 31
GlifName: uni0637
Width: 1471
VWidth: 2950
GlyphClass: 2
Flags: HW
AnchorPoint: "Anchor-10" 476.36 1518.58 basechar 0
AnchorPoint: "Anchor-7" 636.602 -198.453 basechar 0
LayerCount: 2
Fore
SplineSet
648.865234375 262 m 2
 1017.66699219 262 1155 341.8046875 1155 454 c 0
 1155 541.817382812 1094.66113281 606 1000 606 c 0
 882.116210938 606 736.852539062 495.591796875 575.90234375 261.506835938 c 1
 648.865234375 262 l 2
297.720703125 260 m 1
 317.01953125 290.9765625 335.483398438 319.913085938 353 347.5859375 c 1
 353 1346 l 1
 353 1386 l 1
 393 1386 l 1
 562 1386 l 1
 602 1386 l 1
 602 1346 l 1
 602 680.928710938 l 1
 720.049804688 800.344726562 848.9765625 867 991 867 c 0
 1237.95703125 867 1413 695.399414062 1413 461.857421875 c 0
 1410.75195312 146.013671875 1134.78320312 0 653 0 c 2
 98 0 l 1
 58 0 l 1
 58 40 l 1
 58 220 l 1
 58 260 l 1
 98 260 l 1
 297.720703125 260 l 1
EndSplineSet
Substitution2: "'fina' Terminal Forms in Arabic lookup 9 subtable" uniFEC2
Substitution2: "'medi' Medial Forms in Arabic lookup 11 subtable" uniFEC4
Substitution2: "'init' Initial Forms in Arabic lookup 13 subtable" uniFEC3
EndChar

StartChar: uni0639
Encoding: 1593 1593 33
GlifName: uni0639
Width: 1306
VWidth: 2990
GlyphClass: 2
Flags: HW
AnchorPoint: "Anchor-7" 670.833 -790.619 basechar 0
AnchorPoint: "Anchor-10" 694.478 1404.07 basechar 0
LayerCount: 2
Fore
SplineSet
947.780273438 788.487304688 m 2
 851.754882812 844.744140625 773.66796875 871 715 871 c 0
 614.530273438 871 535 807.733398438 535 710 c 0
 535 637.0546875 567.40625 599.521484375 621.493164062 532.435546875 c 1
 733.990234375 551.345703125 828.998046875 561 912 561 c 0
 975.72265625 561 1037.11425781 556.889648438 1097.046875 550.794921875 c 2
 1138.15039062 546.614257812 l 1
 1132.64257812 505.66796875 l 1
 1109.64257812 334.66796875 l 1
 1104.76171875 298.37890625 l 1
 1068.18359375 300.041015625 l 2
 1025.06933594 302.000976562 991.932617188 302 971 302 c 0
 498.771484375 302 304 141.548828125 304 -117 c 0
 304 -303.18359375 447.23828125 -422 766 -422 c 0
 916.263660336 -422 1046.59667969 -381.23046875 1180.59277344 -319.306640625 c 1
 1190.76464844 -368.709960938 l 1
 1225.76464844 -538.709960938 l 1
 1232 -569 l 1
 1086.74707031 -640.524414062 944.594569335 -674 755 -674 c 0
 378.58203125 -674 58 -498.809570312 58 -124 c 0
 58 97.361328125 153.1484375 318.64453125 374.995117188 439.0390625 c 1
 311.048828125 527.80859375 282 623.229492188 282 723 c 0
 282 940.27734375 480.767578125 1129 705 1129 c 0
 816.709960938 1129 935.182617188 1085.02441406 1056.57714844 1002.01953125 c 2
 1084.265625 983.086914062 l 1
 1070.44921875 952.5234375 l 1
 1004.44921875 806.5234375 l 1
 986.13671875 766.015625 l 1
 947.780273438 788.487304688 l 2
EndSplineSet
Substitution2: "'fina' Terminal Forms in Arabic lookup 9 subtable" uniFECA
Substitution2: "'medi' Medial Forms in Arabic lookup 11 subtable" uniFECC
Substitution2: "'init' Initial Forms in Arabic lookup 13 subtable" uniFECB
EndChar

StartChar: uni0640
Encoding: 1600 1600 35
GlifName: afii57440
Width: 286
VWidth: 2950
GlyphClass: 2
Flags: HW
AnchorPoint: "Anchor-10" 143.774 870.11 basechar 0
AnchorPoint: "Anchor-7" 147.7 -196.739 basechar 0
LayerCount: 2
Fore
SplineSet
-19 0 m 1
 -19 260 l 1
 305 260 l 1
 305 0 l 1
 -19 0 l 1
EndSplineSet
EndChar

StartChar: uni0643
Encoding: 1603 1603 38
GlifName: uni0643
Width: 1871
VWidth: 2950
GlyphClass: 2
Flags: HW
AnchorPoint: "Anchor-7" 900.268 -186.468 basechar 0
AnchorPoint: "Anchor-10" 948.11 1470.05 basechar 0
LayerCount: 2
Fore
SplineSet
692.487304688 757.747070312 m 2
 753.58984375 750.848632812 806.345703125 747 849 747 c 0
 963.275390625 747 1025 766.451171875 1025 800 c 0
 1025 839.734375 1000.39160156 855.692382812 934.920898438 865.463867188 c 0
 784.131835938 889.330078125 693 971.526367188 693 1109 c 0
 693 1288.10742188 860.333007812 1369.8359375 1118.90820312 1389.87988281 c 2
 1162 1393.22070312 l 1
 1162 1350 l 1
 1162 1225 l 1
 1162 1188.56835938 l 1
 1125.7265625 1185.17382812 l 2
 945.881835938 1168.34667969 902 1125.17480469 902 1108 c 0
 902 1089.58984375 916.592773438 1064.45800781 1009.06445312 1050.53808594 c 0
 1152.21191406 1028.17089844 1233 941.045898438 1233 804 c 0
 1233 616.540039062 1054.453125 539 866 539 c 0
 811.450195312 539 749.610351562 544.208984375 682.0078125 554.451171875 c 2
 648 559.604492188 l 1
 648 594 l 1
 648 718 l 1
 648 762.770507812 l 1
 692.487304688 757.747070312 l 2
978 260 m 2
 1450.11230469 260 1514 348 1514 510 c 2
 1514 1346 l 5
 1514 1386 l 5
 1554 1386 l 5
 1723 1386 l 5
 1763 1386 l 5
 1763 1346 l 5
 1763 512 l 2
 1763 170 1570.88867188 0 985 0 c 2
 840 0 l 2
 355.549804688 0 58 169.282226562 58 524 c 0
 58 619.020507812 79.3525390625 710.384765625 115.2578125 793.8125 c 2
 130.302734375 828.768554688 l 1
 165.96484375 815.483398438 l 1
 318.96484375 758.483398438 l 1
 356.528320312 744.489257812 l 1
 342.453125 706.955078125 l 2
 323.043945312 655.196289062 313 601.823242188 313 549.090820312 c 0
 313.841796875 363.971679688 464.77734375 260 830 260 c 2
 978 260 l 2
EndSplineSet
Substitution2: "'fina' Terminal Forms in Arabic lookup 9 subtable" uniFEDA
Substitution2: "'medi' Medial Forms in Arabic lookup 11 subtable" uniFEDC
Substitution2: "'init' Initial Forms in Arabic lookup 13 subtable" uniFEDB
EndChar

StartChar: uni0644
Encoding: 1604 1604 39
GlifName: uni0644
Width: 1377
VWidth: 2990
GlyphClass: 2
Flags: HW
AnchorPoint: "Anchor-7" 662.902 -668.086 basechar 0
AnchorPoint: "Anchor-10" 654.908 1045.66 basechar 0
LayerCount: 2
Fore
SplineSet
372.23046875 383.374023438 m 2
 329.3671875 274.26953125 309 185.6796875 309 76 c 0
 309 -158.313476562 422.0234375 -267 675 -267 c 0
 907.654296875 -267 1017 -152 1018 108.045898438 c 2
 1021 1346.09082031 l 5
 1021.09082031 1386 l 5
 1061 1386 l 5
 1229 1386 l 5
 1269.03125 1386 l 5
 1269 1345.96875 l 5
 1268 147 l 2
 1268 -287 1065.59179688 -520 674 -520 c 0
 272.267578125 -520 58 -314.872070312 58 77 c 0
 58 217.543945312 86.6728515625 339.990234375 143.036132812 476.286132812 c 2
 158.229492188 513.026367188 l 1
 195.061523438 498.055664062 l 1
 350.061523438 435.055664062 l 1
 386.685546875 420.169921875 l 1
 372.23046875 383.374023438 l 2
EndSplineSet
Substitution2: "'fina' Terminal Forms in Arabic lookup 9 subtable" uniFEDE
Substitution2: "'medi' Medial Forms in Arabic lookup 11 subtable" uniFEE0
Substitution2: "'init' Initial Forms in Arabic lookup 13 subtable" uniFEDF
EndChar

StartChar: uni0645
Encoding: 1605 1605 40
GlifName: uni0645
Width: 1240
VWidth: 2620
GlyphClass: 2
Flags: HW
AnchorPoint: "Anchor-10" 773.952 1060.2 basechar 0
AnchorPoint: "Anchor-7" 724.983 -298.909 basechar 0
LayerCount: 2
Fore
SplineSet
618.0859375 349.688476562 m 1
 725.889648438 269.482421875 805.978515625 235.201171875 852.79296875 235 c 0
 912.32421875 235.995117188 935 257.801757812 935 335 c 0
 935 444.620117188 877.54296875 516 791 516 c 0
 725.229492188 516 667.145507812 469.454101562 618.0859375 349.688476562 c 1
72.0712890625 -627.388671875 m 2
 65.0458984375 -509.95703125 61 -409.030273438 61 -303 c 0
 61 30.853515625 103.784179688 336.181640625 365.75390625 403.388671875 c 1
 465.771484375 645.087890625 605.8125 779.884765625 789.87890625 781 c 0
 1031.57910156 781 1182 578.122070312 1182 347 c 0
 1182 140.458007812 1074.0859375 -23 853 -23 c 0
 773.83203125 -23 687.03125 8.04296875 588.430664062 64.6865234375 c 0
 556.564453125 84.6025390625 525.01171875 101.271484375 487.67578125 120.444335938 c 0
 462.997070312 133.208984375 441.1953125 137.90234375 429.208984375 138 c 0
 373.76171875 137.181640625 314 34.0341796875 314 -275 c 0
 314 -404.989257812 318.951171875 -515.744140625 327.859375 -621.647460938 c 2
 331.505859375 -665 l 1
 288 -665 l 1
 112 -665 l 1
 74.3212890625 -665 l 1
 72.0712890625 -627.388671875 l 2
EndSplineSet
Substitution2: "'init' Initial Forms in Arabic lookup 13 subtable" uniFEE3
Substitution2: "'medi' Medial Forms in Arabic lookup 11 subtable" uniFEE4
Substitution2: "'fina' Terminal Forms in Arabic lookup 9 subtable" uniFEE2
EndChar

StartChar: uni0647
Encoding: 1607 1607 42
GlifName: uni0647
Width: 942
VWidth: 2950
GlyphClass: 2
Flags: HW
AnchorPoint: "Anchor-10" 419.775 1249.01 basechar 0
AnchorPoint: "Anchor-7" 445.63 -202.576 basechar 0
LayerCount: 2
Fore
SplineSet
458.251953125 632.206054688 m 1
 351.28125 532.732421875 305 450.7734375 305 389 c 0
 305 301.705078125 345.985351562 260 470 260 c 0
 595.219726562 260 637 301.90234375 637 390 c 0
 637 442.938476562 582.102539062 528.05078125 458.251953125 632.206054688 c 1
402.631835938 1014.27246094 m 2
 713.985351562 786.28125 884 578.947265625 884 384 c 0
 884 165.375 716.544921875 7.2412109375 471.264648438 4 c 0
 222.365234375 4 58 142.774414062 58 384 c 0
 58 527.537109375 134.33203125 670.353515625 268.5234375 810.748046875 c 1
 255.802734375 821.772460938 l 1
 227.70703125 846.122070312 l 1
 249.940429688 875.920898438 l 1
 346.940429688 1005.92089844 l 1
 370.647460938 1037.69335938 l 1
 402.631835938 1014.27246094 l 2
EndSplineSet
Substitution2: "'fina' Terminal Forms in Arabic lookup 9 subtable" uniFEEA
Substitution2: "'medi' Medial Forms in Arabic lookup 11 subtable" uniFEEC
Substitution2: "'init' Initial Forms in Arabic lookup 13 subtable" uniFEEB
EndChar

StartChar: uni0648
Encoding: 1608 1608 43
GlifName: uni0648
Width: 880
VWidth: 2142
GlyphClass: 2
Flags: HW
AnchorPoint: "Anchor-7" 415.969 -599.998 basechar 0
AnchorPoint: "Anchor-10" 430.256 1070.2 basechar 0
LayerCount: 2
Fore
SplineSet
557.537109375 5.787109375 m 1
 508.865234375 0.4814453125 477.973632812 -2 457 -2 c 0
 204.091796875 -2 58 111.453125 58 336 c 0
 58 575.069335938 201.731445312 800 428 800 c 0
 710.670898438 800 822 486.165039062 822 206 c 0
 822 -184.240234375 600.448242188 -446.249023438 175.493164062 -527.291992188 c 2
 142.80859375 -533.525390625 l 1
 130.728515625 -502.521484375 l 1
 70.728515625 -348.521484375 l 1
 53.1953125 -303.517578125 l 1
 100.677734375 -294.67578125 l 2
 349.509765625 -248.341796875 494.779296875 -141.53515625 557.537109375 5.787109375 c 1
573.61328125 268.624023438 m 1
 555.16015625 468.71875 496.330078125 535 420 535 c 0
 362.400390625 535 303 457.723632812 303 351 c 0
 303 288.405273438 337.463867188 252 458 252 c 0
 494.712890625 252 535.008789062 258.637695312 573.61328125 268.624023438 c 1
EndSplineSet
Substitution2: "'fina' Terminal Forms in Arabic lookup 9 subtable" uniFEEE
EndChar

StartChar: uni0649
Encoding: 1609 1609 44
GlifName: uni0649
Width: 1477
VWidth: 2950
GlyphClass: 2
Flags: HW
AnchorPoint: "Anchor-7" 716.902 -676.086 basechar 0
AnchorPoint: "Anchor-10" 644.6 946.22 basechar 0
LayerCount: 2
Fore
SplineSet
398.017578125 509.844726562 m 2
 338.346679688 364.090820312 309 236.116210938 309 122 c 0
 309 -127.860351562 436.658203125 -247.051757812 724.06640625 -248 c 0
 957.73046875 -248 1177 -143.649414062 1177 -2 c 0
 1177 7.0283203125 1181.546875 15 1136.85058594 15 c 2
 1002.7265625 16.0009765625 l 2
 822.8671875 17.1181640625 722 119.474609375 722 300 c 0
 722 555.026367188 938.34765625 781.994140625 1260.58691406 781.994140625 c 4
 1298.77148438 781.994140625 1338.37109375 778.923828125 1379.20117188 772.516601562 c 6
 1413 767.212890625 l 5
 1413 733 l 5
 1413 554 l 5
 1413 506.514648438 l 5
 1366.20507812 514.581054688 l 6
 1332.2578125 520.432617188 1299.6015625 523.197265625 1268.67382812 523.197265625 c 4
 1085.59375 523.197265625 975 426.212890625 975 309 c 0
 975 277.2820207 978.314544 275 1005 275 c 2
 1144 275 l 2
 1314.24511719 275 1419 194.247070312 1419 38 c 0
 1419 -311.319335938 1120.96777344 -499 719 -499 c 0
 288.452148438 -499 58 -288.056640625 58 119 c 0
 58 267.784179688 95.6103515625 429.923828125 169.166992188 603.599609375 c 2
 184.541015625 639.899414062 l 1
 221.061523438 625.055664062 l 1
 376.061523438 562.055664062 l 1
 413.2109375 546.956054688 l 1
 398.017578125 509.844726562 l 2
EndSplineSet
Substitution2: "'fina' Terminal Forms in Arabic lookup 9 subtable" uniFEF0
Substitution2: "'medi' Medial Forms in Arabic lookup 11 subtable" uniFBE9
Substitution2: "'init' Initial Forms in Arabic lookup 13 subtable" uniFBE8
EndChar

StartChar: uni064B
Encoding: 1611 1611 46
GlifName: uni064B_
Width: -26
VWidth: 2316
GlyphClass: 4
Flags: HW
AnchorPoint: "Anchor-10" 583.551 1123.65 mark 0
AnchorPoint: "Anchor-9" 583.551 1123.65 mark 0
AnchorPoint: "Anchor-1" 553.285 1596.25 basemark 0
AnchorPoint: "Anchor-1" 583.551 1123.65 mark 0
LayerCount: 2
Fore
SplineSet
317 1076 m 1
 317 1180 l 1
 317 1186.71537562 l 1
 323.216048115 1189.25644144 l 1
 778.216048115 1375.25644144 l 1
 792 1380.89119979 l 1
 792 1366 l 1
 792 1263 l 1
 792 1256.29826689 l 1
 785.801362686 1253.75069507 l 1
 330.801362686 1066.75069507 l 1
 317 1061.07848667 l 1
 317 1076 l 1
317 1288 m 1
 317 1392 l 1
 317 1398.71537562 l 1
 323.216048115 1401.25644144 l 1
 778.216048115 1587.25644144 l 1
 792 1592.89119979 l 1
 792 1578 l 1
 792 1475 l 1
 792 1468.29826689 l 1
 785.801362686 1465.75069507 l 1
 330.801362686 1278.75069507 l 1
 317 1273.07848667 l 1
 317 1288 l 1
EndSplineSet
EndChar

StartChar: uni064C
Encoding: 1612 1612 47
GlifName: uni064C_
Width: -26
VWidth: 2316
GlyphClass: 4
Flags: HW
AnchorPoint: "Anchor-10" 680.906 1278.67 mark 0
AnchorPoint: "Anchor-9" 680.906 1278.67 mark 0
AnchorPoint: "Anchor-1" 637.739 1852.46 basemark 0
AnchorPoint: "Anchor-1" 680.906 1278.67 mark 0
LayerCount: 2
Fore
SplineSet
479 1629 m 0
 479 1731.76552225 552.4963966 1801 652 1801 c 0
 752.064112453 1801 824 1732.53591765 824 1628 c 0
 824 1591.16085925 815.378868534 1552.27469286 801.031294994 1514.97279472 c 1
 814.093104284 1513.34371792 821.9010554 1513 830 1513 c 2
 840 1513 l 1
 840 1503 l 1
 840 1427 l 1
 840 1416.4875078 l 1
 829.500623831 1417.01247661 l 2
 810.968118627 1417.93910187 788.159123035 1419.87699272 760.066529146 1424.73856031 c 1
 695.878207041 1276.81129477 600.310607473 1200.99202128 471.867219481 1200.99202128 c 0
 332.0720901 1200.99202128 261.019531073 1301.70235437 258.001286606 1489.83959283 c 2
 257.864600947 1498.35966558 l 1
 266.255036765 1499.84657825 l 1
 345.255036765 1513.84657825 l 1
 356.754576749 1515.88447142 l 1
 356.997830567 1504.20828814 l 2
 359.988700673 1360.64652305 400.817629911 1299 473 1299 c 0
 539.4246915 1299 601.936332407 1346.48802742 658.376739308 1442.60817591 c 1
 557.781001019 1479.37677148 479 1530.42799523 479 1629 c 0
703.160444539 1534.93682037 m 1
 715.662442249 1565.48638565 726 1599.53496259 726 1627 c 0
 726 1669.85117324 693.892850854 1701 656 1701 c 0
 610.735108636 1701 579 1671.60733904 579 1625 c 0
 579 1579.55048991 639.93500653 1552.41557778 703.160444539 1534.93682037 c 1
EndSplineSet
EndChar

StartChar: uni064D
Encoding: 1613 1613 48
GlifName: uni064D_
Width: -26
VWidth: 2316
GlyphClass: 4
Flags: HW
AnchorPoint: "Anchor-7" 542.278 32.7109 mark 0
AnchorPoint: "Anchor-6" 542.278 32.7109 mark 0
AnchorPoint: "Anchor-0" 592.022 -407.025 basemark 0
AnchorPoint: "Anchor-0" 542.278 32.7109 mark 0
LayerCount: 2
Fore
SplineSet
322 -446 m 1
 322 -342 l 1
 322 -335.279048682 l 1
 328.223161451 -332.74065388 l 1
 784.223161451 -146.74065388 l 1
 798 -141.121153945 l 1
 798 -156 l 1
 798 -260 l 1
 798 -266.720951318 l 1
 791.776838549 -269.25934612 l 1
 335.776838549 -455.25934612 l 1
 322 -460.878846055 l 1
 322 -446 l 1
322 -234 m 1
 322 -130 l 1
 322 -123.279048682 l 1
 328.223161451 -120.74065388 l 1
 784.223161451 65.2593461202 l 1
 798 70.8788460547 l 1
 798 56 l 1
 798 -48 l 1
 798 -54.7209513179 l 1
 791.776838549 -57.2593461202 l 1
 335.776838549 -243.25934612 l 1
 322 -248.878846055 l 1
 322 -234 l 1
EndSplineSet
EndChar

StartChar: uni064E
Encoding: 1614 1614 49
GlifName: uni064E_
Width: -26
VWidth: 2316
GlyphClass: 4
Flags: HW
AnchorPoint: "Anchor-10" 545.66 1397.63 mark 0
AnchorPoint: "Anchor-9" 545.66 1397.63 mark 0
AnchorPoint: "Anchor-1" 541.396 1651.77 basemark 0
AnchorPoint: "Anchor-1" 545.66 1397.63 mark 0
LayerCount: 2
Fore
SplineSet
286 1349 m 1
 286 1453 l 1
 286 1459.72095132 l 1
 292.223161451 1462.25934612 l 1
 748.223161451 1648.25934612 l 1
 762 1653.87884605 l 1
 762 1639 l 1
 762 1535 l 1
 762 1528.27904868 l 1
 755.776838549 1525.74065388 l 1
 299.776838549 1339.74065388 l 1
 286 1334.12115395 l 1
 286 1349 l 1
EndSplineSet
EndChar

StartChar: uni064F
Encoding: 1615 1615 50
GlifName: uni064F_
Width: -26
VWidth: 2316
GlyphClass: 4
Flags: HW
AnchorPoint: "Anchor-10" 591.295 1359.37 mark 0
AnchorPoint: "Anchor-9" 591.295 1359.37 mark 0
AnchorPoint: "Anchor-1" 542.134 1865.4 basemark 0
AnchorPoint: "Anchor-1" 591.295 1359.37 mark 0
LayerCount: 2
Fore
SplineSet
723 1417 m 2
 696.672586134 1417 671.922819741 1418.79781391 647.515202101 1422.22225113 c 1
 578.69926327 1330.31071922 463.042550993 1281.93241039 300.547955996 1273.01502407 c 2
 290 1272.43617283 l 1
 290 1283 l 1
 290 1361 l 1
 290 1370.12583742 l 1
 299.087788707 1370.95830661 l 2
 417.268496548 1381.78402031 498.640466132 1409.42316493 545.393098832 1449.17847415 c 1
 457.136834754 1471.05216959 370 1531.72501055 370 1626 c 0
 370 1729.20445185 443.731478569 1798 543 1798 c 0
 642.596896992 1798 716 1728.67335246 716 1625 c 0
 716 1588.31930976 707.86260554 1550.64768392 693.984631457 1514.10436758 c 1
 704.474070047 1512.77330843 713.132445597 1512 723 1512 c 2
 733 1512 l 1
 733 1502 l 1
 733 1427 l 1
 733 1417 l 1
 723 1417 l 2
594.160444539 1531.93682037 m 1
 606.662442249 1562.48638565 617 1596.53496259 617 1624 c 0
 617 1667.28374682 585.872275552 1697 547 1697 c 0
 501.150271426 1697 470 1668.84130925 470 1622 c 0
 470 1576.55048991 530.93500653 1549.41557778 594.160444539 1531.93682037 c 1
EndSplineSet
EndChar

StartChar: uni0650
Encoding: 1616 1616 51
GlifName: uni0650
Width: -26
VWidth: 2316
GlyphClass: 4
Flags: HW
AnchorPoint: "Anchor-7" 571.144 -44.8242 mark 0
AnchorPoint: "Anchor-6" 571.144 -44.8242 mark 0
AnchorPoint: "Anchor-0" 619.091 -324.624 basemark 0
AnchorPoint: "Anchor-0" 571.144 -44.8242 mark 0
LayerCount: 2
Fore
SplineSet
333 -346 m 1
 333 -242 l 1
 333 -235.284624383 l 1
 339.216048115 -232.74355856 l 1
 794.216048115 -46.7435585601 l 1
 808 -41.108800207 l 1
 808 -56 l 1
 808 -159 l 1
 808 -165.701733113 l 1
 801.801362686 -168.249304932 l 1
 346.801362686 -355.249304932 l 1
 333 -360.921513333 l 1
 333 -346 l 1
EndSplineSet
EndChar

StartChar: uni0651
Encoding: 1617 1617 52
GlifName: uni0651
Width: -26
VWidth: 2393
GlyphClass: 4
Flags: HW
AnchorPoint: "Anchor-10" 598.801 1453.71 mark 0
AnchorPoint: "Anchor-9" 598.801 1453.71 mark 0
AnchorPoint: "Anchor-1" 570.087 1839.1 basemark 0
AnchorPoint: "Anchor-1" 598.801 1453.71 mark 0
LayerCount: 2
Fore
SplineSet
617.993628543 1758.35691531 m 2
 619.001942224 1730.12413226 619.009174284 1703.24601087 620.972681039 1676.73866968 c 0
 625.43563725 1616.48489178 645.692717839 1584 681 1584 c 0
 720.10630762 1584 738 1609.27219198 738 1675 c 0
 738 1698.52444509 732.143521803 1738.28169094 721.208661625 1790.96783543 c 2
 719.078938974 1801.22922639 l 1
 729.428849513 1802.87580306 l 1
 817.428849513 1816.87580306 l 1
 826.124156558 1818.25914737 l 1
 828.59737407 1809.80898753 l 2
 840.849630812 1767.94711033 847 1726.00080397 847 1685 c 0
 847 1547.71619231 795.184775075 1473.07279343 690.05101908 1472 c 0
 650.90853806 1472 608.452011917 1488.24920552 584.138732222 1516.4690507 c 1
 556.145491191 1447.7049043 489.548898937 1428 432 1428 c 0
 331.587669416 1428 283.873817788 1496.27833027 283.873817788 1616.0779836 c 0
 283.873817788 1653.12839481 288.882749168 1687.57592779 297.352361788 1718.63117406 c 2
 299.730110448 1727.34958581 l 1
 308.643989873 1725.86393924 l 1
 386.643989873 1712.86393924 l 1
 397.086130606 1711.12358245 l 1
 394.754410021 1700.79739129 l 2
 387.949485082 1670.66129513 386 1643.4433728 386 1620 c 0
 386 1567.1092627 405.337258194 1546 444 1546 c 0
 518.825537249 1546 521.4140625 1594.56261462 521.4140625 1719.33203125 c 0
 521.4140625 1731.58877154 521.293624535 1744.38847208 521.002363481 1757.78259706 c 2
 520.780181625 1768 l 1
 531 1768 l 1
 608 1768 l 1
 617.649232662 1768 l 1
 617.993628543 1758.35691531 l 2
EndSplineSet
EndChar

StartChar: uni0652
Encoding: 1618 1618 53
GlifName: uni0652
Width: -26
VWidth: 2316
GlyphClass: 4
Flags: HW
AnchorPoint: "Anchor-10" 595.219 1271.43 mark 0
AnchorPoint: "Anchor-9" 595.219 1271.43 mark 0
AnchorPoint: "Anchor-1" 589.537 1682.66 basemark 0
AnchorPoint: "Anchor-1" 595.219 1271.43 mark 0
LayerCount: 2
Fore
SplineSet
411.07421875 1461.82128906 m 0
 411.07421875 1563.51160247 492.714265489 1645.14941406 594.40234375 1645.14941406 c 0
 696.091760807 1645.14941406 777.731445312 1563.50896161 777.731445312 1461.82128906 c 0
 777.731445312 1410.94672565 759.824452385 1367.08661364 724.48115545 1331.7433167 c 0
 689.137372158 1296.40021929 645.276883757 1278.49316406 594.40234375 1278.49316406 c 0
 492.713027067 1278.49316406 411.07421875 1360.1341316 411.07421875 1461.82128906 c 0
512.667473694 1461.02255928 m 0
 511.878032554 1414.7684852 550.003592534 1377.01256091 596.758670814 1376.92872723 c 0
 643.256461851 1377.01319924 681.027914865 1414.642493 680.851490069 1461.02248286 c 0
 681.028073381 1507.3907048 643.251391912 1544.97884388 596.758599542 1545.11421597 c 0
 550.000874211 1544.97984479 511.88184158 1507.00046918 512.667473694 1461.02255928 c 0
EndSplineSet
EndChar

StartChar: uni0653
Encoding: 1619 1619 54
GlifName: uni0653
Width: -30
VWidth: 2673
GlyphClass: 4
Flags: HW
AnchorPoint: "Anchor-10" 461.017 1539.11 mark 0
AnchorPoint: "Anchor-9" 461.017 1539.11 mark 0
AnchorPoint: "Anchor-1" 449.017 1883.25 basemark 0
AnchorPoint: "Anchor-1" 461.017 1539.11 mark 0
LayerCount: 2
Fore
SplineSet
373.235351562 1630.82714844 m 0
 317.84812782 1630.82714844 273.09375 1594.02441406 220.8125 1531.45800781 c 2
 208.190429688 1516.35351562 l 1
 194.272460938 1530.27246094 l 1
 93.2724609375 1631.27246094 l 1
 82.599609375 1641.94433594 l 1
 91.248046875 1654.31347656 l 2
 161.051757812 1754.16015625 236.762743827 1818.68457031 338.674804688 1818.68457031 c 0
 428.804185416 1818.68457031 496.763689182 1777.62207031 574.038085938 1777.62207031 c 0
 624.56029096 1777.62207031 671.194335938 1793.33496094 733.87109375 1825.05957031 c 6
 750.009765625 1833.22851562 l 5
 758.099609375 1817.04980469 l 5
 824.099609375 1685.04980469 l 5
 831.465820312 1670.31738281 l 5
 817.443359375 1661.67675781 l 6
 746.322265625 1617.84570312 680.378544399 1594.77568603 600.071557636 1594.77568603 c 0
 513.537633763 1594.77568603 445.873031967 1630.82714844 373.235351562 1630.82714844 c 0
EndSplineSet
EndChar

StartChar: uni0657
Encoding: 1623 1623 57
GlifName: uni0657
Width: -26
VWidth: 2316
GlyphClass: 4
Flags: HW
AnchorPoint: "Anchor-10" 513.285 1400.55 mark 0
AnchorPoint: "Anchor-9" 513.285 1400.55 mark 0
AnchorPoint: "Anchor-1" 537.285 2069.85 basemark 0
AnchorPoint: "Anchor-1" 513.285 1400.55 mark 0
LayerCount: 2
Fore
SplineSet
265.249921912 1814.99687646 m 2
 303.937053169 1814.02969818 345.68248625 1811.15593714 390.496059094 1806.52841897 c 1
 492.274757705 1948.91988621 622.556743554 2027.81479388 784.066592913 2042.95634226 c 2
 795 2043.98134917 l 1
 795 2033 l 1
 795 1955 l 1
 795 1946.49468225 l 1
 786.604937966 1945.12963151 l 2
 670.536380848 1926.25669539 575.665779254 1871.67253031 502.93786593 1783.19564627 c 1
 586.746937685 1755.38953044 668 1698.64701459 668 1599 c 0
 668 1502.6830679 598.72271107 1428 501 1428 c 0
 403.846001283 1428 322 1496.68663051 322 1603 c 0
 322 1630.90288887 328.628189847 1669.41098266 341.715037007 1712.93824855 c 1
 317.995583066 1714.60971679 293.531610965 1716 265 1716 c 2
 255 1716 l 1
 255 1726 l 1
 255 1805 l 1
 255 1815.25312451 l 1
 265.249921912 1814.99687646 l 2
501 1526 m 0
 543.217778735 1526 567 1553.25868907 567 1597 c 0
 567 1647.10826499 506.848893173 1680.36737559 442.966076713 1697.20648817 c 1
 427.349024452 1658.40288448 420 1628.27331069 420 1605 c 0
 420 1558.66289921 456.303816724 1526 501 1526 c 0
EndSplineSet
EndChar

StartChar: uni065A
Encoding: 1626 1626 58
GlifName: uni065A_
Width: 1135
VWidth: 2316
GlyphClass: 4
Flags: HW
AnchorPoint: "Anchor-10" 573.285 1350.55 mark 0
AnchorPoint: "Anchor-9" 573.285 1350.55 mark 0
AnchorPoint: "Anchor-1" 571.012 1862.38 basemark 0
AnchorPoint: "Anchor-1" 573.285 1350.55 mark 0
LayerCount: 2
Fore
SplineSet
493.408736507 1438.88236465 m 1
 300.408736507 1762.88236465 l 1
 291.403478412 1778 l 1
 309 1778 l 1
 433 1778 l 1
 438.743703325 1778 l 1
 441.637789009 1773.03871026 l 1
 573.030711641 1547.79370003 l 1
 705.377888534 1773.06549049 l 1
 708.276912873 1778 l 1
 714 1778 l 1
 838 1778 l 1
 855.643211119 1778 l 1
 846.579598704 1762.86283287 l 1
 652.579598704 1438.86283287 l 1
 649.667902477 1434 l 1
 644 1434 l 1
 502 1434 l 1
 496.317058659 1434 l 1
 493.408736507 1438.88236465 l 1
EndSplineSet
EndChar

StartChar: uni0660
Encoding: 1632 1632 59
GlifName: afii57392
Width: 902
VWidth: 2655
GlyphClass: 2
Flags: HW
LayerCount: 2
Fore
SplineSet
95 503 m 0
 95 699 255 859 451 859 c 0
 647 859 807 699 807 503 c 0
 807 307 647 147 451 147 c 0
 255 147 95 307 95 503 c 0
317 503 m 4
 317 428 377 368 451 368 c 4
 525 368 585 428 585 503 c 4
 585 577 526 636 451 636 c 4
 376 636 317 577 317 503 c 4
EndSplineSet
EndChar

StartChar: uni0661
Encoding: 1633 1633 60
GlifName: afii57393
Width: 651
VWidth: 2950
GlyphClass: 2
Flags: HW
LayerCount: 2
Fore
SplineSet
310.4765625 1316.41503906 m 6
 448.2421875 1010.26953125 517 654.20703125 517 225 c 6
 517 40 l 1
 517 0 l 1
 477 0 l 1
 307 0 l 1
 267 0 l 1
 267 40 l 1
 267 228 l 6
 267 650.224609375 204.370117188 975.965820312 82.083984375 1225.39160156 c 6
 62.5126953125 1265.3125 l 5
 104.272460938 1280.5703125 l 5
 260.272460938 1337.5703125 l 5
 295.211914062 1350.33691406 l 5
 310.4765625 1316.41503906 l 6
EndSplineSet
EndChar

StartChar: uni0662
Encoding: 1634 1634 61
GlifName: afii57394
Width: 1114
VWidth: 2950
GlyphClass: 2
Flags: HW
LayerCount: 2
Fore
SplineSet
267 228 m 6
 267 650.224609375 204.370117188 975.965820312 82.083984375 1225.39160156 c 6
 62.44140625 1265.45800781 l 5
 104.408203125 1280.62011719 l 5
 259.408203125 1336.62011719 l 5
 296.577148438 1350.04882812 l 5
 310.453125 1313.04492188 l 6
 340.283203125 1233.49902344 371.369140625 1154.26757812 401.409179688 1074.16113281 c 4
 444.138671875 962.337890625 499.854492188 915 624 915 c 4
 738.172851562 915 790 985.7265625 790 1130 c 4
 790 1178.36328125 780.052734375 1243.34472656 773.517578125 1283.58789062 c 6
 766.783203125 1325.05566406 l 5
 808.53125 1329.75 l 5
 977.53125 1348.75 l 5
 1016.64160156 1353.14648438 l 5
 1021.671875 1314.11230469 l 6
 1027.41503906 1269.54199219 1036 1202.46679688 1036 1140 c 4
 1036 854.291992188 891.715820312 662 626 662 c 4
 572.461914062 662 529.461914062 668.111328125 486.611328125 681.689453125 c 5
 507.6875 515.392578125 517 367.305664062 517 225 c 6
 517 40 l 1
 517 0 l 1
 477 0 l 1
 307 0 l 1
 267 0 l 1
 267 40 l 1
 267 228 l 6
EndSplineSet
EndChar

StartChar: uni0663
Encoding: 1635 1635 62
GlifName: afii57395
Width: 1411
VWidth: 2950
GlyphClass: 2
Flags: HW
LayerCount: 2
Fore
SplineSet
267 228 m 6
 267 650.224609375 204.370117188 975.965820312 82.083984375 1225.39160156 c 6
 62.44140625 1265.45800781 l 5
 104.408203125 1280.62011719 l 5
 259.408203125 1336.62011719 l 5
 297.190429688 1350.27050781 l 5
 310.677734375 1312.4296875 l 6
 346.564453125 1211.74707031 383.583984375 1111.69433594 419.668945312 1010.45605469 c 4
 442.883789062 945.615234375 486.399414062 915.858398438 566.21484375 915 c 4
 614.90625 915 656.984375 962.440429688 658 1141.11328125 c 4
 658 1173.66992188 659 1206.8984375 659 1238 c 6
 659 1274.765625 l 5
 695.635742188 1277.85839844 l 5
 849.635742188 1290.85839844 l 5
 891.740234375 1294.41210938 l 5
 892.982421875 1252.17578125 l 6
 893.95703125 1219.04199219 895.967773438 1183.69140625 896.977539062 1149.35644531 c 4
 904.068359375 965.00390625 949.163085938 915 999 915 c 4
 1064.01367188 915 1088 971.23046875 1088 1074 c 4
 1088 1165.70214844 1076.56933594 1231.27636719 1067.5859375 1283.17871094 c 6
 1060.38867188 1324.76269531 l 5
 1102.29882812 1329.72265625 l 5
 1271.29882812 1349.72265625 l 5
 1310.67382812 1354.3828125 l 5
 1315.6796875 1315.04980469 l 6
 1322.68261719 1260.03125 1333 1180.65625 1333 1080 c 4
 1333 850.287109375 1229.53320312 662 995 662 c 4
 913.35546875 662 837.157226562 692.670898438 772.387695312 754.407226562 c 5
 708.176757812 691.787109375 636.748046875 662 568 662 c 4
 542.165039062 662 514.212890625 664.953125 488.629882812 671.650390625 c 5
 508.603515625 509.989257812 517 375.048828125 517 225 c 6
 517 40 l 5
 517 0 l 5
 477 0 l 5
 307 0 l 5
 267 0 l 5
 267 40 l 5
 267 228 l 6
EndSplineSet
EndChar

StartChar: uni0664
Encoding: 1636 1636 63
GlifName: afii57396
Width: 1006
VWidth: 2950
GlyphClass: 2
Flags: HW
LayerCount: 2
Fore
SplineSet
782.918945312 606.88671875 m 2
 476.735351562 483.802734375 354 414.68359375 354 351 c 0
 354 304.611328125 447.677734375 260 704 260 c 2
 896 260 l 1
 935.557617188 260 l 1
 935.997070312 220.444335938 l 1
 937.997070312 40.4443359375 l 1
 938.447265625 0 l 1
 898 0 l 1
 696.946289062 0 l 2
 323.961914062 1 91 103.46484375 91 347 c 0
 91 504.43359375 216.002929688 592.322265625 416.626953125 698.075195312 c 1
 262.78515625 754.038085938 174 818.470703125 174 973 c 0
 174 1215.26269531 409.48046875 1335.89550781 655.748046875 1339 c 4
 702.140625 1339 752.099609375 1335.91894531 802.861328125 1329.703125 c 2
 840.66796875 1325.07421875 l 1
 837.893554688 1287.0859375 l 1
 824.893554688 1109.0859375 l 1
 821.837890625 1067.2421875 l 1
 780.186523438 1072.29101562 l 2
 748.4765625 1076.13378906 720.091796875 1078 694 1078 c 0
 507.21484375 1078 449 1029.85644531 449 956 c 0
 449 902.821289062 527.296875 885.459960938 769.391601562 864.85546875 c 2
 805.595703125 861.774414062 l 1
 805.997070312 825.442382812 l 1
 807.997070312 644.442382812 l 1
 808.299804688 617.088867188 l 1
 782.918945312 606.88671875 l 2
EndSplineSet
EndChar

StartChar: uni0665
Encoding: 1637 1637 64
GlifName: afii57397
Width: 1177
VWidth: 2950
GlyphClass: 2
Flags: HW
LayerCount: 2
Fore
SplineSet
566.013671875 903.907226562 m 1
 406.993164062 723.731445312 329 586.740234375 329 478 c 4
 329 340.961914062 408.801757812 258 595 258 c 0
 764.572265625 258 849 340.840820312 849 485 c 4
 849 613.129882812 747.524414062 749.515625 566.013671875 903.907226562 c 1
493.2421875 1301.5546875 m 2
 891.079101562 1017.52929688 1101 802.330078125 1101 462 c 4
 1101 187.465820312 909.049804688 0 591 0 c 0
 254.53515625 0 77 194.489257812 77 461 c 4
 77 687.565429688 180.32421875 846.346679688 361.537109375 1064.95507812 c 1
 336.48046875 1084.39648438 l 1
 306.141601562 1107.93554688 l 1
 328.421875 1139.20898438 l 1
 437.421875 1292.20898438 l 1
 460.654296875 1324.8203125 l 1
 493.2421875 1301.5546875 l 2
EndSplineSet
EndChar

StartChar: uni0666
Encoding: 1638 1638 65
GlifName: afii57398
Width: 1215
VWidth: 2950
GlyphClass: 2
Flags: HW
LayerCount: 2
Fore
SplineSet
837.1328125 30.5458984375 m 2
 758.879882812 352.254882812 714.779296875 609.302734375 704.204101562 994.407226562 c 1
 611.750976562 971.208984375 532.780273438 959 434 959 c 0
 297.265625 959 199.735351562 987.545898438 76.4482421875 1043.58496094 c 2
 53 1054.24316406 l 1
 53 1080 l 1
 53 1287 l 1
 53 1349.51660156 l 1
 109.762695312 1323.31835938 l 2
 237.169921875 1264.51464844 332.765625 1236 480 1236 c 0
 620.860351562 1236 737.42578125 1266.04296875 889.26953125 1326.18847656 c 2
 943.189453125 1347.546875 l 1
 943.99609375 1289.55664062 l 2
 951.967773438 716.594726562 1002.99316406 369.8828125 1098.31933594 51.47265625 c 2
 1113.72949219 0 l 5
 1060 0 l 1
 876 0 l 1
 844.563476562 0 l 1
 837.1328125 30.5458984375 l 2
EndSplineSet
EndChar

StartChar: uni0667
Encoding: 1639 1639 66
GlifName: afii57399
Width: 1246
VWidth: 2950
GlyphClass: 2
Flags: HW
LayerCount: 2
Fore
SplineSet
502.6015625 33.087890625 m 2
 413.3203125 541.993164062 251.067382812 910.920898438 66.5234375 1193.10644531 c 6
 42.744140625 1229.46777344 l 5
 80.94140625 1250.16796875 l 5
 235.94140625 1334.16796875 l 5
 269.842773438 1352.54003906 l 5
 289.4453125 1319.33496094 l 6
 415.358398438 1106.05273438 543.642578125 804.35546875 623.596679688 466.04296875 c 5
 702.759765625 806.125 830.51953125 1105.84667969 956.5546875 1319.33496094 c 6
 976.157226562 1352.54003906 l 5
 1010.05859375 1334.16796875 l 5
 1165.05859375 1250.16796875 l 5
 1203.25585938 1229.46777344 l 5
 1179.4765625 1193.10644531 l 6
 994.965820312 910.971679688 833.689453125 542.044921875 744.3984375 33.087890625 c 2
 738.59375 -0 l 1
 705 0 l 1
 542 0 l 1
 508.40625 0 l 1
 502.6015625 33.087890625 l 2
EndSplineSet
EndChar

StartChar: uni0668
Encoding: 1640 1640 67
GlifName: afii57400
Width: 1246
VWidth: 2950
GlyphClass: 2
Flags: HW
LayerCount: 2
Fore
SplineSet
542 1325 m 5
 705 1325 l 5
 738.59375 1325 l 5
 744.3984375 1291.91210938 l 6
 833.689453125 782.955078125 994.965820312 414.028320312 1179.4765625 131.893554688 c 2
 1203.25585938 95.5322265625 l 1
 1165.05859375 74.83203125 l 1
 1010.05859375 -9.16796875 l 1
 976.157226562 -27.5400390625 l 1
 956.5546875 5.6650390625 l 2
 830.677734375 218.884765625 702.30078125 520.849609375 623.596679688 858.95703125 c 1
 543.17578125 518.666992188 415.51953125 219.219726562 289.4453125 5.6650390625 c 2
 269.842773438 -27.5400390625 l 1
 235.94140625 -9.16796875 l 1
 80.94140625 74.83203125 l 1
 42.744140625 95.5322265625 l 1
 66.5234375 131.893554688 l 2
 251.067382812 414.079101562 413.3203125 783.006835938 502.6015625 1291.91210938 c 6
 508.40625 1325 l 5
 542 1325 l 5
EndSplineSet
EndChar

StartChar: uni0669
Encoding: 1641 1641 68
GlifName: afii57401
Width: 1026
GlyphClass: 2
Flags: HW
LayerCount: 2
Fore
SplineSet
67 907 m 4
 67 1116.921875 233.532226562 1333 462 1333 c 4
 761.8046875 1333 839.30859375 1091.68945312 853.948242188 809.026367188 c 4
 869.299804688 500.000976562 880.309570312 297.448242188 886.986328125 41.041015625 c 2
 888.055664062 0 l 1
 847 0 l 1
 679 0 l 1
 640.030273438 0 l 1
 639.013671875 38.95703125 l 2
 635.825195312 161.178710938 626.736328125 404.701171875 622.33984375 568.0546875 c 5
 585.993164062 560.518554688 538.692382812 554 483 554 c 4
 221.91015625 554 67 657.821289062 67 907 c 4
461 1082 m 4
 383.380859375 1082 313 996.564453125 313 907 c 4
 313 839.969726562 338.138671875 804 486 804 c 4
 518.087890625 804 569.530273438 811.905273438 604.944335938 819.638671875 c 5
 598.186523438 917.876953125 586.002929688 995.665039062 557.4765625 1037.4453125 c 4
 538.243164062 1065.61425781 512.801757812 1082 461 1082 c 4
EndSplineSet
EndChar

StartChar: uni066A
Encoding: 1642 1642 69
GlifName: afii57381
Width: 1033
VWidth: 4036
GlyphClass: 2
Flags: HW
LayerCount: 2
Fore
SplineSet
758 1348 m 1
 890 1288 l 1
 927 1272 l 1
 312 -7 l 1
 276 9 l 1
 143 69 l 1
 107 85 l 1
 722 1365 l 1
 758 1348 l 1
597 233 m 0
 597 328 674 407 770 407 c 0
 866 407 943 328 943 233 c 0
 943 138 865 60 770 60 c 0
 675 60 597 135 597 233 c 0
90 1119 m 0
 90 1214 167 1293 263 1293 c 0
 359 1293 436 1214 436 1119 c 0
 436 1024 358 946 263 946 c 0
 168 946 90 1021 90 1119 c 0
EndSplineSet
EndChar

StartChar: uni066B
Encoding: 1643 1643 70
GlifName: uni066B_
Width: 772
VWidth: 2950
GlyphClass: 2
Flags: HW
LayerCount: 2
Fore
SplineSet
549.651367188 789.810546875 m 1
 676.651367188 735.810546875 l 1
 713.705078125 720.055664062 l 1
 697.70703125 683.106445312 l 1
 235.70703125 -383.893554688 l 1
 219.842773438 -420.532226562 l 1
 183.174804688 -404.736328125 l 1
 53.1748046875 -348.736328125 l 1
 16.2568359375 -332.833007812 l 1
 32.341796875 -295.994140625 l 1
 497.341796875 769.005859375 l 1
 513.194335938 805.3125 l 1
 549.651367188 789.810546875 l 1
EndSplineSet
PairPos2: "'kern' Horizontal Kerning lookup 15-4" uni06F2 dx=-130 dy=0 dh=-130 dv=0 dx=0 dy=0 dh=0 dv=0
PairPos2: "'kern' Horizontal Kerning lookup 15-4" uni06F3 dx=-130 dy=0 dh=-130 dv=0 dx=0 dy=0 dh=0 dv=0
PairPos2: "'kern' Horizontal Kerning lookup 15-4" uni06F4 dx=-110 dy=0 dh=-110 dv=0 dx=0 dy=0 dh=0 dv=0
EndChar

StartChar: uni066C
Encoding: 1644 1644 71
GlifName: uni066C_
Width: 560
GlyphClass: 2
Flags: HW
LayerCount: 2
Fore
SplineSet
153.83923225 -331.878790782 m 1
 58.8392322496 -259.878790782 l 1
 27.7823641149 -236.34095388 l 1
 50.5011230928 -204.67998714 l 2
 109.377942623 -122.628981332 144.45252224 -28.8581223025 147 52.589489279 c 2
 147 219 l 1
 147 259 l 1
 187 259 l 1
 358 259 l 1
 398 259 l 1
 398 219 l 1
 398 74 l 2
 398 -93.3026811426 300.507182337 -251.92004103 203.239399703 -331.031801472 c 2
 178.871862629 -350.850889596 l 1
 153.83923225 -331.878790782 l 1
EndSplineSet
EndChar

StartChar: uni066D
Encoding: 1645 1645 72
GlifName: afii63167
Width: 1436
VWidth: 2948
GlyphClass: 2
Flags: HW
LayerCount: 2
Fore
SplineSet
151 1079 m 1
 554.036131895 1079 l 1
 679.997555041 1462.48255491 l 1
 718 1578.17888734 l 1
 756.002444959 1462.48255491 l 1
 881.963868105 1079 l 1
 1285 1079 l 1
 1407.1600695 1079 l 1
 1308.65855285 1006.7467385 l 1
 983.022304153 767.884619118 l 1
 1108.02086631 385.426331917 l 1
 1146.16636886 268.712480825 l 1
 1046.59383791 340.563113955 l 1
 718 577.673440175 l 1
 389.406162089 340.563113955 l 1
 289.833631136 268.712480825 l 1
 327.979133688 385.426331917 l 1
 452.977695847 767.884619118 l 1
 127.341447154 1006.7467385 l 1
 28.839930503 1079 l 1
 151 1079 l 1
EndSplineSet
EndChar

StartChar: uni066E
Encoding: 1646 1646 73
GlifName: uni066E_
Width: 1777
VWidth: 2950
GlyphClass: 2
Flags: HW
AnchorPoint: "Anchor-10" 973.36 1453.35 basechar 0
AnchorPoint: "Anchor-7" 923.36 -219.261 basechar 0
LayerCount: 2
Fore
SplineSet
975 0 m 6
 840 0 l 2
 356 0 58 169 58 524 c 0
 58 619 79 711 115 794 c 2
 130 829 l 1
 166 815 l 1
 319 758 l 1
 357 744 l 1
 342 707 l 2
 323 655 313 602 313 549 c 0
 314 364 465 260 830 260 c 2
 968 260 l 2
 1255 260 1466 265 1466 488 c 0
 1466 542 1454 626 1431 727 c 2
 1422 765 l 1
 1460 775 l 1
 1620 815 l 1
 1656 824 l 1
 1668 789 l 2
 1702 686 1719 588 1719 503 c 0
 1719 64 1384 0 975 0 c 6
EndSplineSet
Substitution2: "'fina' Terminal Forms in Arabic lookup 9 subtable" uni066E.fina
EndChar

StartChar: uni066F
Encoding: 1647 1647 74
GlifName: uni066F_
Width: 1437
VWidth: 2950
GlyphClass: 2
Flags: HW
AnchorPoint: "Anchor-10" 115.809 1400.22 basechar 0
AnchorPoint: "Anchor-7" 329.219 -723.353 basechar 0
LayerCount: 2
Fore
SplineSet
1118.60644531 345.524414062 m 1
 1097.78125 478.990234375 1049.27050781 584 971 584 c 0
 917.630859375 584 851 517.965820312 851 416 c 0
 851 361.135742188 879.819335938 329 987 329 c 0
 1030.34375 329 1076.12988281 335.2890625 1118.60644531 345.524414062 c 1
380.416992188 507.858398438 m 2
 333.69921875 384.250976562 310 270.14453125 310 161 c 0
 310 -88.0458984375 434.584960938 -207 725 -207 c 0
 1021.99609375 -207 1119.109375 -98.40234375 1137.23632812 96.7646484375 c 1
 1083.77246094 85.0751953125 1030.97851562 79 971 79 c 0
 746.405273438 79 611 185.653320312 611 389 c 0
 611 603.151367188 739.97265625 839 978 839 c 0
 1287.48632812 839 1379 497.537109375 1379 196 c 0
 1379 -236.875 1169.71972656 -460 721 -460 c 0
 285.5625 -460 58 -249.021484375 58 156 c 0
 58 301.758789062 89.298828125 450.05859375 151.001953125 600.204101562 c 2
 166.1484375 637.059570312 l 1
 203.061523438 622.055664062 l 1
 358.061523438 559.055664062 l 1
 394.213867188 544.362304688 l 1
 380.416992188 507.858398438 l 2
EndSplineSet
Substitution2: "'fina' Terminal Forms in Arabic lookup 9 subtable" uni066F.fina
EndChar

StartChar: uni0670
Encoding: 1648 1648 75
GlifName: uni0670
Width: -29
VWidth: 2574
GlyphClass: 4
Flags: HW
AnchorPoint: "Anchor-10" 636.984 1500.61 mark 0
AnchorPoint: "Anchor-9" 636.984 1500.61 mark 0
AnchorPoint: "Anchor-1" 636.984 1957.18 basemark 0
AnchorPoint: "Anchor-1" 636.984 1500.61 mark 0
LayerCount: 2
Fore
SplineSet
583 1568 m 5
 583 1930 l 5
 583 1940 l 5
 593 1940 l 5
 681 1940 l 5
 691 1940 l 5
 691 1930 l 5
 691 1568 l 5
 691 1558 l 5
 681 1558 l 5
 593 1558 l 5
 583 1558 l 5
 583 1568 l 5
EndSplineSet
EndChar

StartChar: uni0674
Encoding: 1652 1652 76
GlifName: uni0674
Width: 551
VWidth: 2539
GlyphClass: 2
Flags: HW
LayerCount: 2
Fore
SplineSet
164.812134069 1974.81670084 m 1
 123.146650992 2014.91475013 106 2064.13137366 106 2133 c 0
 106 2266.94935017 206.8541796 2351 337 2351 c 0
 387.270353965 2351 435.168755289 2335.59512765 478.309611908 2308.7159008 c 2
 482.979222455 2305.80646573 l 1
 483.021193397 2300.30480111 l 1
 483.930373084 2181.12706674 l 1
 484.066349428 2163.30291955 l 1
 468.783830937 2172.47697761 l 2
 428.637281186 2196.57685217 390.518500334 2208 351 2208 c 0
 282.831613351 2208 241 2183.28000797 241 2120.06253124 c 0
 241.954472021 2081.89915625 262.341443189 2053.09350193 322.660463124 2030.71686043 c 0
 328.970420774 2028.61321838 334.361266972 2027.1953125 338.90234375 2027.1953125 c 0
 341.480321442 2027.1953125 340.243230486 2027.03579181 345.351718766 2028.15796749 c 0
 389.183666235 2036.56471042 434.715630664 2046.18232965 478.064614884 2054.73371126 c 2
 490 2057.08818472 l 1
 490 2044.92278447 l 1
 490 1928.93916352 l 1
 490 1921.06122011 l 1
 482.340956508 1919.21702782 l 1
 85.3409565083 1823.62489023 l 1
 73 1820.6533577 l 1
 73 1833.34702593 l 1
 73 1946.00679526 l 1
 73 1953.99267371 l 1
 80.7880683723 1955.75909542 l 1
 164.812134069 1974.81670084 l 1
EndSplineSet
EndChar

StartChar: uni06A1
Encoding: 1697 1697 80
GlifName: uni06A_1
Width: 1781
VWidth: 2950
GlyphClass: 2
Flags: HW
AnchorPoint: "Anchor-10" 637.853 1668.62 basechar 0
AnchorPoint: "Anchor-7" 620.182 -314.248 basechar 0
LayerCount: 2
Fore
SplineSet
1482.95507812 376.723632812 m 5
 1431.91308594 365.981445312 1382.18261719 361 1328 361 c 4
 1097.41699219 361 962 468.063476562 962 678 c 4
 962 898.1953125 1095.19335938 1121 1328 1121 c 4
 1619.73144531 1121 1723 795.38671875 1723 500.895507812 c 4
 1720.87597656 95.2392578125 1531.87207031 0 1127 0 c 6
 837 0 l 2
 344.237304688 0 58 169.952148438 58 524 c 0
 58 619.020507812 79.3525390625 710.384765625 115.2578125 793.8125 c 2
 130.302734375 828.768554688 l 1
 165.96484375 815.483398438 l 1
 318.96484375 758.483398438 l 1
 356.528320312 744.489257812 l 1
 342.453125 706.955078125 l 2
 323.02734375 655.15234375 313 601.930664062 313 549 c 0
 313 364.950195312 476.177734375 260 833 260 c 2
 1148 260 l 6
 1368.57910156 260 1460.80371094 291.987304688 1482.95507812 376.723632812 c 5
1469.29199219 627.5390625 m 5
 1447.78222656 758.817382812 1399.12597656 865 1322 865 c 4
 1268.26464844 865 1202 800.86328125 1202 697 c 4
 1202 642.485351562 1230.26269531 611 1339 611 c 4
 1381.52246094 611 1426.06835938 617.185546875 1469.29199219 627.5390625 c 5
EndSplineSet
Substitution2: "'init' Initial Forms in Arabic lookup 13 subtable" uni06A1.init
Substitution2: "'medi' Medial Forms in Arabic lookup 11 subtable" uni06A1.medi
Substitution2: "'fina' Terminal Forms in Arabic lookup 9 subtable" uni06A1.fina
EndChar

StartChar: uni06A9
Encoding: 1705 1705 81
GlifName: uni06A_9
Width: 1865
VWidth: 2950
GlyphClass: 2
Flags: HW
AnchorPoint: "Anchor-10" 1193.88 1384.67 basechar 0
AnchorPoint: "Anchor-7" 900.268 -186.468 basechar 0
LayerCount: 2
Fore
SplineSet
1208.28320312 1034.05664062 m 1
 1358.64941406 905.40625 1471.84570312 801.39453125 1543.94628906 723.748046875 c 0
 1633.23632812 626.15234375 1682.06542969 515.2734375 1682.06542969 395.299804688 c 0
 1682.06542969 120.6796875 1439.3671875 0 1031 0 c 2
 840 0 l 2
 355.890625 0 58 168.836914062 58 524 c 0
 58 619.047851562 78.884765625 710.963867188 115.413085938 794.491210938 c 2
 130.615234375 829.25390625 l 1
 166.1328125 815.907226562 l 1
 319.478515625 758.28125 l 1
 356.9765625 744.189453125 l 1
 342.830078125 706.711914062 l 2
 323.098632812 654.439453125 313 601.44140625 313 549.08203125 c 0
 313.84765625 364.219726562 464.6640625 260 830 260 c 2
 1030 260 l 2
 1324.32617188 260 1426.00488281 326.403320312 1426.00488281 411.697265625 c 0
 1426.00488281 464.133789062 1400.13476562 518.928710938 1335.01855469 580.26953125 c 0
 1233.92382812 674.426757812 1142.30175781 753.08203125 1063.58789062 815.067382812 c 0
 983.038085938 877.600585938 935 949.989257812 935 1032 c 0
 935 1135.07324219 995 1211 1100.18164062 1250.21972656 c 2
 1804.75 1512.10644531 l 1
 1804.75 1255.77539062 l 1
 1208.28320312 1034.05664062 l 1
EndSplineSet
Substitution2: "'init' Initial Forms in Arabic lookup 13 subtable" uniFB90
Substitution2: "'medi' Medial Forms in Arabic lookup 11 subtable" uniFB91
Substitution2: "'fina' Terminal Forms in Arabic lookup 9 subtable" uniFB8F
EndChar

StartChar: uni06BA
Encoding: 1722 1722 83
GlifName: afii57514
Width: 1447
VWidth: 2950
GlyphClass: 2
Flags: HW
LayerCount: 2
Fore
SplineSet
1074 617 m 1
 1243 675 l 1
 1279 687 l 1
 1293 652 l 2
 1357 490 1389 333 1389 180 c 0
 1389 -229 1124 -450 721 -450 c 0
 289 -450 58 -238 58 166 c 0
 58 312 89 460 151 610 c 2
 166 647 l 1
 203 632 l 1
 358 569 l 1
 394 554 l 1
 380 518 l 2
 333 394 310 280 310 171 c 0
 310 -78 438 -197 728 -197 c 0
 1006 -197 1136 -68 1137 210 c 0
 1137 326 1108 443 1051 562 c 2
 1031 602 l 1
 1074 617 l 1
EndSplineSet
Substitution2: "'fina' Terminal Forms in Arabic lookup 9 subtable" uniFB9F
EndChar

StartChar: uni06F4
Encoding: 1780 1780 90
GlifName: uni06F_4
Width: 1193
VWidth: 2950
GlyphClass: 2
Flags: HW
LayerCount: 2
Fore
SplineSet
1092.12402344 636.393554688 m 2
 1004.95214844 597.997070312 918.58984375 574 820 574 c 0
 680.846679688 574 570.037109375 606.962890625 484.62890625 659.2890625 c 1
 502.768554688 494.088867188 512 353.74609375 512 225 c 2
 512 40 l 1
 512 0 l 1
 472 0 l 1
 302 0 l 1
 262 0 l 1
 262 40 l 1
 262 228 l 2
 262 650.224609375 199.370117188 975.965820312 77.083984375 1225.39160156 c 2
 57.400390625 1265.54003906 l 1
 99.4853515625 1280.64746094 l 1
 255.485351562 1336.64746094 l 1
 293.451171875 1350.27636719 l 1
 306.759765625 1312.19726562 l 1
 378.759765625 1106.19726562 l 2
 392.0703125 1068.11621094 403.596679688 1037.15234375 412.401367188 1015.01367188 c 1
 455.5078125 1183.24707031 584.453125 1347 796 1347 c 0
 952.827148438 1347 1045.31445312 1278.01464844 1060 1267 c 2
 1083.72753906 1249.20410156 l 1
 1073.59179688 1221.33007812 l 1
 1017.59179688 1067.33007812 l 1
 1002.25390625 1025.15136719 l 1
 942.603095812 1054.97677241 917.892843937 1086.40722656 807.034179688 1086.40722656 c 4
 703.318359375 1086.40722656 638.84765625 1001.08398438 628.67578125 897.10546875 c 0
 626.323242188 873.053710938 628.123046875 861.3359375 628.729492188 859.5234375 c 0
 630.4609375 858.172851562 640.353515625 853.348632812 659.100585938 846.850585938 c 0
 694.143554688 834.703125 739.274414062 827 799 827 c 0
 883.603515625 827 960.10546875 849.923828125 1038.14453125 881.138671875 c 2
 1085.80078125 900.202148438 l 1
 1092.64257812 849.33203125 l 1
 1115.64257812 678.33203125 l 1
 1119.65332031 648.51953125 l 1
 1092.12402344 636.393554688 l 2
EndSplineSet
PairPos2: "'kern' Horizontal Kerning lookup 15-4" uni06F0 dx=-64 dy=0 dh=-64 dv=0 dx=0 dy=0 dh=0 dv=0
PairPos2: "'kern' Horizontal Kerning lookup 15-4" uni06F5 dx=-40 dy=0 dh=-40 dv=0 dx=0 dy=0 dh=0 dv=0
PairPos2: "'kern' Horizontal Kerning lookup 15-4" uni06F8 dx=-64 dy=0 dh=-64 dv=0 dx=0 dy=0 dh=0 dv=0
PairPos2: "'kern' Horizontal Kerning lookup 15-4" uni06F1 dx=-64 dy=0 dh=-64 dv=0 dx=0 dy=0 dh=0 dv=0
PairPos2: "'kern' Horizontal Kerning lookup 15-4" uni06F9 dx=-64 dy=0 dh=-64 dv=0 dx=0 dy=0 dh=0 dv=0
EndChar

StartChar: uni06F5
Encoding: 1781 1781 91
GlifName: uni06F_5
Width: 1246
VWidth: 2950
GlyphClass: 2
Flags: HW
LayerCount: 2
Fore
SplineSet
396 250 m 0
 455.016601562 250 491.275189435 271.633595806 521.680664062 434.34765625 c 6
 527.782226562 467 l 5
 561 467 l 5
 685 467 l 5
 718.884765625 467 l 5
 724.456054688 433.576171875 l 6
 751.125598155 273.577610137 792.857421875 250 854 250 c 0
 895.028320312 250 926 276.567382812 926 364 c 0
 926 546.916015625 839.865234375 687.1875 620.40234375 927.796875 c 1
 412.56640625 646.370117188 320 513.278320312 320 364 c 0
 320 282.80078125 360.384765625 250 396 250 c 0
562.217773438 1342.31152344 m 2
 985.701171875 949.078125 1170 687.412109375 1170 365 c 0
 1170 125.868164062 1051.75878906 0 854 0 c 0
 758.604492188 0 675.5859375 50.6923828125 624.852539062 125.984375 c 1
 577.99609375 49.6806640625 498.791015625 0 397 0 c 0
 205.145507812 0 76 131.422851562 76 365 c 0
 76 633.629882812 244.99609375 838.78125 438.340820312 1105.68945312 c 1
 401.950195312 1141.48339844 l 1
 377.264648438 1165.76367188 l 1
 397.7578125 1193.67382812 l 1
 502.7578125 1336.67382812 l 1
 529.325195312 1372.85546875 l 1
 562.217773438 1342.31152344 l 2
EndSplineSet
PairPos2: "'kern' Horizontal Kerning lookup 15-4" uni06F2 dx=-100 dy=0 dh=-100 dv=0 dx=0 dy=0 dh=0 dv=0
PairPos2: "'kern' Horizontal Kerning lookup 15-4" uni06F3 dx=-100 dy=0 dh=-100 dv=0 dx=0 dy=0 dh=0 dv=0
PairPos2: "'kern' Horizontal Kerning lookup 15-4" uni06F4 dx=-42 dy=0 dh=-42 dv=0 dx=0 dy=0 dh=0 dv=0
PairPos2: "'kern' Horizontal Kerning lookup 15-4" uni06F6 dx=-42 dy=0 dh=-42 dv=0 dx=0 dy=0 dh=0 dv=0
PairPos2: "'kern' Horizontal Kerning lookup 15-4" uni06F7 dx=-100 dy=0 dh=-100 dv=0 dx=0 dy=0 dh=0 dv=0
PairPos2: "'kern' Horizontal Kerning lookup 15-4" uni06F8 dx=-38 dy=0 dh=-38 dv=0 dx=0 dy=0 dh=0 dv=0
EndChar

StartChar: uni06F6
Encoding: 1782 1782 92
GlifName: uni06F_6
Width: 1009
VWidth: 2950
GlyphClass: 2
Flags: HW
LayerCount: 2
Fore
SplineSet
885.09765625 908.048828125 m 5
 898.416015625 862.145507812 l 1
 945.416015625 700.145507812 l 1
 955.059570312 666.907226562 l 1
 669.208984375 542.8203125 535.664603489 346.242880766 305.245117188 -51.375 c 1
 267.624023438 -34.494140625 l 1
 111.624023438 35.505859375 l 1
 76.4619140625 51.283203125 l 1
 201.971676805 287.248499313 275.59765625 400.517578125 404.630859375 550.659179688 c 5
 203.119140625 602.834960938 93 736.140625 93 889 c 4
 93 1111.02050781 259.211914062 1340 528 1340 c 4
 595.547851562 1340 684.801757812 1330.80957031 781.01171875 1267.39746094 c 6
 808.193359375 1249.48242188 l 5
 796.172851562 1219.22851562 l 5
 736.172851562 1068.22851562 l 5
 719.997070312 1027.51953125 l 5
 680.920898438 1047.31835938 l 6
 611.6640625 1082.40820312 573.951171875 1083 535 1083 c 4
 436.921875 1083 347 978.904296875 347 896 c 4
 347 856.025390625 392.04296875 780.004882812 616.575195312 758.819335938 c 5
 703.61328125 813.630859375 747 840 842.258789062 886.850585938 c 6
 885.09765625 908.048828125 l 5
EndSplineSet
PairPos2: "'kern' Horizontal Kerning lookup 15-4" uni06F7 dx=-40 dy=0 dh=-40 dv=0 dx=0 dy=0 dh=0 dv=0
PairPos2: "'kern' Horizontal Kerning lookup 15-4" uni06F8 dx=-40 dy=0 dh=-40 dv=0 dx=0 dy=0 dh=0 dv=0
PairPos2: "'kern' Horizontal Kerning lookup 15-4" uni06F9 dx=-30 dy=0 dh=-30 dv=0 dx=0 dy=0 dh=0 dv=0
EndChar

StartChar: uniFB8F
Encoding: 64399 64399 107
GlifName: uniF_B_8F_
Width: 1941
VWidth: 2950
GlyphClass: 2
Flags: HW
AnchorPoint: "Anchor-10" 1193.88 1384.67 basechar 0
AnchorPoint: "Anchor-7" 900.268 -186.468 basechar 0
LayerCount: 2
Fore
SplineSet
1208.28320312 1034.05664062 m 5
 1355.23144531 907.319335938 1470.11914062 804.903320312 1544.36035156 724.166015625 c 4
 1603.10742188 661.067382812 1646.44726562 580.862304688 1680.68359375 485.415039062 c 4
 1736.66992188 326.946289062 1820.19238281 260 1933 260 c 6
 1959 260 l 5
 1959 220 l 5
 1959 40 l 5
 1959 0 l 5
 1933 0 l 6
 1791.99609375 0 1675.29882812 55.298828125 1584.54003906 155.653320312 c 5
 1481.33203125 46.4423828125 1297.58691406 0 1030 0 c 6
 838 0 l 2
 354.462890625 0 58 169.377929688 58 524 c 0
 58 619.020507812 79.3525390625 710.384765625 115.2578125 793.8125 c 2
 130.302734375 828.768554688 l 1
 165.96484375 815.483398438 l 1
 318.96484375 758.483398438 l 1
 356.528320312 744.489257812 l 1
 342.453125 706.955078125 l 2
 323.043945312 655.196289062 313 601.823242188 313 549.090820312 c 0
 313.841796875 363.84375 463.890625 260 828 260 c 2
 1030 260 l 6
 1324.38867188 260 1426 326.796875 1426 413 c 4
 1426 463.506835938 1398.43261719 518.784179688 1333.63476562 579.825195312 c 4
 1228.28417969 678.21875 1137.83398438 757.674804688 1063.47070312 815.403320312 c 4
 982.470703125 878.28515625 935 950.200195312 935 1032 c 4
 935 1135.01464844 995 1211 1100.18164062 1250.21972656 c 6
 1804.75 1512.10644531 l 5
 1804.75 1255.77539062 l 5
 1208.28320312 1034.05664062 l 5
EndSplineSet
EndChar

StartChar: uniFB9F
Encoding: 64415 64415 115
GlifName: uniF_B_9F_
Width: 1513
VWidth: 2950
GlyphClass: 2
Flags: HW
AnchorPoint: "Anchor-10" 687.458 1404.61 basechar 0
AnchorPoint: "Anchor-7" 579.902 -762.086 basechar 0
LayerCount: 2
Fore
SplineSet
1137 140.067382812 m 0
 1137 255.817382812 1107.30566406 373.15625 1050.69238281 491.59765625 c 2
 1031.39160156 531.974609375 l 1
 1073.67480469 546.639648438 l 1
 1242.61328125 605.23046875 l 1
 1281.32226562 618.655273438 l 1
 1293.81445312 579.634765625 l 1
 1366.16699219 353.662109375 l 2
 1388.31835938 285.502929688 1413.90234375 260 1503 260 c 2
 1531 260 l 1
 1531 220 l 1
 1531 40 l 1
 1531 0 l 1
 1507 0 l 2
 1452.78320312 0 1411.50683594 8.251953125 1377.91503906 24.388671875 c 1
 1342.54785156 -330.1953125 1088.18457031 -520 721 -520 c 0
 288.412109375 -520 57.99609375 -309.053710938 57.99609375 96.2255859375 c 0
 57.99609375 242.159179688 89.4892578125 390.770507812 151.087890625 540.60546875 c 2
 166.267578125 577.528320312 l 1
 203.220703125 562.421875 l 1
 358.564453125 498.916015625 l 1
 394.758789062 484.119140625 l 1
 380.787109375 447.598632812 l 2
 333.658203125 324.404296875 310 209.993164062 310 101 c 0
 310 -148.662109375 438.451171875 -267 728 -267 c 0
 1006.20703125 -267 1136.05957031 -138.954101562 1137 140.067382812 c 0
EndSplineSet
EndChar

StartChar: uniFBE8
Encoding: 64488 64488 118
GlifName: uniF_B_E_8
Width: 672
VWidth: 2950
GlyphClass: 2
Flags: HW
AnchorPoint: "Anchor-10" 311.384 1391 basechar 0
AnchorPoint: "Anchor-7" 303.422 -185.625 basechar 0
LayerCount: 2
Fore
SplineSet
564 792 m 2
 596 684 614 562 614 460 c 4
 614 146 450 0 129 0 c 2
 -19 0 l 1
 -19 40 l 1
 -19 220 l 1
 -19 260 l 1
 129 260 l 2
 314 260 363 284 363 457 c 4
 363 530 349 640 327 732 c 2
 318 770 l 1
 356 780 l 1
 516 820 l 1
 553 829 l 1
 564 792 l 2
EndSplineSet
EndChar

StartChar: uniFBE9
Encoding: 64489 64489 119
GlifName: uniF_B_E_9
Width: 767
VWidth: 2950
GlyphClass: 2
Flags: HW
AnchorPoint: "Anchor-10" 315.665 1335.09 basechar 0
AnchorPoint: "Anchor-7" 380.537 -139.742 basechar 0
LayerCount: 2
Fore
SplineSet
763 0 m 2
 638.0625 0 548.092773438 39.3857421875 488.336914062 116.690429688 c 1
 404.633789062 36.064453125 279.036132812 0 129 0 c 2
 -19 0 l 1
 -19 40 l 1
 -19 220 l 1
 -19 260 l 1
 131 260 l 2
 321.25390625 260 362.157226562 292.228515625 363 427.125 c 0
 363 490.557617188 359.25390625 563.8515625 355.088867188 626.338867188 c 2
 352.5546875 664.349609375 l 1
 390.396484375 668.734375 l 1
 554.396484375 687.734375 l 1
 596.196289062 692.577148438 l 1
 598.916015625 650.5859375 l 1
 614.915039062 403.612304688 l 2
 621.78125 299.749023438 662.686523438 260 765 260 c 2
 786 260 l 5
 786 220 l 5
 786 40 l 5
 786 0 l 5
 763 0 l 2
EndSplineSet
EndChar

StartChar: uniFE73
Encoding: 65139 65139 127
GlifName: uniF_E_73
Width: 672
VWidth: 2950
GlyphClass: 2
Flags: HW
AnchorPoint: "Anchor-10" 342.943 1050.47 basechar 0
AnchorPoint: "Anchor-7" 416.943 -168.304 basechar 0
LayerCount: 2
Fore
SplineSet
338.336914062 464.018554688 m 2
 338.336914062 328.834960938 416.096679688 260.342773438 618.00390625 260.342773438 c 2
 684.674804688 260.342773438 l 1
 686.674804688 260.342773438 l 1
 696.674804688 260.342773438 l 5
 696.674804688 220.342773438 l 5
 696.674804688 218.342773438 l 5
 696.674804688 43.5537109375 l 5
 696.674804688 41.5537109375 l 5
 696.674804688 1.5537109375 l 5
 686.674804688 1.5537109375 l 1
 684.674804688 1.5537109375 l 1
 607.991210938 1.5537109375 l 2
 262.389648438 1.86328125 71.544921875 159.768554688 71.544921875 466.563476562 c 2
 71.544921875 486.69140625 l 1
 71.544921875 488.69140625 l 1
 71.544921875 528.69140625 l 1
 111.544921875 528.69140625 l 1
 113.544921875 528.69140625 l 1
 296.336914062 528.69140625 l 1
 298.336914062 528.69140625 l 1
 338.336914062 528.69140625 l 1
 338.336914062 488.69140625 l 1
 338.336914062 486.69140625 l 1
 338.336914062 464.018554688 l 2
EndSplineSet
EndChar

StartChar: uniFE8E
Encoding: 65166 65166 153
GlifName: uniF_E_8E_
Width: 527
VWidth: 2950
GlyphClass: 2
Flags: HW
AnchorPoint: "Anchor-10" 230.697 1521.11 basechar 0
AnchorPoint: "Anchor-7" 292.078 -201.903 basechar 0
LayerCount: 2
Fore
SplineSet
522 0 m 2
 258.678710938 0 108 139 108 445 c 2
 108 1346 l 1
 108 1386 l 1
 148 1386 l 1
 317 1386 l 1
 357 1386 l 1
 357 1346 l 1
 357 444 l 2
 357 293 407.83984375 260 522 260 c 2
 546 260 l 5
 546 220 l 5
 546 40 l 5
 546 0 l 5
 522 0 l 2
EndSplineSet
EndChar

StartChar: uniFEA2
Encoding: 65186 65186 173
GlifName: uniF_E_A_2
Width: 1378
VWidth: 2950
GlyphClass: 2
Flags: HW
AnchorPoint: "Anchor-7" 690.833 -790.619 basechar 0
AnchorPoint: "Anchor-10" 601.478 1216.07 basechar 0
LayerCount: 2
Fore
SplineSet
784 -677 m 0
 370.944335938 -677 59 -501.993164062 59 -111 c 0
 59 206.407226562 293.052734375 472.194335938 709.40234375 598.16015625 c 1
 585.869140625 647.580078125 506.017578125 676 477 676 c 0
 418.35546875 676 351.596679688 634.939453125 307.715820312 577.625976562 c 2
 280.670898438 542.567382812 l 1
 260.615234375 516.568359375 l 1
 231.206054688 531.17578125 l 1
 80.2060546875 606.17578125 l 1
 42.078125 625.11328125 l 1
 63.3525390625 661.989257812 l 1
 78.6201171875 688.452148438 l 1
 168.51171875 835.061523438 310.080078125 934 478 934 c 0
 574.026367188 934 679.11328125 891.638671875 798.469726562 833.983398438 c 0
 1004.41210938 733.5 1124.06152344 693.477539062 1230.08398438 687.9453125 c 2
 1270.75292969 685.82421875 l 1
 1267.90234375 645.200195312 l 2
 1263.8671875 587.69921875 1258.8671875 531.69921875 1254.90234375 475.200195312 c 2
 1252.46972656 440.540039062 l 1
 1217.80957031 438.098632812 l 2
 1161.92285156 434.163085938 1109.83203125 428.180664062 1061.37890625 422.025390625 c 1
 1071.94628906 289.419921875 1127.21289062 260 1300 260 c 2
 1397 260 l 5
 1397 220 l 5
 1397 40 l 5
 1397 0 l 5
 1303 0 l 2
 1014.60839844 0 849.811523438 97.87890625 831.72265625 374.018554688 c 1
 468.95703125 261.208984375 305 77.2646484375 305 -95 c 0
 305 -313.041992188 451.592773438 -426 798 -426 c 0
 955.787109375 -426 1085.06347656 -384.377929688 1220 -324 c 1
 1230.23730469 -373.719726562 l 1
 1265.23730469 -543.719726562 l 1
 1271.55078125 -574.38671875 l 1
 1123.92480469 -640.895507812 981.938476562 -677 784 -677 c 0
EndSplineSet
EndChar

StartChar: uniFEA3
Encoding: 65187 65187 174
GlifName: uniF_E_A_3
Width: 1334
VWidth: 2950
GlyphClass: 2
Flags: HW
AnchorPoint: "Anchor-10" 591.825 1170.07 basechar 0
AnchorPoint: "Anchor-7" 553.524 -196.745 basechar 0
LayerCount: 2
Fore
SplineSet
-19 40 m 1
 -19 220 l 1
 -19 260 l 1
 163 260 l 2
 253.34765625 260 367.1328125 273.208007812 441.298828125 297.9296875 c 0
 546.298828125 333.248046875 665.662109375 395.548828125 851.521484375 491.4765625 c 2
 853.311523438 492.416992188 l 1
 827.602539062 503.373046875 795.158203125 516.981445312 748.000976562 535.918945312 c 0
 612.895507812 590.961914062 526.169921875 622 495 622 c 0
 436.35546875 622 369.596679688 580.939453125 325.715820312 523.625976562 c 2
 298.670898438 488.567382812 l 1
 278.615234375 462.568359375 l 1
 249.206054688 477.17578125 l 1
 98.2060546875 552.17578125 l 1
 60.078125 571.11328125 l 1
 81.3525390625 607.989257812 l 1
 96.6201171875 634.452148438 l 1
 186.51171875 781.061523438 328.080078125 880 496 880 c 0
 592.026367188 880 697.11328125 837.638671875 816.469726562 779.983398438 c 0
 1022.41210938 679.5 1142.06152344 639.477539062 1248.08398438 633.9453125 c 2
 1286.44921875 631.944335938 l 1
 1285.99707031 593.529296875 l 1
 1283.99707031 423.529296875 l 1
 1283.58105469 388.151367188 l 1
 1248.41699219 384.245117188 l 2
 1178.33496094 376.458007812 1083.51757812 336.543945312 879.6875 228.633789062 c 0
 733.538085938 151.5546875 622.317382812 93.69140625 513.25390625 55.259765625 c 0
 406.931640625 18.046875 269.134765625 0 151 0 c 2
 -19 0 l 1
 -19 40 l 1
EndSplineSet
EndChar

StartChar: uniFEA4
Encoding: 65188 65188 175
GlifName: uniF_E_A_4
Width: 1351
VWidth: 2950
GlyphClass: 2
Flags: HW
AnchorPoint: "Anchor-7" 553.524 -196.745 basechar 0
AnchorPoint: "Anchor-10" 591.825 1170.07 basechar 0
LayerCount: 2
Fore
SplineSet
1248.41699219 384.245117188 m 6
 1204.12402344 379.323242188 1151.51757812 367.737304688 1085.83789062 339.130859375 c 5
 1098.93945312 293.985351562 1156.08496094 260 1317 260 c 6
 1370 260 l 5
 1370 220 l 5
 1370 40 l 5
 1370 0 l 5
 1313 0 l 6
 1087.05371094 0 931.254882812 64.0712890625 884.201171875 232.387695312 c 5
 755.536132812 164.095703125 618.529296875 92.525390625 513.28125 55.26953125 c 4
 406.899414062 18.03515625 269.150390625 0 151 0 c 6
 -19 0 l 5
 -19 40 l 5
 -19 220 l 5
 -19 260 l 5
 163 260 l 6
 253.34765625 260 367.1328125 273.208007812 441.298828125 297.9296875 c 4
 546.298828125 333.248046875 665.662109375 395.548828125 851.521484375 491.4765625 c 6
 853.311523438 492.416992188 l 5
 827.602539062 503.373046875 795.158203125 516.981445312 748.000976562 535.918945312 c 4
 612.895507812 590.961914062 526.169921875 622 495 622 c 4
 436.35546875 622 369.596679688 580.939453125 325.715820312 523.625976562 c 6
 298.670898438 488.567382812 l 5
 278.615234375 462.568359375 l 5
 249.206054688 477.17578125 l 5
 98.2060546875 552.17578125 l 5
 60.078125 571.11328125 l 5
 81.3525390625 607.989257812 l 5
 96.6201171875 634.452148438 l 5
 186.51171875 781.061523438 328.080078125 880 496 880 c 4
 592.026367188 880 697.11328125 837.638671875 816.469726562 779.983398438 c 4
 1022.41210938 679.5 1142.06152344 639.477539062 1248.08398438 633.9453125 c 6
 1286.44921875 631.944335938 l 5
 1285.99707031 593.529296875 l 5
 1283.99707031 423.529296875 l 5
 1283.58105469 388.151367188 l 5
 1248.41699219 384.245117188 l 6
EndSplineSet
EndChar

StartChar: uniFEAA
Encoding: 65194 65194 181
GlifName: uniF_E_A_A_
Width: 1045
VWidth: 2950
GlyphClass: 2
Flags: HW
AnchorPoint: "Anchor-10" 506.848 1173.53 basechar 0
AnchorPoint: "Anchor-7" 401.24 -201.316 basechar 0
LayerCount: 2
Fore
SplineSet
107.517578125 288.2890625 m 2
 184.717773438 269.376953125 244.311523438 261 307 261 c 0
 540.267578125 261 614.006835938 316.311523438 614.006835938 386.581054688 c 0
 614.006835938 402.502929688 587.096679688 487.974609375 526.041015625 631.104492188 c 2
 405.802734375 913.318359375 l 1
 390.5703125 949.0703125 l 1
 425.8671875 965.328125 l 1
 587.181640625 1039.62988281 l 1
 625.583007812 1057.31835938 l 1
 641.118164062 1017.99609375 l 1
 832.359375 533.916992188 l 2
 911.403320312 332.25390625 986.369140625 260 1033 260 c 2
 1064 260 l 1
 1064 220 l 1
 1064 40 l 1
 1064 0 l 1
 1033 -0 l 2
 922.12890625 -0 831.743164062 50.9013671875 765.69921875 138.864257812 c 1
 664.014648438 45.0341796875 517.748046875 1 322 1 c 0
 228.126953125 1 155.234375 10.6337890625 88.630859375 26.6796875 c 2
 58 34.0595703125 l 1
 58 65.5673828125 l 1
 58 249.4375 l 1
 58 300.418945312 l 1
 107.517578125 288.2890625 l 2
EndSplineSet
EndChar

StartChar: uniFEAE
Encoding: 65198 65198 185
GlifName: uniF_E_A_E_
Width: 860
VWidth: 2142
GlyphClass: 2
Flags: HW
AnchorPoint: "Anchor-7" 322.969 -599.998 basechar 0
AnchorPoint: "Anchor-10" 493.256 888.2 basechar 0
LayerCount: 2
Fore
SplineSet
475 170.1484375 m 0
 475 253.564453125 450.165039062 377.6015625 400.885742188 493.1484375 c 2
 384.284179688 532.07421875 l 1
 424.08203125 546.458984375 l 1
 586.130859375 605.03125 l 1
 625.186523438 619.1484375 l 1
 637.829101562 579.58984375 l 1
 699.1875 387.594726562 l 2
 729.590820312 292.702148438 768.494140625 260 841 260 c 2
 879 260 l 1
 879 220 l 1
 879 40 l 1
 879 0 l 1
 852 0 l 2
 789.459960938 0 743.739257812 6.7119140625 708.290039062 22.4052734375 c 1
 658.087890625 -268.8046875 430.530273438 -457.521484375 57.583984375 -527.041992188 c 2
 25.091796875 -533.099609375 l 1
 13.0185546875 -502.331054688 l 1
 -47.48828125 -348.135742188 l 1
 -65.1005859375 -303.25390625 l 1
 -17.7392578125 -294.231445312 l 2
 319.907226562 -229.904296875 473.162109375 -77.1015625 475 170.1484375 c 0
EndSplineSet
PairPos2: "'kern' Horizontal Kerning lookup 15-1" uniFEE7 dx=-178 dy=0 dh=-178 dv=0 dx=0 dy=0 dh=0 dv=0
PairPos2: "'kern' Horizontal Kerning lookup 15-2" uniFE8B dx=-178 dy=0 dh=-178 dv=0 dx=0 dy=0 dh=0 dv=0
PairPos2: "'kern' Horizontal Kerning lookup 15-2" uni0640 dx=-178 dy=0 dh=-178 dv=0 dx=0 dy=0 dh=0 dv=0
PairPos2: "'kern' Horizontal Kerning lookup 15-2" uni067E dx=-178 dy=0 dh=-178 dv=0 dx=0 dy=0 dh=0 dv=0
PairPos2: "'kern' Horizontal Kerning lookup 15-2" uni06AF dx=-226 dy=0 dh=-226 dv=0 dx=0 dy=0 dh=0 dv=0
PairPos2: "'kern' Horizontal Kerning lookup 15-2" uniFB92 dx=-226 dy=0 dh=-226 dv=0 dx=0 dy=0 dh=0 dv=0
PairPos2: "'kern' Horizontal Kerning lookup 15-2" uniFB94 dx=-226 dy=0 dh=-226 dv=0 dx=0 dy=0 dh=0 dv=0
PairPos2: "'kern' Horizontal Kerning lookup 15-2" uni0621 dx=-178 dy=0 dh=-178 dv=0 dx=0 dy=0 dh=0 dv=0
PairPos2: "'kern' Horizontal Kerning lookup 15-2" uni0622 dx=-143 dy=0 dh=-143 dv=0 dx=0 dy=0 dh=0 dv=0
PairPos2: "'kern' Horizontal Kerning lookup 15-2" uni0623 dx=-143 dy=0 dh=-143 dv=0 dx=0 dy=0 dh=0 dv=0
PairPos2: "'kern' Horizontal Kerning lookup 15-2" uni0627 dx=-143 dy=0 dh=-143 dv=0 dx=0 dy=0 dh=0 dv=0
PairPos2: "'kern' Horizontal Kerning lookup 15-2" uni0628 dx=-178 dy=0 dh=-178 dv=0 dx=0 dy=0 dh=0 dv=0
PairPos2: "'kern' Horizontal Kerning lookup 15-2" uni0629 dx=-178 dy=0 dh=-178 dv=0 dx=0 dy=0 dh=0 dv=0
PairPos2: "'kern' Horizontal Kerning lookup 15-2" uni062A dx=-178 dy=0 dh=-178 dv=0 dx=0 dy=0 dh=0 dv=0
PairPos2: "'kern' Horizontal Kerning lookup 15-2" uniFE97 dx=-178 dy=0 dh=-178 dv=0 dx=0 dy=0 dh=0 dv=0
PairPos2: "'kern' Horizontal Kerning lookup 15-2" uni062B dx=-178 dy=0 dh=-178 dv=0 dx=0 dy=0 dh=0 dv=0
PairPos2: "'kern' Horizontal Kerning lookup 15-2" uniFE9B dx=-178 dy=0 dh=-178 dv=0 dx=0 dy=0 dh=0 dv=0
PairPos2: "'kern' Horizontal Kerning lookup 15-2" uniFE9F dx=-178 dy=0 dh=-178 dv=0 dx=0 dy=0 dh=0 dv=0
PairPos2: "'kern' Horizontal Kerning lookup 15-2" uniFEA3 dx=-178 dy=0 dh=-178 dv=0 dx=0 dy=0 dh=0 dv=0
PairPos2: "'kern' Horizontal Kerning lookup 15-2" uniFEA7 dx=-178 dy=0 dh=-178 dv=0 dx=0 dy=0 dh=0 dv=0
PairPos2: "'kern' Horizontal Kerning lookup 15-2" uni062F dx=-178 dy=0 dh=-178 dv=0 dx=0 dy=0 dh=0 dv=0
PairPos2: "'kern' Horizontal Kerning lookup 15-2" uni0630 dx=-178 dy=0 dh=-178 dv=0 dx=0 dy=0 dh=0 dv=0
PairPos2: "'kern' Horizontal Kerning lookup 15-2" uni0633 dx=-178 dy=0 dh=-178 dv=0 dx=0 dy=0 dh=0 dv=0
PairPos2: "'kern' Horizontal Kerning lookup 15-2" uniFEB3 dx=-178 dy=0 dh=-178 dv=0 dx=0 dy=0 dh=0 dv=0
PairPos2: "'kern' Horizontal Kerning lookup 15-2" uni0634 dx=-178 dy=0 dh=-178 dv=0 dx=0 dy=0 dh=0 dv=0
PairPos2: "'kern' Horizontal Kerning lookup 15-2" uniFEB7 dx=-178 dy=0 dh=-178 dv=0 dx=0 dy=0 dh=0 dv=0
PairPos2: "'kern' Horizontal Kerning lookup 15-2" uni0635 dx=-178 dy=0 dh=-178 dv=0 dx=0 dy=0 dh=0 dv=0
PairPos2: "'kern' Horizontal Kerning lookup 15-2" uniFEBB dx=-178 dy=0 dh=-178 dv=0 dx=0 dy=0 dh=0 dv=0
PairPos2: "'kern' Horizontal Kerning lookup 15-2" uni0636 dx=-178 dy=0 dh=-178 dv=0 dx=0 dy=0 dh=0 dv=0
PairPos2: "'kern' Horizontal Kerning lookup 15-2" uniFEBF dx=-178 dy=0 dh=-178 dv=0 dx=0 dy=0 dh=0 dv=0
PairPos2: "'kern' Horizontal Kerning lookup 15-2" uni0637 dx=-178 dy=0 dh=-178 dv=0 dx=0 dy=0 dh=0 dv=0
PairPos2: "'kern' Horizontal Kerning lookup 15-2" uniFEC3 dx=-178 dy=0 dh=-178 dv=0 dx=0 dy=0 dh=0 dv=0
PairPos2: "'kern' Horizontal Kerning lookup 15-2" uni0638 dx=-178 dy=0 dh=-178 dv=0 dx=0 dy=0 dh=0 dv=0
PairPos2: "'kern' Horizontal Kerning lookup 15-2" uniFEC7 dx=-178 dy=0 dh=-178 dv=0 dx=0 dy=0 dh=0 dv=0
PairPos2: "'kern' Horizontal Kerning lookup 15-2" uniFECB dx=-178 dy=0 dh=-178 dv=0 dx=0 dy=0 dh=0 dv=0
PairPos2: "'kern' Horizontal Kerning lookup 15-2" uniFECF dx=-178 dy=0 dh=-178 dv=0 dx=0 dy=0 dh=0 dv=0
PairPos2: "'kern' Horizontal Kerning lookup 15-2" uni0641 dx=-178 dy=0 dh=-178 dv=0 dx=0 dy=0 dh=0 dv=0
PairPos2: "'kern' Horizontal Kerning lookup 15-2" uniFED3 dx=-178 dy=0 dh=-178 dv=0 dx=0 dy=0 dh=0 dv=0
PairPos2: "'kern' Horizontal Kerning lookup 15-2" uni0642 dx=-60 dy=0 dh=-60 dv=0 dx=0 dy=0 dh=0 dv=0
PairPos2: "'kern' Horizontal Kerning lookup 15-2" uniFED7 dx=-178 dy=0 dh=-178 dv=0 dx=0 dy=0 dh=0 dv=0
PairPos2: "'kern' Horizontal Kerning lookup 15-2" uni0643 dx=-143 dy=0 dh=-143 dv=0 dx=0 dy=0 dh=0 dv=0
PairPos2: "'kern' Horizontal Kerning lookup 15-2" uniFEDB dx=-226 dy=0 dh=-226 dv=0 dx=0 dy=0 dh=0 dv=0
PairPos2: "'kern' Horizontal Kerning lookup 15-2" uni0644 dx=-60 dy=0 dh=-60 dv=0 dx=0 dy=0 dh=0 dv=0
PairPos2: "'kern' Horizontal Kerning lookup 15-2" uniFEDF dx=-143 dy=0 dh=-143 dv=0 dx=0 dy=0 dh=0 dv=0
PairPos2: "'kern' Horizontal Kerning lookup 15-2" uniFEFB dx=-143 dy=0 dh=-143 dv=0 dx=0 dy=0 dh=0 dv=0
PairPos2: "'kern' Horizontal Kerning lookup 15-2" uni0645 dx=-178 dy=0 dh=-178 dv=0 dx=0 dy=0 dh=0 dv=0
PairPos2: "'kern' Horizontal Kerning lookup 15-2" uniFEE3 dx=-178 dy=0 dh=-178 dv=0 dx=0 dy=0 dh=0 dv=0
PairPos2: "'kern' Horizontal Kerning lookup 15-2" uni0646 dx=-60 dy=0 dh=-60 dv=0 dx=0 dy=0 dh=0 dv=0
PairPos2: "'kern' Horizontal Kerning lookup 15-2" uni0647 dx=-178 dy=0 dh=-178 dv=0 dx=0 dy=0 dh=0 dv=0
PairPos2: "'kern' Horizontal Kerning lookup 15-2" uniFEEB dx=-178 dy=0 dh=-178 dv=0 dx=0 dy=0 dh=0 dv=0
PairPos2: "'kern' Horizontal Kerning lookup 15-2" uni0649 dx=-60 dy=0 dh=-60 dv=0 dx=0 dy=0 dh=0 dv=0
PairPos2: "'kern' Horizontal Kerning lookup 15-2" uni0626 dx=-60 dy=0 dh=-60 dv=0 dx=0 dy=0 dh=0 dv=0
PairPos2: "'kern' Horizontal Kerning lookup 15-2" uni064A dx=-60 dy=0 dh=-60 dv=0 dx=0 dy=0 dh=0 dv=0
PairPos2: "'kern' Horizontal Kerning lookup 15-2" uni06A9 dx=-226 dy=0 dh=-226 dv=0 dx=0 dy=0 dh=0 dv=0
PairPos2: "'kern' Horizontal Kerning lookup 15-2" uniFB8E dx=-226 dy=0 dh=-226 dv=0 dx=0 dy=0 dh=0 dv=0
PairPos2: "'kern' Horizontal Kerning lookup 15-2" uniFB90 dx=-226 dy=0 dh=-226 dv=0 dx=0 dy=0 dh=0 dv=0
PairPos2: "'kern' Horizontal Kerning lookup 15-2" uniFBFE dx=30 dy=0 dh=30 dv=0 dx=0 dy=0 dh=0 dv=0
PairPos2: "'kern' Horizontal Kerning lookup 15-2" uni0631 dx=-30 dy=0 dh=-30 dv=0 dx=0 dy=0 dh=0 dv=0
PairPos2: "'kern' Horizontal Kerning lookup 15-2" uni0632 dx=-30 dy=0 dh=-30 dv=0 dx=0 dy=0 dh=0 dv=0
PairPos2: "'kern' Horizontal Kerning lookup 15-2" uni0624 dx=-30 dy=0 dh=-30 dv=0 dx=0 dy=0 dh=0 dv=0
PairPos2: "'kern' Horizontal Kerning lookup 15-2" uni0648 dx=-30 dy=0 dh=-30 dv=0 dx=0 dy=0 dh=0 dv=0
PairPos2: "'kern' Horizontal Kerning lookup 15-2" uni0698 dx=-40 dy=0 dh=-40 dv=0 dx=0 dy=0 dh=0 dv=0
PairPos2: "'kern' Horizontal Kerning lookup 15-5" uni06C0 dx=-178 dy=0 dh=-178 dv=0 dx=0 dy=0 dh=0 dv=0
EndChar

StartChar: uniFEB2
Encoding: 65202 65202 189
GlifName: uniF_E_B_2
Width: 2553
GlyphClass: 2
Flags: HW
AnchorPoint: "Anchor-7" 710.902 -676.086 basechar 0
AnchorPoint: "Anchor-10" 1767.53 928.1 basechar 0
LayerCount: 2
Fore
SplineSet
1531 0 m 0
 1474 0 1422 10 1379 29 c 1
 1365 -136 1306 -269 1200 -363 c 0
 1081 -469 920 -520 721 -520 c 0
 289 -520 58 -309 58 96 c 0
 58 242 89 390 151 540 c 2
 166 577 l 1
 203 562 l 1
 358 499 l 1
 394 484 l 1
 380 448 l 2
 333 323 310 207 310 101 c 0
 310 -149 438 -267 728 -267 c 0
 1008 -267 1136 -139 1137 140 c 0
 1137 254 1109 371 1051 492 c 2
 1032 532 l 1
 1074 547 l 1
 1243 605 l 1
 1282 618 l 1
 1294 579 l 1
 1353 396 l 2
 1384 300 1433 261 1533 260 c 0
 1641 260 1678 307 1678 429 c 0
 1678 459 1675 518 1668 604 c 2
 1665 642 l 1
 1703 647 l 1
 1868 667 l 1
 1910 672 l 1
 1913 630 l 1
 1929 404 l 2
 1935 311 1972 260 2048 260 c 0
 2110 260 2147 296 2147 427 c 0
 2147 470 2144 536 2137 625 c 2
 2134 663 l 1
 2172 668 l 1
 2337 688 l 1
 2379 693 l 1
 2382 651 l 1
 2398 404 l 2
 2405 300 2447 260 2543 260 c 2
 2571 260 l 1
 2571 220 l 1
 2571 40 l 1
 2571 0 l 1
 2545 0 l 2
 2434 0 2339 32 2283 105 c 1
 2226 33 2149 0 2049 0 c 0
 1944 0 1858 38 1801 114 c 1
 1729 38 1638 0 1531 0 c 0
EndSplineSet
EndChar

StartChar: uniFEB3
Encoding: 65203 65203 190
GlifName: uniF_E_B_3
Width: 1562
GlyphClass: 2
Flags: HW
AnchorPoint: "Anchor-7" 762.902 -200.086 basechar 0
AnchorPoint: "Anchor-10" 847.53 968.1 basechar 0
LayerCount: 2
Fore
SplineSet
1153 260 m 0
 1211 260 1252 300 1252 442 c 0
 1252 507 1237 592 1209 695 c 2
 1199 734 l 1
 1238 745 l 1
 1406 790 l 1
 1443 800 l 1
 1454 763 l 2
 1487 658 1504 556 1504 457 c 0
 1504 222 1415 1 1154 0 c 0
 1049 0 963 38 906 114 c 1
 834 38 743 0 636 0 c 0
 519 0 426 36 368 111 c 1
 295 33 187 0 49 0 c 2
 -19 0 l 1
 -19 40 l 1
 -19 220 l 1
 -19 260 l 1
 51 260 l 2
 202 260 253 295 253 429 c 0
 253 461 250 520 243 604 c 2
 240 642 l 1
 278 647 l 1
 443 667 l 1
 485 672 l 1
 488 630 l 1
 504 404 l 2
 511 311 553 260 638 260 c 0
 746 260 783 307 783 429 c 0
 783 459 780 518 773 604 c 2
 770 642 l 1
 808 647 l 1
 973 667 l 1
 1015 672 l 1
 1018 630 l 1
 1034 404 l 2
 1040 311 1077 260 1153 260 c 0
EndSplineSet
EndChar

StartChar: uniFEB4
Encoding: 65204 65204 191
GlifName: uniF_E_B_4
Width: 1658
GlyphClass: 2
Flags: HW
AnchorPoint: "Anchor-10" 847.53 968.1 basechar 0
AnchorPoint: "Anchor-7" 762.902 -200.086 basechar 0
LayerCount: 2
Fore
SplineSet
368 111 m 1
 296 33 187 0 49 0 c 2
 -19 0 l 1
 -19 40 l 1
 -19 220 l 1
 -19 260 l 1
 51 260 l 2
 202 260 253 295 253 429 c 0
 253 461 250 520 243 604 c 2
 240 642 l 1
 280 647 l 1
 443 667 l 1
 485 672 l 1
 488 630 l 1
 504 404 l 2
 511 311 552 260 638 260 c 0
 746 260 783 307 783 429 c 0
 783 459 780 518 773 604 c 2
 770 642 l 1
 809 647 l 1
 973 667 l 1
 1015 672 l 1
 1018 630 l 1
 1034 404 l 2
 1040 311 1077 260 1153 260 c 0
 1215 260 1252 296 1252 427 c 0
 1252 470 1249 536 1242 625 c 2
 1239 663 l 1
 1277 668 l 1
 1442 688 l 1
 1484 693 l 1
 1487 651 l 1
 1503 404 l 2
 1510 300 1552 260 1648 260 c 2
 1676 260 l 1
 1676 220 l 1
 1676 40 l 1
 1676 0 l 1
 1650 0 l 2
 1539 0 1444 32 1388 105 c 1
 1331 33 1254 0 1154 0 c 0
 1049 0 963 38 906 114 c 1
 834 38 743 0 636 0 c 0
 519 1 425 36 368 111 c 1
EndSplineSet
EndChar

StartChar: uniFEBA
Encoding: 65210 65210 197
GlifName: uniF_E_B_A_
Width: 2610
VWidth: 2990
GlyphClass: 2
Flags: HW
AnchorPoint: "Anchor-10" 2052.53 1168.1 basechar 0
AnchorPoint: "Anchor-7" 710.902 -676.086 basechar 0
LayerCount: 2
Fore
SplineSet
1752.86523438 261 m 2
 2121.66699219 261 2259 340.8046875 2259 453 c 0
 2259 540.817382812 2198.66113281 605 2104 605 c 0
 1986.11621094 605 1840.85253906 494.591796875 1679.90234375 260.506835938 c 1
 1752.86523438 261 l 2
1137 140.067382812 m 0
 1137 256.118164062 1107.79785156 373.154296875 1050.93457031 491.700195312 c 2
 1031.48925781 532.239257812 l 1
 1074.015625 546.833984375 l 1
 1243.015625 604.833984375 l 1
 1281.56445312 618.063476562 l 1
 1294.0703125 579.274414062 l 1
 1353.1171875 396.127929688 l 2
 1369.48242188 344.00390625 1388.00976562 313.125 1402.64941406 299.502929688 c 1
 1626.34375 667.530273438 1853.83789062 867 2096 867 c 0
 2341.11132812 867 2517 694.311523438 2517 462 c 0
 2517 391.399414062 2493.82714844 322.018554688 2462.37109375 265.322265625 c 1
 2496.08398438 261.993164062 2539.27929688 260 2600 260 c 2
 2628 260 l 5
 2628 220 l 5
 2628 40 l 5
 2628 0 l 5
 2601 0 l 2
 2449.28417969 0 2335.25585938 30.4462890625 2255.03808594 85.9462890625 c 1
 2138.72167969 29.931640625 1971.01464844 0 1757 0 c 2
 1706 0 l 2
 1567.42773438 0 1460.59960938 13.1005859375 1379.50878906 39.25 c 1
 1351.484375 -332.780273438 1092.46289062 -520 721 -520 c 0
 288.607421875 -520 58 -309.212890625 58 96 c 0
 58 241.758789062 89.298828125 390.05859375 151.001953125 540.204101562 c 2
 166.1484375 577.059570312 l 1
 203.061523438 562.055664062 l 1
 358.061523438 499.055664062 l 1
 394.213867188 484.362304688 l 1
 380.416992188 447.858398438 l 2
 333.69921875 324.250976562 310 210.14453125 310 101 c 0
 310 -148.56640625 438.224609375 -267 728 -267 c 0
 1006.27636719 -267 1136.06347656 -139.001953125 1137 140.067382812 c 0
EndSplineSet
EndChar

StartChar: uniFEBB
Encoding: 65211 65211 198
GlifName: uniF_E_B_B_
Width: 1654
VWidth: 2950
GlyphClass: 2
Flags: HW
AnchorPoint: "Anchor-10" 1112.53 1168.1 basechar 0
AnchorPoint: "Anchor-7" 679.209 -202.348 basechar 0
LayerCount: 2
Fore
SplineSet
831.865234375 261 m 2
 1200.66699219 261 1338 340.8046875 1338 453 c 0
 1338 540.817382812 1277.66113281 605 1183 605 c 0
 1065.11621094 605 919.852539062 494.591796875 758.90234375 260.506835938 c 1
 831.865234375 261 l 2
484.233398438 303.6640625 m 1
 707.487304688 668.6015625 933.684570312 867 1175 867 c 0
 1420.11132812 867 1596 694.370117188 1596 461.928710938 c 0
 1594.87597656 146.055664062 1318.69140625 0 836 0 c 2
 785 0 l 2
 563.506835938 0 412.5 36.3955078125 327.659179688 123.133789062 c 1
 254.278320312 41.4765625 163.276367188 0 20 0 c 2
 -19.22265625 0 l 5
 -18.9990234375 40.22265625 l 5
 -17.9990234375 220.22265625 l 5
 -17.7783203125 260 l 5
 20 260 l 2
 179.790039062 260 203 301.040039062 203 428 c 0
 203 485.953125 198.065429688 564.69140625 195.047851562 626.03515625 c 2
 193.220703125 663.201171875 l 1
 230.158203125 667.706054688 l 1
 394.158203125 687.706054688 l 1
 435.841796875 692.7890625 l 1
 438.89453125 650.907226562 l 1
 456.88671875 404.004882812 l 2
 461.017578125 350.899414062 472.715820312 318.4453125 484.233398438 303.6640625 c 1
EndSplineSet
EndChar

StartChar: uniFEBC
Encoding: 65212 65212 199
GlifName: uniF_E_B_C_
Width: 1689
VWidth: 2990
GlyphClass: 2
Flags: HW
AnchorPoint: "Anchor-10" 1112.53 1168.1 basechar 0
AnchorPoint: "Anchor-7" 679.209 -202.348 basechar 0
LayerCount: 2
Fore
SplineSet
831.865234375 261 m 2
 1200.66699219 261 1338 340.8046875 1338 453 c 0
 1338 540.817382812 1277.66113281 605 1183 605 c 0
 1065.11621094 605 919.852539062 494.591796875 758.90234375 260.506835938 c 1
 831.865234375 261 l 2
484.252929688 303.639648438 m 1
 708.563476562 669.671875 934.733398438 867 1176 867 c 0
 1422.4296875 867 1596 692.884765625 1596 460 c 0
 1596 389.704101562 1572.55078125 322.189453125 1540.85839844 264.987304688 c 1
 1574.31933594 261.935546875 1620.53613281 260 1679 260 c 2
 1707 260 l 1
 1707 220 l 1
 1707 40 l 1
 1707 0 l 1
 1679 0 l 2
 1527.30859375 0 1414.08398438 30.4638671875 1334.02539062 85.9404296875 c 1
 1217.73535156 29.9384765625 1050.0078125 0 836 0 c 2
 785 0 l 2
 565.517578125 0 414.524414062 36.4296875 328.000976562 123.517578125 c 1
 255.126953125 42.0869140625 163.609375 0 20 0 c 2
 -19 0 l 5
 -19 40 l 5
 -19 220 l 5
 -19 260 l 5
 19 260 l 2
 179.821289062 260 203 302.205078125 203 427 c 0
 203 487 198.067382812 564.6484375 195.047851562 626.03515625 c 2
 193.220703125 663.201171875 l 1
 230.158203125 667.706054688 l 1
 394.158203125 687.706054688 l 1
 435.841796875 692.7890625 l 1
 438.89453125 650.907226562 l 1
 456.88671875 404.004882812 l 2
 461.018554688 350.88671875 472.694335938 318.47265625 484.252929688 303.639648438 c 1
EndSplineSet
EndChar

StartChar: uniFEC2
Encoding: 65218 65218 205
GlifName: uniF_E_C_2
Width: 1510
VWidth: 2990
GlyphClass: 2
Flags: HW
AnchorPoint: "Anchor-7" 636.602 -198.453 basechar 0
AnchorPoint: "Anchor-10" 470.36 1516.78 basechar 0
LayerCount: 2
Fore
SplineSet
648.865234375 262 m 2
 1017.66699219 262 1155 341.8046875 1155 454 c 0
 1155 542.102539062 1095.46484375 606 1001 606 c 0
 883.071289062 606 736.852539062 495.393554688 575.919921875 261.506835938 c 1
 648.865234375 262 l 2
1356.55273438 264.102539062 m 1
 1390.76464844 261.514648438 1438.96777344 260 1500 260 c 2
 1528 260 l 1
 1528 220 l 1
 1528 40 l 1
 1528 0 l 1
 1501 0 l 2
 1335.29785156 0 1230.5625 33.470703125 1156.46777344 85.3701171875 c 1
 1040.89257812 33.046875 860.388671875 0 653 0 c 2
 98 0 l 1
 58 0 l 1
 58 40 l 1
 58 220 l 1
 58 260 l 1
 98 260 l 1
 297.786132812 260 l 1
 316.559570312 289.848632812 336.299804688 320.103515625 353 347.2421875 c 1
 353 1346 l 1
 353 1386 l 1
 393 1386 l 1
 562 1386 l 1
 602 1386 l 1
 602 1346 l 1
 602 681.353515625 l 1
 719.541015625 800.620117188 848.66015625 867 992 867 c 0
 1236.19042969 867 1412 694.263671875 1412 462 c 0
 1412 393.517578125 1388.5625 323.620117188 1356.55273438 264.102539062 c 1
EndSplineSet
EndChar

StartChar: uniFEC3
Encoding: 65219 65219 206
GlifName: uniF_E_C_3
Width: 1293
VWidth: 2950
GlyphClass: 2
Flags: HW
AnchorPoint: "Anchor-7" 481.602 -198.453 basechar 0
AnchorPoint: "Anchor-10" 292.36 1515.78 basechar 0
LayerCount: 2
Fore
SplineSet
470.865234375 262 m 2
 839.666992188 262 977 341.8046875 977 454 c 0
 977 541.817382812 916.661132812 606 822 606 c 0
 704.116210938 606 558.852539062 495.591796875 397.90234375 261.506835938 c 1
 470.865234375 262 l 2
424 680.260742188 m 1
 544.00390625 800.489257812 675.206054688 867 819 867 c 0
 1060.8203125 867 1235 690.916992188 1235 462 c 0
 1235 146.176757812 959.654296875 0 476 0 c 2
 -19 0 l 5
 -19 40 l 5
 -19 220 l 5
 -19 260 l 5
 118.235351562 260 l 1
 138.169921875 290.565429688 157.739257812 319.673828125 175 346.640625 c 1
 175 1346 l 1
 175 1386 l 1
 215 1386 l 1
 384 1386 l 1
 424 1386 l 1
 424 1346 l 1
 424 680.260742188 l 1
EndSplineSet
EndChar

StartChar: uniFEC4
Encoding: 65220 65220 207
GlifName: uniF_E_C_4
Width: 1332
VWidth: 2990
GlyphClass: 2
Flags: HW
AnchorPoint: "Anchor-10" 289.36 1513.78 basechar 0
AnchorPoint: "Anchor-7" 481.602 -198.453 basechar 0
LayerCount: 2
Fore
SplineSet
470.865234375 262 m 2
 839.666992188 262 977 341.8046875 977 454 c 0
 977 541.817382812 916.661132812 606 822 606 c 0
 704.116210938 606 558.852539062 495.591796875 397.90234375 261.506835938 c 1
 470.865234375 262 l 2
1178.66503906 264.065429688 m 1
 1213.82128906 261.438476562 1260.71484375 260 1322 260 c 2
 1351 260 l 1
 1351 220 l 1
 1351 40 l 1
 1351 0 l 1
 1321 0 l 2
 1155.1953125 0 1051.79980469 34.576171875 978.436523438 86.337890625 c 1
 863.224609375 34.0166015625 683.455078125 0 476 0 c 2
 -19 0 l 1
 -19 40 l 1
 -19 220 l 1
 -19 260 l 1
 119.720703125 260 l 1
 139.01953125 290.9765625 157.483398438 319.913085938 175 347.5859375 c 1
 175 1346 l 1
 175 1386 l 1
 215 1386 l 1
 384 1386 l 1
 424 1386 l 1
 424 1346 l 1
 424 679.995117188 l 1
 543.758789062 800.052734375 673.555664062 867 816 867 c 0
 1058.43945312 867 1235 692.271484375 1235 462 c 0
 1235 393.296875 1210.78417969 323.256835938 1178.66503906 264.065429688 c 1
EndSplineSet
EndChar

StartChar: uniFECA
Encoding: 65226 65226 213
GlifName: uniF_E_C_A_
Width: 1199
VWidth: 2990
GlyphClass: 2
Flags: HW
AnchorPoint: "Anchor-7" 610.833 -790.619 basechar 0
AnchorPoint: "Anchor-10" 574.833 1206.24 basechar 0
LayerCount: 2
Fore
SplineSet
689 -663 m 0
 335.485351562 -663 58 -495.546875 58 -158 c 0
 58 54.1767578125 186.298828125 224.734375 371.908203125 355.610351562 c 1
 220.184570312 453.614257812 128 555.247070312 128 669 c 0
 128 869.568359375 418.932617188 926 616 926 c 0
 816.030273438 926 1094 881.725585938 1094 673 c 0
 1094 564.517578125 991.646484375 458.5625 823.434570312 345.54296875 c 1
 922.14453125 288.561523438 1018.50292969 260 1159 260 c 2
 1217 260 l 5
 1217 220 l 5
 1217 40 l 5
 1217 0 l 5
 1159 0 l 2
 962.458984375 0 790.530273438 71.51171875 599.977539062 201.752929688 c 1
 411.944335938 91.9443359375 305 -28.6083984375 305 -158 c 0
 305 -302.873046875 427.047855643 -411.03208908 691.146484375 -412 c 0
 812.879200831 -412.446145541 924.79296875 -381.192382812 1040.77636719 -333.200195312 c 1
 1050.53515625 -380.596679688 l 1
 1085.53515625 -550.596679688 l 1
 1092 -582 l 1
 968.91015625 -637.3359375 853.878128071 -663 689 -663 c 0
603.88671875 502.647460938 m 1
 726.963867188 571.112304688 806.145507812 624.91015625 831.819335938 652.737304688 c 1
 801.311523438 664 725.940429688 672 615 672 c 0
 491.6875 672 414.772460938 658.185546875 393.700195312 645.399414062 c 1
 411.463867188 621.15234375 485.7578125 567.756835938 603.88671875 502.647460938 c 1
EndSplineSet
EndChar

StartChar: uniFECB
Encoding: 65227 65227 214
GlifName: uniF_E_C_B_
Width: 1057
VWidth: 2950
GlyphClass: 2
Flags: HW
AnchorPoint: "Anchor-10" 550.493 1227.05 basechar 0
AnchorPoint: "Anchor-7" 484.511 -197.021 basechar 0
LayerCount: 2
Fore
SplineSet
970.889648438 148.807617188 m 2
 649.80078125 48.845703125 354.841796875 0 85 0 c 2
 -19 0 l 5
 -19 40 l 5
 -19 220 l 5
 -19 260 l 5
 198.483398438 260 l 1
 159.545898438 320.59375 131 390.791015625 131 486 c 0
 131 734.979492188 306.436523438 949 585 949 c 0
 735.125 949 859.00390625 898.646484375 956.440429688 800.127929688 c 2
 975.721679688 780.631835938 l 1
 964.491210938 755.616210938 l 1
 898.491210938 608.616210938 l 1
 877.2421875 561.290039062 l 1
 836.875 593.875 l 2
 758.278320312 657.321289062 687.069335938 685.939453125 616.747070312 687.000976562 c 0
 474.37890625 686.59375 381 592.883789062 381 480 c 0
 381 451.720703125 394.501953125 354.377929688 511.125 302.158203125 c 0
 515.337890625 300.052734375 520.58203125 298.471679688 522.9296875 298.217773438 c 2
 949.212890625 405.784179688 l 1
 999 418.34765625 l 1
 999 367 l 1
 999 187 l 1
 999 157.559570312 l 1
 970.889648438 148.807617188 l 2
EndSplineSet
EndChar

StartChar: uniFEDA
Encoding: 65242 65242 229
GlifName: uniF_E_D_A_
Width: 1931
VWidth: 2950
GlyphClass: 2
Flags: HW
AnchorPoint: "Anchor-10" 948.11 1430.05 basechar 0
AnchorPoint: "Anchor-7" 900.268 -186.468 basechar 0
LayerCount: 2
Fore
SplineSet
692.487304688 717.747070312 m 2
 753.58984375 710.848632812 806.345703125 707 849 707 c 0
 963.275390625 707 1025 726.451171875 1025 760 c 0
 1025 799.734375 1000.39160156 815.692382812 934.920898438 825.463867188 c 0
 784.131835938 849.330078125 693 931.526367188 693 1069 c 0
 693 1248.10742188 860.333007812 1329.8359375 1118.90820312 1349.87988281 c 2
 1162 1353.22070312 l 1
 1162 1310 l 1
 1162 1185 l 1
 1162 1148.56835938 l 1
 1125.7265625 1145.17382812 l 2
 945.881835938 1128.34667969 902 1085.17480469 902 1068 c 0
 902 1049.58984375 916.592773438 1024.45800781 1009.06445312 1010.53808594 c 0
 1152.21191406 988.170898438 1233 901.045898438 1233 764 c 0
 1233 576.540039062 1054.453125 499 866 499 c 0
 811.450195312 499 749.610351562 504.208984375 682.0078125 514.451171875 c 2
 648 519.604492188 l 1
 648 554 l 1
 648 678 l 1
 648 722.770507812 l 1
 692.487304688 717.747070312 l 2
978 260 m 2
 1450.11230469 260 1514 348 1514 510 c 2
 1514 1346 l 1
 1514 1386 l 1
 1554 1386 l 1
 1723 1386 l 1
 1763 1386 l 1
 1763 1346 l 1
 1763 512 l 2
 1763 317 1777.21191406 260 1916 260 c 2
 1950 260 l 5
 1950 220 l 5
 1950 40 l 5
 1950 0 l 5
 1918 0 l 2
 1753.40625 0 1657.50585938 48.1240234375 1607.66503906 149.317382812 c 1
 1469.69238281 29.6337890625 1291.88964844 0 985 0 c 2
 840 0 l 2
 355.549804688 0 58 169.282226562 58 524 c 0
 58 619.020507812 79.3525390625 710.384765625 115.2578125 793.8125 c 2
 130.302734375 828.768554688 l 1
 165.96484375 815.483398438 l 1
 318.96484375 758.483398438 l 1
 356.528320312 744.489257812 l 1
 342.453125 706.955078125 l 2
 323.043945312 655.196289062 313 601.823242188 313 549.090820312 c 0
 313.841796875 363.971679688 464.77734375 260 830 260 c 2
 978 260 l 2
EndSplineSet
EndChar

StartChar: uniFEDB
Encoding: 65243 65243 230
GlifName: uniF_E_D_B_
Width: 950
VWidth: 2950
GlyphClass: 2
Flags: HW
AnchorPoint: "Anchor-7" 310.991 -193.935 basechar 0
AnchorPoint: "Anchor-10" 277.533 1457.33 basechar 0
LayerCount: 2
Fore
SplineSet
293.033203125 1034.28125 m 1
 440.548828125 908.447265625 554.512695312 804.557617188 629.328125 724.201171875 c 0
 720.012695312 626.047851562 766 515.649414062 766 396 c 0
 766 124.870117188 564.241210938 0 166 0 c 2
 -19 0 l 5
 -19 40 l 5
 -19 220 l 5
 -19 260 l 5
 165 260 l 2
 441.239257812 260 511 321.44921875 511 413 c 0
 511 463.5 483.415039062 518.80078125 418.655273438 579.806640625 c 0
 317.408203125 674.104492188 226.713867188 753.786132812 148.361328125 815.48828125 c 0
 67.5732421875 878.206054688 20 950.231445312 20 1032 c 0
 20 1135.01464844 81.0648480963 1211.83724676 184.931640625 1250.44433594 c 2
 889.5 1512.33105469 l 1
 889.5 1256 l 1
 293.033203125 1034.28125 l 1
EndSplineSet
EndChar

StartChar: uniFEDC
Encoding: 65244 65244 231
GlifName: uniF_E_D_C_
Width: 1027
VWidth: 2950
GlyphClass: 2
Flags: HW
AnchorPoint: "Anchor-10" 277.533 1457.33 basechar 0
AnchorPoint: "Anchor-7" 310.991 -193.935 basechar 0
LayerCount: 2
Fore
SplineSet
293.033203125 1034.28125 m 1
 439.51171875 908.478515625 554.581054688 804.485351562 629.275390625 724.256835938 c 0
 688.122070312 661.051757812 732.452148438 579.916992188 765.725585938 485.296875 c 0
 821.633789062 327.046875 905.205078125 260 1018 260 c 2
 1045 260 l 1
 1045 220 l 1
 1045 40 l 1
 1045 0 l 1
 1018 0 l 2
 876.684570312 0 759.600585938 55.298828125 670.154296875 154.642578125 c 1
 575.099609375 47.22265625 420.62890625 0 166 0 c 2
 -19 0 l 1
 -19 40 l 1
 -19 220 l 1
 -19 260 l 1
 165 260 l 2
 441.239257812 260 511 321.44921875 511 413 c 0
 511 463.5 483.415039062 518.80078125 418.655273438 579.806640625 c 0
 317.408203125 674.104492188 226.713867188 753.786132812 148.361328125 815.48828125 c 0
 67.5732421875 878.206054688 20 950.231445312 20 1032 c 0
 20 1135.01464844 80 1212 184.931640625 1250.44433594 c 2
 889.5 1512.33105469 l 1
 889.5 1256 l 1
 293.033203125 1034.28125 l 1
EndSplineSet
EndChar

StartChar: uniFEDE
Encoding: 65246 65246 233
GlifName: uniF_E_D_E_
Width: 1439
VWidth: 2990
GlyphClass: 2
Flags: HW
AnchorPoint: "Anchor-7" 662.902 -668.086 basechar 0
AnchorPoint: "Anchor-10" 654.908 1045.66 basechar 0
LayerCount: 2
Fore
SplineSet
372.23046875 383.374023438 m 2
 329.3671875 274.26953125 309 185.6796875 309 76 c 0
 309 -158.313476562 422.0234375 -267 675 -267 c 0
 908.728515625 -267 1019 -152 1019 108.030273438 c 2
 1021 1344.03027344 l 1
 1021 1346 l 1
 1021 1386 l 1
 1061 1386 l 1
 1229 1386 l 1
 1269.04003906 1386 l 1
 1269 1345.95996094 l 1
 1268 432.979492188 l 2
 1268 304 1296.58105469 260 1428 260 c 2
 1458 260 l 5
 1458 220 l 5
 1458 40 l 5
 1458 0 l 5
 1430 0 l 2
 1357.30371094 0 1305.26367188 13.259765625 1264.42382812 37.8154296875 c 1
 1235.84765625 -320.265625 1036.87402344 -520 674 -520 c 0
 271.384765625 -520 58 -315.922851562 58 75 c 0
 58 216.493164062 86.642578125 339.915039062 143.036132812 476.286132812 c 2
 158.229492188 513.026367188 l 1
 195.061523438 498.055664062 l 1
 350.061523438 435.055664062 l 1
 386.685546875 420.169921875 l 1
 372.23046875 383.374023438 l 2
EndSplineSet
EndChar

StartChar: uniFEDF
Encoding: 65247 65247 234
GlifName: uniF_E_D_F_
Width: 608
VWidth: 2950
GlyphClass: 2
Flags: HW
AnchorPoint: "Anchor-10" 365.751 1520.65 basechar 0
AnchorPoint: "Anchor-7" 259.812 -198.234 basechar 0
LayerCount: 2
Fore
SplineSet
-19 40 m 5
 -19 220 l 5
 -19 260 l 5
 61 260 l 2
 220.958007812 260 251 310 251 443 c 2
 251 1346 l 1
 251 1386 l 1
 291 1386 l 1
 460 1386 l 1
 500 1386 l 1
 500 1346 l 1
 500 444 l 2
 500 163 376.186523438 0 60 0 c 2
 -19 0 l 5
 -19 40 l 5
EndSplineSet
EndChar

StartChar: uniFEE0
Encoding: 65248 65248 235
GlifName: uniF_E_E_0
Width: 670
VWidth: 2950
GlyphClass: 2
Flags: HW
AnchorPoint: "Anchor-7" 259.812 -198.234 basechar 0
AnchorPoint: "Anchor-10" 364.751 1520.65 basechar 0
LayerCount: 2
Fore
SplineSet
368.392578125 119.059570312 m 5
 297.01171875 39.49609375 195.427734375 0 43 0 c 2
 -19 0 l 1
 -19 40 l 1
 -19 220 l 1
 -19 260 l 1
 45 260 l 2
 208.345703125 260 251 311 251 429.143554688 c 2
 251 1346 l 1
 251 1386 l 1
 291 1386 l 1
 460 1386 l 1
 500 1386 l 1
 500 1346 l 1
 500 429 l 2
 500 305 534.084960938 260 658 260 c 2
 688 260 l 1
 688 220 l 1
 688 40 l 1
 688 0 l 1
 660 0 l 2
 526.165039062 0 438.521484375 41.9306640625 368.392578125 119.059570312 c 5
EndSplineSet
EndChar

StartChar: uniFEE2
Encoding: 65250 65250 237
GlifName: uniF_E_E_2
Width: 1306
VWidth: 2620
GlyphClass: 2
Flags: HW
AnchorPoint: "Anchor-10" 773.952 1060.2 basechar 0
AnchorPoint: "Anchor-7" 724.983 -298.909 basechar 0
LayerCount: 2
Fore
SplineSet
72.0712890625 -627.388671875 m 2
 65.0458984375 -509.95703125 61 -409.030273438 61 -303 c 0
 61 30.857421875 103.7421875 336.170898438 365.802734375 403.401367188 c 1
 466.783203125 646.083984375 606.813476562 781 790 781 c 0
 1016.64160156 781 1133.35351562 616.958007812 1174.14160156 418.244140625 c 0
 1199.94921875 298.763671875 1244.08300781 260 1298 260 c 2
 1325 260 l 5
 1325 220 l 5
 1325 40 l 5
 1325 0 l 5
 1298 0 l 2
 1222.84082031 0 1151.57421875 23.7236328125 1096.85546875 77.77734375 c 1
 1038.37890625 6.6103515625 959.672851562 -23 856 -23 c 0
 768.256835938 -23 682.1875 7.4228515625 587.053710938 64.921875 c 0
 556.087890625 84.275390625 523.716796875 101.422851562 486.67578125 120.444335938 c 0
 461.87890625 133.270507812 440.147460938 137.905273438 429.201171875 138 c 0
 373.768554688 137.181640625 314 34.0341796875 314 -275 c 0
 314 -404.989257812 318.951171875 -515.744140625 327.859375 -621.647460938 c 2
 331.505859375 -665 l 1
 288 -665 l 1
 112 -665 l 1
 74.3212890625 -665 l 1
 72.0712890625 -627.388671875 l 2
617.0859375 349.688476562 m 1
 724.889648438 269.482421875 804.978515625 235.201171875 851.79296875 235 c 0
 911.32421875 235.995117188 934 257.801757812 934 335 c 0
 934 444.620117188 876.54296875 516 790 516 c 0
 724.229492188 516 666.145507812 469.454101562 617.0859375 349.688476562 c 1
EndSplineSet
EndChar

StartChar: uniFEE3
Encoding: 65251 65251 238
GlifName: uniF_E_E_3
Width: 1048
VWidth: 2950
GlyphClass: 2
Flags: HW
AnchorPoint: "Anchor-10" 583.952 1060.2 basechar 0
AnchorPoint: "Anchor-7" 514.594 -197.063 basechar 0
LayerCount: 2
Fore
SplineSet
433.954101562 354.650390625 m 5
 512.771484375 269.252929688 581.952148438 233 641 233 c 4
 717.643554688 233 743 259.372070312 743 332 c 4
 743 449.806640625 686.0625 515 601 515 c 4
 536.583984375 515 480.149414062 470.89453125 433.954101562 354.650390625 c 5
305.173828125 127.623046875 m 5
 224.010742188 46.0234375 129.939453125 0 23 0 c 6
 -18 0 l 1
 -18 40 l 1
 -18 220 l 1
 -18 260 l 1
 18 260 l 6
 108.434570312 260 168.264648438 354.646484375 219.572265625 467.5234375 c 4
 310.2109375 667.33984375 433.991210938 781 597 781 c 4
 837.626953125 781 990 575.311523438 990 347 c 4
 990 123.356445312 870.427734375 -22 655 -22 c 4
 524.084960938 -22 412.002929688 33.0576171875 305.173828125 127.623046875 c 5
EndSplineSet
EndChar

StartChar: uniFEE4
Encoding: 65252 65252 239
GlifName: uniF_E_E_4
Width: 1112
VWidth: 2950
GlyphClass: 2
Flags: HW
AnchorPoint: "Anchor-10" 583.952 1060.2 basechar 0
AnchorPoint: "Anchor-7" 534.594 -197.063 basechar 0
LayerCount: 2
Fore
SplineSet
433.9296875 354.485351562 m 5
 512.505859375 268.68359375 580.56640625 233 645 233 c 4
 721.2578125 233 746 259.114257812 746 328 c 4
 746 443.109375 685.025390625 515 597 515 c 4
 535.2734375 515 480.354492188 470.995117188 433.9296875 354.485351562 c 5
907.135742188 79.203125 m 5
 843.66796875 7.2958984375 760.963867188 -22 653 -22 c 4
 527.709960938 -22 410.74609375 31.9677734375 304.80859375 127.254882812 c 5
 222.970703125 45.2919921875 129.755859375 0 23 0 c 6
 -18 0 l 1
 -18 40 l 1
 -18 220 l 1
 -18 260 l 1
 18 260 l 6
 110.377929688 260 170.171875 356.375976562 219.490234375 467.341796875 c 4
 309.254882812 666.473632812 433.913085938 781 597 781 c 4
 824.28125 781 944.223632812 608.377929688 984.154296875 418.182617188 c 4
 1009.10546875 298.225585938 1053.50097656 260 1105 260 c 6
 1130 260 l 5
 1130 220 l 5
 1130 40 l 5
 1130 0 l 5
 1104 0 l 6
 1030.27636719 0 960.236328125 24.953125 907.135742188 79.203125 c 5
EndSplineSet
EndChar

StartChar: uniFEEA
Encoding: 65258 65258 245
GlifName: uniF_E_E_A_
Width: 1038
VWidth: 2990
GlyphClass: 2
Flags: HW
AnchorPoint: "Anchor-10" 662.464 1262.36 basechar 0
AnchorPoint: "Anchor-7" 469.642 -196.09 basechar 0
LayerCount: 2
Fore
SplineSet
58 452 m 0
 58 669.009765625 236.37890625 825.348632812 560.208007812 931.713867188 c 1
 558.475585938 942.8515625 l 1
 552.62890625 980.435546875 l 1
 589.87109375 988.165039062 l 1
 748.87109375 1021.16503906 l 1
 790.723632812 1029.8515625 l 1
 796.618164062 987.515625 l 1
 878.625976562 398.459960938 l 2
 891.51953125 303.903320312 937.997070312 260 1027 260 c 2
 1057 260 l 5
 1057 220 l 5
 1057 40 l 5
 1057 0 l 5
 1023 0 l 2
 847.834960938 0 730.51171875 74.701171875 679.263671875 209.793945312 c 1
 603.899414062 158.444335938 521.771484375 132 431 132 c 0
 236.787109375 132 58 229.26953125 58 452 c 0
599.208007812 688.077148438 m 1
 391.364257812 606.028320312 312 529.47265625 312 464 c 0
 312 408.32421875 339.182617188 380 425 380 c 0
 526.104492188 380 621 441.92578125 621 522 c 0
 621 539.515625 620.08203125 555.46875 617.466796875 572.901367188 c 2
 599.208007812 688.077148438 l 1
EndSplineSet
EndChar

StartChar: uniFEEB
Encoding: 65259 65259 246
GlifName: uniF_E_E_B_
Width: 1369
VWidth: 2950
GlyphClass: 2
Flags: HW
AnchorPoint: "Anchor-10" 609.134 1262.79 basechar 0
AnchorPoint: "Anchor-7" 510.852 -199.953 basechar 0
LayerCount: 2
Fore
SplineSet
502.580078125 323.375 m 1
 591.631835938 365.147460938 633.96875 454.830078125 635.000976562 523.245117188 c 0
 634.655273438 614.516601562 585.081054688 662 504 662 c 0
 416.298828125 662 363 606.03515625 363 528 c 0
 363 455.771484375 408.578125 365.090820312 502.580078125 323.375 c 1
602.510742188 1056.96386719 m 2
 1058.98242188 834.708007812 1311 619.831054688 1311 403 c 0
 1311 151.0234375 1128.94140625 10 879 10 c 0
 747.16796875 10 584.243164062 43.669921875 485.6953125 74.6806640625 c 1
 370.131835938 33.6015625 214.362304688 0 75 0 c 2
 -19 0 l 1
 -19 40 l 1
 -19 220 l 1
 -19 260 l 1
 63 260 l 2
 115.908203125 260 156.092773438 260.133789062 192.521484375 262.729492188 c 5
 136.715820312 334.486328125 113 418.573242188 113 516 c 0
 113 730.553710938 277.5 884.309570312 470.634765625 896.255859375 c 1
 473.961914062 902.295898438 l 1
 549.961914062 1040.29589844 l 1
 568.311523438 1073.61523438 l 1
 602.510742188 1056.96386719 l 2
863.208984375 635.4921875 m 1
 873.373046875 601.840820312 878 568.73046875 878 533 c 0
 878 412.934570312 838.500976562 332.4765625 781.727539062 257.529296875 c 1
 807.844726562 255.767578125 839.212890625 255 862 255 c 0
 1003.00488281 255 1056 306.49609375 1056 400 c 0
 1056 457.0546875 998.864257812 546.388671875 863.208984375 635.4921875 c 1
EndSplineSet
EndChar

StartChar: uniFEEC
Encoding: 65260 65260 247
GlifName: uniF_E_E_C_
Width: 1002
VWidth: 2950
GlyphClass: 2
Flags: HW
AnchorPoint: "Anchor-7" 597.16 -669.603 basechar 0
AnchorPoint: "Anchor-10" 551.648 1175.04 basechar 0
LayerCount: 2
Fore
SplineSet
850 527 m 4
 850 251.983398438 597.510742188 71.599609375 424.536132812 3.5830078125 c 5
 446.979492188 -82.806640625 487.306640625 -148.586914062 547.564453125 -202.540039062 c 5
 565.538085938 40.4482421875 770.466796875 260 988 260 c 6
 1021 260 l 5
 1021 220 l 5
 1021 40 l 5
 1021 0 l 5
 986 0 l 6
 844.016601562 0 773 -80.5546875 773 -290 c 4
 773 -317.038085938 773.9921875 -348.987304688 776.814453125 -378.147460938 c 6
 778.662109375 -397.2421875 l 5
 764.926757812 -410.63671875 l 5
 643.926757812 -528.63671875 l 5
 623.977539062 -548.091796875 l 5
 598.815429688 -536.120117188 l 6
 370.576171875 -427.53125 233.0625 -245.737304688 183.668945312 0 c 5
 -19 0 l 1
 -19 40 l 1
 -19 220 l 1
 -19 260 l 1
 166.219726562 260 l 5
 186.9296875 580.29296875 259.973632812 876 548 876 c 4
 739.436523438 876 850 721.883789062 850 527 c 4
409.719726562 264.79296875 m 5
 524.737304688 291.620117188 611 396.938476562 611 527 c 4
 611 605.374023438 580.022460938 622 546 622 c 4
 482.015625 622 428.5859375 535.7421875 409.719726562 264.79296875 c 5
EndSplineSet
EndChar

StartChar: uniFEEE
Encoding: 65262 65262 249
GlifName: uniF_E_E_E_
Width: 876
VWidth: 2142
GlyphClass: 2
Flags: HW
AnchorPoint: "Anchor-10" 430.256 1070.2 basechar 0
AnchorPoint: "Anchor-7" 415.969 -599.998 basechar 0
LayerCount: 2
Fore
SplineSet
432 800 m 0
 666.319335938 800 786.4375 598.709960938 816.060546875 259 c 1
 894 259 l 1
 894 219 l 1
 894 40 l 1
 894 -0.31640625 l 1
 799.44140625 0.7431640625 l 1
 735.158203125 -274.78515625 523.669921875 -460.640625 175.520507812 -527.287109375 c 2
 142.817382812 -533.546875 l 1
 130.728515625 -502.521484375 l 1
 70.728515625 -348.521484375 l 1
 53.216796875 -303.575195312 l 1
 100.62890625 -294.685546875 l 2
 350.346679688 -247.86328125 495.305664062 -140.916015625 554.938476562 0 c 1
 462 0 l 2
 206.658203125 0 58 112.795898438 58 336 c 0
 58 575.708984375 206.145507812 800 432 800 c 0
572.671875 260 m 1
 552.658203125 465.311523438 493.883789062 535 418 535 c 0
 363.7890625 535 303 457.78515625 303 351 c 0
 303 294.26171875 334.537109375 260 452 260 c 2
 572.671875 260 l 1
EndSplineSet
EndChar

StartChar: uniFEFB
Encoding: 65275 65275 262
GlifName: uniF_E_F_B_
Width: 1212
VWidth: 2950
GlyphClass: 3
Flags: HW
AnchorPoint: "Anchor-9" 221.642 1466.64 baselig 1
AnchorPoint: "Anchor-6" 288.021 -204.333 baselig 1
AnchorPoint: "Anchor-6" 925.078 -200.55 baselig 0
AnchorPoint: "Anchor-9" 975.01 1517.81 baselig 0
LayerCount: 2
Fore
SplineSet
180.086914062 275.674804688 m 2
 256.63671875 265.861328125 327.83203125 261 399 261 c 0
 415.612304688 261 434.790039062 261.283203125 450.192382812 261.711914062 c 1
 380.015625 495.837890625 262.029296875 754.848632812 73.328125 1188.02539062 c 2
 58.6875 1221.63378906 l 1
 90.8955078125 1239.14257812 l 1
 239.895507812 1320.14257812 l 1
 278.938476562 1341.3671875 l 1
 295.952148438 1300.31445312 l 2
 486.26953125 841.090820312 617.068359375 566.283203125 688.732421875 311.759765625 c 1
 797.021484375 364.701171875 855 476 855 678 c 2
 855 1346 l 1
 855 1386 l 1
 895 1386 l 1
 1064 1386 l 1
 1104 1386 l 1
 1104 1346 l 1
 1104 677 l 2
 1104 234 858.171875 3 396 3 c 0
 303.236328125 3 228.110351562 9.0712890625 168.087890625 19.6015625 c 2
 135 25.40625 l 1
 135 59 l 1
 135 236 l 1
 135 281.456054688 l 1
 180.086914062 275.674804688 l 2
EndSplineSet
PairPos2: "'kern' Horizontal Kerning lookup 15-6" uni0639 dx=-60 dy=0 dh=-60 dv=0 dx=0 dy=0 dh=0 dv=0
PairPos2: "'kern' Horizontal Kerning lookup 15-6" uni063A dx=-60 dy=0 dh=-60 dv=0 dx=0 dy=0 dh=0 dv=0
LCarets2: 1 0
Ligature2: "'rlig' Required Ligatures in Arabic lookup 16 subtable" uniFEDF uniFE8E
EndChar

StartChar: uniFEFC
Encoding: 65276 65276 263
GlifName: uniF_E_F_C_
Width: 1273
VWidth: 2950
GlyphClass: 3
Flags: HW
AnchorPoint: "Anchor-9" 974.01 1517.81 baselig 0
AnchorPoint: "Anchor-9" 221.642 1468.64 baselig 1
AnchorPoint: "Anchor-6" 925.078 -200.55 baselig 0
AnchorPoint: "Anchor-6" 288.021 -204.333 baselig 1
LayerCount: 2
Fore
SplineSet
295.952148438 1300.31445312 m 2
 486.26953125 841.090820312 617.068359375 566.283203125 688.732421875 311.759765625 c 1
 797.021484375 364.701171875 855 476 855 678 c 2
 855 1346 l 1
 855 1386 l 1
 895 1386 l 1
 1064 1386 l 1
 1104 1386 l 1
 1104 1346 l 1
 1104 587 l 2
 1104 342 1153.18066406 260 1257 260 c 2
 1291 260 l 5
 1291 220 l 5
 1291 40 l 5
 1291 0 l 5
 1255 0 l 2
 1100.98242188 0 994.393554688 68.03515625 941.661132812 190.311523438 c 1
 818.668945312 63.5068359375 637.950195312 3 396 3 c 0
 303.236328125 3 228.110351562 9.0712890625 168.087890625 19.6015625 c 2
 135 25.40625 l 1
 135 59 l 1
 135 236 l 1
 135 281.608398438 l 1
 180.217773438 275.658203125 l 2
 254.598632812 265.87109375 326.828125 261 398 261 c 0
 414.838867188 261 434.012695312 261.28515625 449.8828125 261.727539062 c 1
 378.774414062 494.577148438 260.916992188 753.413085938 73.275390625 1188.1484375 c 2
 58.7958984375 1221.69335938 l 1
 90.8955078125 1239.14257812 l 1
 239.895507812 1320.14257812 l 1
 278.938476562 1341.3671875 l 1
 295.952148438 1300.31445312 l 2
EndSplineSet
PairPos2: "'kern' Horizontal Kerning lookup 15-6" uni0639 dx=-60 dy=0 dh=-60 dv=0 dx=0 dy=0 dh=0 dv=0
PairPos2: "'kern' Horizontal Kerning lookup 15-6" uni063A dx=-60 dy=0 dh=-60 dv=0 dx=0 dy=0 dh=0 dv=0
LCarets2: 1 0
Ligature2: "'rlig' Required Ligatures in Arabic lookup 16 subtable" uniFEE0 uniFE8E
EndChar

StartChar: arabic_dot
Encoding: 65536 -1 264
GlifName: arabic_dot
Width: 189
VWidth: 2682
GlyphClass: 2
Flags: HW
LayerCount: 2
Fore
SplineSet
-66.8994903068 110.577536066 m 1
 78.4722732511 255.949299625 l 1
 91.2001953125 268.677221687 l 1
 103.928117374 255.949299625 l 1
 250.24910897 109.628308027 l 1
 262.976989096 96.9004279008 l 1
 250.249150906 84.1725058397 l 1
 104.878345332 -61.199257659 l 1
 92.1504649394 -73.9272219229 l 1
 79.4225009427 -61.1993412626 l 1
 -66.8994486385 85.1216502753 l 1
 -79.6274540363 97.8495723365 l 1
 -66.8994903068 110.577536066 l 1
EndSplineSet
EndChar

StartChar: arabic_2dots
Encoding: 65537 -1 265
GlifName: arabic_2dots
Width: 504
VWidth: 2682
GlyphClass: 2
Flags: HW
LayerCount: 2
Fore
SplineSet
258.272077939 110.727922061 m 1
 398.272077939 250.727922061 l 1
 410.9547855 263.410629622 l 1
 423.682546656 250.773136275 l 1
 564.682546656 110.773136275 l 1
 577.456004176 98.0902706535 l 1
 564.77281731 85.3171321078 l 1
 423.77281731 -56.6828678922 l 1
 410.954464827 -69.5921306758 l 1
 398.182131349 -56.6373352901 l 1
 258.182131349 85.3626647099 l 1
 245.634104729 98.0899488522 l 1
 258.272077939 110.727922061 l 1
-73.7279220614 110.727922061 m 1
 66.2720779386 250.727922061 l 1
 78.9547854997 263.410629622 l 1
 91.6825466564 250.773136275 l 1
 232.682546656 110.773136275 l 1
 245.456004176 98.0902706535 l 1
 232.77281731 85.3171321078 l 1
 91.7728173098 -56.6828678922 l 1
 78.9544648274 -69.5921306758 l 1
 66.1821313486 -56.6373352901 l 1
 -73.8178686514 85.3626647099 l 1
 -86.3658952706 98.0899488522 l 1
 -73.7279220614 110.727922061 l 1
EndSplineSet
EndChar

StartChar: arabic_3dots
Encoding: 65538 -1 266
GlifName: arabic_3dots
Width: 504
VWidth: 2675
GlyphClass: 2
Flags: HW
LayerCount: 2
Fore
SplineSet
98.2724609375 337.727539062 m 5
 230.272460938 469.727539062 l 5
 242.952148438 482.408203125 l 5
 255.6796875 469.775390625 l 5
 388.6796875 337.775390625 l 5
 401.50390625 325.047851562 l 5
 388.727539062 312.272460938 l 5
 255.727539062 179.272460938 l 5
 242.952148438 166.49609375 l 5
 230.224609375 179.3203125 l 5
 98.224609375 312.3203125 l 5
 85.591796875 325.047851562 l 5
 98.2724609375 337.727539062 l 5
270.272460938 75.7275390625 m 1
 402.272460938 207.727539062 l 1
 414.952148438 220.408203125 l 1
 427.6796875 207.775390625 l 1
 560.6796875 75.775390625 l 1
 573.50390625 63.0478515625 l 1
 560.727539062 50.2724609375 l 1
 427.727539062 -82.7275390625 l 1
 414.952148438 -95.50390625 l 1
 402.224609375 -82.6796875 l 1
 270.224609375 50.3203125 l 1
 257.591796875 63.0478515625 l 1
 270.272460938 75.7275390625 l 1
-69.7275390625 75.7275390625 m 1
 62.2724609375 207.727539062 l 1
 74.9521484375 220.408203125 l 1
 87.6796875 207.775390625 l 1
 220.6796875 75.775390625 l 1
 233.50390625 63.0478515625 l 1
 220.727539062 50.2724609375 l 1
 87.7275390625 -82.7275390625 l 1
 74.9521484375 -95.50390625 l 1
 62.224609375 -82.6796875 l 1
 -69.775390625 50.3203125 l 1
 -82.408203125 63.0478515625 l 1
 -69.7275390625 75.7275390625 l 1
EndSplineSet
EndChar

StartChar: arabic_3dots_a
Encoding: 65539 -1 267
GlifName: arabic_3dots_a
Width: 504
VWidth: 2689
GlyphClass: 2
Flags: HW
LayerCount: 2
Fore
SplineSet
99.224609375 -121.3203125 m 5
 231.224609375 11.6796875 l 5
 243.952148438 24.50390625 l 5
 256.727539062 11.7275390625 l 5
 389.727539062 -121.272460938 l 5
 402.50390625 -134.047851562 l 5
 389.6796875 -146.775390625 l 5
 256.6796875 -278.775390625 l 5
 243.952148438 -291.408203125 l 5
 231.272460938 -278.727539062 l 5
 99.2724609375 -146.727539062 l 5
 86.591796875 -134.047851562 l 5
 99.224609375 -121.3203125 l 5
271.224609375 140.6796875 m 1
 403.224609375 273.6796875 l 1
 415.952148438 286.50390625 l 1
 428.727539062 273.727539062 l 1
 561.727539062 140.727539062 l 1
 574.50390625 127.952148438 l 1
 561.6796875 115.224609375 l 1
 428.6796875 -16.775390625 l 1
 415.952148438 -29.408203125 l 1
 403.272460938 -16.7275390625 l 1
 271.272460938 115.272460938 l 1
 258.591796875 127.952148438 l 1
 271.224609375 140.6796875 l 1
-68.775390625 140.6796875 m 1
 63.224609375 273.6796875 l 1
 75.9521484375 286.50390625 l 1
 88.7275390625 273.727539062 l 1
 221.727539062 140.727539062 l 1
 234.50390625 127.952148438 l 1
 221.6796875 115.224609375 l 1
 88.6796875 -16.775390625 l 1
 75.9521484375 -29.408203125 l 1
 63.2724609375 -16.7275390625 l 1
 -68.7275390625 115.272460938 l 1
 -81.408203125 127.952148438 l 1
 -68.775390625 140.6796875 l 1
EndSplineSet
EndChar

StartChar: uni066E.fina
Encoding: 65540 -1 268
GlifName: uni066E_.fina
Width: 1878
VWidth: 2990
GlyphClass: 2
Flags: HW
AnchorPoint: "Anchor-10" 892.51 1465.59 basechar 0
AnchorPoint: "Anchor-7" 795.357 -219.261 basechar 0
LayerCount: 2
Fore
SplineSet
985 0 m 6
 840 0 l 2
 355.549804688 0 58 169.282226562 58 524 c 0
 58 619.020507812 79.3525390625 710.384765625 115.2578125 793.8125 c 2
 130.302734375 828.768554688 l 1
 165.96484375 815.483398438 l 1
 318.96484375 758.483398438 l 1
 356.528320312 744.489257812 l 1
 342.453125 706.955078125 l 2
 323.043945312 655.196289062 313 601.823242188 313 549.090820312 c 0
 313.841796875 363.971679688 464.77734375 260 830 260 c 2
 980 260 l 6
 1235.73730469 260 1391.12109375 304.508789062 1449.21386719 374.538085938 c 4
 1463.51855469 391.782226562 1475 420.678710938 1475 472 c 4
 1475 523.002929688 1471.09667969 575.18359375 1468.07226562 625.604492188 c 6
 1465.82421875 663.068359375 l 5
 1503.06933594 667.6953125 l 5
 1664.06933594 687.6953125 l 5
 1706.18457031 692.926757812 l 5
 1708.91699219 650.575195312 l 5
 1724.9140625 402.618164062 l 6
 1731.82910156 298.901367188 1769.05371094 260 1873 260 c 6
 1896 260 l 5
 1896 220 l 5
 1896 40 l 5
 1896 0 l 5
 1873 0 l 6
 1736.6953125 0 1633.91503906 53.384765625 1566.56640625 154.697265625 c 5
 1435.25585938 46.7548828125 1233.70898438 0 985 0 c 6
EndSplineSet
EndChar

StartChar: uni06A1.fina
Encoding: 65543 -1 269
GlifName: uni06A_1.fina
Width: 1962
VWidth: 2990
GlyphClass: 2
Flags: HW
AnchorPoint: "Anchor-10" 713.816 1611.03 basechar 0
AnchorPoint: "Anchor-7" 590.121 -271.592 basechar 0
LayerCount: 2
Fore
SplineSet
1501 681 m 0
 1468.88476562 681 1369 573.896484375 1369 530 c 0
 1369 487.455078125 1476.56640625 353.578125 1506.08789062 350.001953125 c 1
 1536.10546875 351.306640625 1645 488.119140625 1645 538 c 0
 1645 569.745117188 1556.63183594 681 1501 681 c 0
960 260 m 2
 1105.375 260 1188.34375 261.072265625 1236.29394531 263.661132812 c 1
 1163.06640625 348.100585938 1121 430.766601562 1121 536 c 0
 1121 694.01171875 1292.62988281 936 1503 936 c 0
 1720.05371094 936 1894 716.149414062 1894 551 c 0
 1894 434.575195312 1847.4140625 349.994140625 1772.76074219 262.090820312 c 1
 1801.79785156 260.512695312 1836.51757812 260 1888 260 c 2
 1980 260 l 5
 1980 220 l 5
 1980 40 l 5
 1980 0 l 5
 1890 0 l 2
 1722.00976562 0 1601.85839844 34.322265625 1501.79589844 101.010742188 c 1
 1377.94238281 28.7294921875 1200.48339844 0 965 0 c 2
 840 0 l 2
 355.576171875 0 58 168.853515625 58 524 c 0
 58 619.047851562 78.884765625 710.963867188 115.413085938 794.491210938 c 2
 130.615234375 829.25390625 l 1
 166.1328125 815.907226562 l 1
 319.478515625 758.28125 l 1
 356.9765625 744.189453125 l 1
 342.830078125 706.711914062 l 2
 323.098632812 654.439453125 313 601.44140625 313 549.08203125 c 0
 313.84765625 364.23046875 464.799804688 260 830 260 c 2
 960 260 l 2
EndSplineSet
EndChar

StartChar: uni06A1.init
Encoding: 65544 -1 270
GlifName: uni06A_1.init
Width: 918
VWidth: 2950
GlyphClass: 2
Flags: HW
AnchorPoint: "Anchor-10" 447.443 1644.02 basechar 0
AnchorPoint: "Anchor-7" 367.886 -207.023 basechar 0
LayerCount: 2
Fore
SplineSet
619.885742188 377.590820312 m 1
 569.677734375 367.060546875 519.868164062 362 466 362 c 0
 237.079101562 362 101.275390625 465.970703125 99 670.77734375 c 0
 99 904.724609375 229.463867188 1122 466 1122 c 0
 756.637695312 1122 860 799.30859375 860 502 c 0
 860 96.3671875 669.913085938 0 265 0 c 2
 -19 0 l 5
 -19 40 l 5
 -19 220 l 5
 -19 260 l 5
 276 260 l 2
 495.973632812 260 595.197265625 292.291015625 619.885742188 377.590820312 c 1
606.625976562 628.379882812 m 1
 585.78515625 761.793945312 537.40625 866 459 866 c 0
 404.682617188 866 340 801.431640625 340 698 c 0
 340 642.924804688 368.643554688 612 479 612 c 0
 520.580078125 612 564.529296875 618.104492188 606.625976562 628.379882812 c 1
EndSplineSet
EndChar

StartChar: uni06A1.medi
Encoding: 65545 -1 271
GlifName: uni06A_1.medi
Width: 972
VWidth: 2990
GlyphClass: 2
Flags: HW
AnchorPoint: "Anchor-10" 532.544 1426.06 basechar 0
AnchorPoint: "Anchor-7" 507.517 -207.023 basechar 0
LayerCount: 2
Fore
SplineSet
511 681 m 0
 478.884765625 681 379 573.896484375 379 530 c 0
 379 487.455078125 486.56640625 353.578125 516.087890625 350.001953125 c 1
 546.10546875 351.306640625 655 488.119140625 655 538 c 0
 655 569.5546875 565.6640625 681 511 681 c 0
784.703125 261.924804688 m 1
 815.259765625 260.359375 850.516601562 260 898 260 c 2
 990 260 l 5
 990 220 l 5
 990 40 l 5
 990 0 l 5
 900 0 l 2
 744.120117188 0 615.124023438 33.658203125 513.00390625 100.3359375 c 1
 408.23046875 31.994140625 275.025390625 0 114 0 c 2
 -19 0 l 1
 -19 40 l 1
 -19 220 l 1
 -19 260 l 1
 114 260 l 2
 171.397460938 260 217.030273438 260.737304688 247.310546875 262.362304688 c 1
 173.10546875 347.375976562 131 429.984375 131 536 c 0
 131 693.84765625 301.518554688 936 512 936 c 0
 728.943359375 936 904 716.309570312 904 551 c 0
 904 443.752929688 859.489257812 349.741210938 784.703125 261.924804688 c 1
EndSplineSet
EndChar

StartChar: uni066F.fina
Encoding: 65546 -1 272
GlifName: uni066F_.fina
Width: 1450
VWidth: 2950
GlyphClass: 2
Flags: HW
AnchorPoint: "Anchor-10" 758.297 1039.41 basechar 0
AnchorPoint: "Anchor-7" 713.744 -658.409 basechar 0
LayerCount: 2
Fore
SplineSet
380.416992188 447.858398438 m 2
 333.69921875 324.250976562 310 210.14453125 310 101 c 0
 310 -148.909179688 434.318359375 -267 728 -267 c 0
 1006.46484375 -267 1099.140625 -179.357421875 1128.62109375 1 c 1
 1023 1 l 2
 767.658203125 1 619 113.795898438 619 337 c 0
 619 577.634765625 766.220703125 801 993 801 c 0
 1221.19824219 801 1340.62695312 599.154296875 1376.37011719 260 c 1
 1468 260 l 5
 1468 220 l 5
 1468 40 l 5
 1468 -0.30859375 l 5
 1373.17675781 0.728515625 l 1
 1323.97460938 -340.799804688 1130.99707031 -520 721 -520 c 0
 285.5625 -520 58 -309.021484375 58 96 c 0
 58 241.758789062 89.298828125 390.05859375 151.001953125 540.204101562 c 2
 166.1484375 577.059570312 l 1
 203.061523438 562.055664062 l 1
 358.061523438 499.055664062 l 1
 394.213867188 484.362304688 l 1
 380.416992188 447.858398438 l 2
1132.68359375 261 m 1
 1112.73632812 466.653320312 1054.74316406 536 979 536 c 0
 924.7890625 536 864 458.78515625 864 352 c 0
 864 295.26171875 895.537109375 261 1013 261 c 2
 1132.68359375 261 l 1
EndSplineSet
EndChar

StartChar: arabic_gaf_bar
Encoding: 65550 -1 273
GlifName: arabic_gaf_bar
Width: 751
VWidth: 2769
GlyphClass: 2
Flags: HW
LayerCount: 2
Fore
SplineSet
735 1841.37207031 m 5
 8 1570.91503906 l 5
 8 1696.62792969 l 5
 735 1967.08496094 l 5
 735 1841.37207031 l 5
EndSplineSet
EndChar

StartChar: guillemotleft
Encoding: 171 171 283
GlifName: guillemotleft
Width: 1079
VWidth: 2316
Flags: HW
LayerCount: 2
Fore
SplineSet
743.817382812 18.6630859375 m 2
 534.086914062 330.234375 496.430664062 465.693359375 495 521.487304688 c 0
 495 585.598632812 536.16015625 704.965820312 745.671875 968.87109375 c 2
 757.682617188 984 l 1
 777 984 l 1
 954 984 l 1
 1036.62109375 984 l 1
 985.376953125 919.190429688 l 2
 782.293945312 662.350585938 745 548.612304688 745 521 c 0
 745 500.647460938 784.55859375 363.280273438 985.248046875 63.2392578125 c 2
 1026.87792969 1 l 1
 952 1 l 1
 777 1 l 1
 755.70703125 1 l 1
 743.817382812 18.6630859375 l 2
333.817382812 18.6630859375 m 2
 124.086914062 330.234375 86.4306640625 465.693359375 85 521.487304688 c 0
 85 585.598632812 126.16015625 704.965820312 335.671875 968.87109375 c 2
 347.682617188 984 l 1
 367 984 l 1
 544 984 l 1
 626.62109375 984 l 1
 575.376953125 919.190429688 l 2
 372.293945312 662.350585938 335 548.612304688 335 521 c 0
 335 500.647460938 374.55859375 363.280273438 575.248046875 63.2392578125 c 2
 616.877929688 1 l 1
 542 1 l 1
 367 1 l 1
 345.70703125 1 l 1
 333.817382812 18.6630859375 l 2
EndSplineSet
EndChar

StartChar: guillemotright
Encoding: 187 187 284
GlifName: guillemotright
Width: 1079
VWidth: 2316
Flags: HW
LayerCount: 2
Fore
SplineSet
302 1 m 1
 127 1 l 1
 52.1220703125 1 l 1
 93.751953125 63.2392578125 l 2
 294.443359375 363.282226562 334 500.641601562 334 521 c 0
 334 548.612304688 296.706054688 662.350585938 93.623046875 919.190429688 c 2
 42.37890625 984 l 1
 125 984 l 1
 302 984 l 1
 321.317382812 984 l 1
 333.328125 968.87109375 l 2
 542.837890625 704.96875 584 585.592773438 584 521.487304688 c 0
 582.569335938 465.68359375 544.916015625 330.239257812 335.182617188 18.6630859375 c 2
 323.29296875 1 l 1
 302 1 l 1
712 1 m 1
 537 1 l 1
 462.122070312 1 l 1
 503.751953125 63.2392578125 l 2
 704.443359375 363.282226562 744 500.641601562 744 521 c 0
 744 548.612304688 706.706054688 662.350585938 503.623046875 919.190429688 c 2
 452.37890625 984 l 1
 535 984 l 1
 712 984 l 1
 731.317382812 984 l 1
 743.328125 968.87109375 l 2
 952.837890625 704.96875 994 585.592773438 994 521.487304688 c 0
 992.569335938 465.68359375 954.916015625 330.239257812 745.182617188 18.6630859375 c 2
 733.29296875 1 l 1
 712 1 l 1
EndSplineSet
EndChar

StartChar: NameMe.302
Encoding: 65562 -1 293
GlifName: N_ameM_e.302
Width: 525
VWidth: 2950
Flags: HW
LayerCount: 2
Fore
SplineSet
271.004882812 90.318359375 m 1
 210.841796875 19.3193359375 124.826171875 0 22 0 c 2
 -19 0 l 5
 -19 40 l 5
 -19 220 l 5
 -19 260 l 5
 24 260 l 2
 146.759765625 260 148 299 148 469 c 2
 148 1029 l 1
 148 1069 l 1
 188 1069 l 1
 357 1069 l 1
 397 1069 l 1
 397 1029 l 1
 397 469 l 2
 397 297 400.501953125 260 502 260 c 2
 544 260 l 1
 544 220 l 1
 544 40 l 1
 544 0 l 1
 505 0 l 2
 405.397460938 0 326.944335938 22.6572265625 271.004882812 90.318359375 c 1
EndSplineSet
EndChar

StartChar: NameMe.303
Encoding: 65563 -1 294
GlifName: N_ameM_e.303
Width: 487
VWidth: 2950
Flags: HW
LayerCount: 2
Fore
SplineSet
-19 40 m 5
 -19 220 l 5
 -19 260 l 5
 11 260 l 2
 111.811523438 260 130 304 130 443 c 2
 130 1182 l 1
 130 1222 l 1
 170 1222 l 1
 339 1222 l 1
 379 1222 l 1
 379 1182 l 1
 379 445 l 2
 379 178 285.923828125 0 10 0 c 2
 -19 0 l 5
 -19 40 l 5
EndSplineSet
EndChar

StartChar: NameMe.65564
Encoding: 65564 -1 297
GlifName: N_ameM_e.65564
Width: 527
VWidth: 2950
Flags: HW
AnchorPoint: "Anchor-10" 232.697 1356.11 basechar 0
AnchorPoint: "Anchor-7" 292.078 -201.903 basechar 0
LayerCount: 2
Fore
SplineSet
522 0 m 2
 258.825195312 0 108 138 108 444 c 2
 108 1147 l 1
 108 1187 l 1
 148 1187 l 1
 317 1187 l 1
 357 1187 l 1
 357 1147 l 1
 357 444 l 2
 357 293 407.83984375 260 522 260 c 2
 546 260 l 5
 546 220 l 5
 546 40 l 5
 546 0 l 5
 522 0 l 2
EndSplineSet
EndChar

StartChar: NameMe.65565
Encoding: 65565 -1 298
GlifName: N_ameM_e.65565
Width: 716
VWidth: 2957
Flags: HW
LayerCount: 2
Fore
SplineSet
117.144072948 -267.232556568 m 2
 157.387296457 -276.0664349 197.734373112 -280 233 -280 c 0
 338.106816845 -280 408.843645576 -261.718835065 445.73773843 -232.203560781 c 0
 475.420220457 -208.266075276 488 -184.949191825 488 -162 c 0
 488 -155.271584617 485.625039259 -148.912998373 462.700149874 -147.996002798 c 2
 362.773476662 -145.997469333 l 2
 279.034915008 -143.877505747 234 -97.6101601919 234 -13 c 0
 234 167.785665014 416.539386428 255.986028615 619.900994952 257.999509888 c 2
 630.72362802 258.106664671 l 1
 629.976121305 247.309345448 l 1
 620.976121305 117.309345448 l 1
 620.343785858 108.175611222 l 1
 611.1898392 108.001802108 l 2
 460.596880315 105.14244213 393.819080881 68.9715541312 379.644426418 0.579412773842 c 1
 477.294461897 -3.00407476667 l 2
 571.266004219 -5.09233126271 630 -55.5569570926 630 -151 c 0
 630 -208.250131528 603.464648173 -263.548218114 555.395229967 -316.731404214 c 0
 486.670752786 -391.703561139 376.421102224 -428 226 -428 c 0
 184.351577847 -428 139.869781171 -423.944452659 94.4629299372 -416.88116469 c 2
 84.6721824558 -415.358159526 l 1
 86.1051235462 -405.553825749 l 1
 105.105123546 -275.553825749 l 1
 106.657737442 -264.930678042 l 1
 117.144072948 -267.232556568 l 2
EndSplineSet
EndChar

StartChar: uni060D
Encoding: 1549 1549 299
Width: 828
VWidth: 4036
Flags: HW
LayerCount: 2
Fore
SplineSet
556.780273438 1458.1484375 m 5
 776.4453125 1392.09472656 l 1
 223.374023438 -220.399414062 l 5
 3.708984375 -154.345703125 l 5
 556.780273438 1458.1484375 l 5
EndSplineSet
EndChar

StartChar: NameMe.65541
Encoding: 65541 -1 300
Width: 592
VWidth: 2950
Flags: HW
AnchorPoint: "Anchor-10" 261.384 1390 basechar 0
AnchorPoint: "Anchor-7" 253.422 -186.625 basechar 0
LayerCount: 2
Fore
SplineSet
484 792 m 2
 516 684 534 562 534 460 c 4
 534 177 384 -1 99 -1 c 2
 -19 -1 l 1
 -19 39 l 1
 -19 219 l 1
 -19 259 l 1
 99 259 l 2
 232 259 283 305 283 457 c 4
 283 530 269 640 247 732 c 2
 238 770 l 1
 276 780 l 1
 436 820 l 1
 473 829 l 1
 484 792 l 2
EndSplineSet
EndChar

StartChar: NameMe.65542
Encoding: 65542 -1 301
Width: 687
VWidth: 2950
Flags: HW
AnchorPoint: "Anchor-10" 265.665 1335.09 basechar 0
AnchorPoint: "Anchor-7" 320.537 -139.742 basechar 0
LayerCount: 2
Fore
SplineSet
683 0 m 2
 561.235351562 0 468.8984375 39.0537109375 407.869140625 116.427734375 c 1
 329.684570312 37.8349609375 222.693359375 0 101 0 c 2
 -19 0 l 1
 -19 40 l 1
 -19 220 l 1
 -19 260 l 1
 101 260 l 2
 243.120117188 260 283 305.629882812 283 437 c 0
 283 496.9140625 278.081054688 564.373046875 275.047851562 626.03515625 c 2
 273.220703125 663.201171875 l 1
 310.158203125 667.706054688 l 1
 474.158203125 687.706054688 l 1
 516.168945312 692.829101562 l 1
 518.916015625 650.595703125 l 1
 534.9140625 404.6171875 l 2
 541.795898438 300.540039062 582.991210938 260 685 260 c 2
 706 260 l 5
 706 220 l 5
 706 40 l 5
 706 0 l 5
 683 0 l 2
EndSplineSet
EndChar

StartChar: uniFBFD.compact
Encoding: 65575 -1 321
Width: 1437
VWidth: 2703
Flags: HW
AnchorPoint: "Anchor-7" 718.902 -658.086 basechar 0
AnchorPoint: "Anchor-10" 681.6 693.22 basechar 0
LayerCount: 2
Fore
SplineSet
1395.89257812 0 m 1
 1404.81152344 -32.578125 1406 -54.828125 1406 -74 c 0
 1406 -342.643554688 1113.23144531 -519 720 -519 c 0
 287.291992188 -519 59 -306.821289062 59 101 c 0
 59 214.466796875 82.966796875 370.395507812 133.43359375 484.213867188 c 2
 149.182617188 519.733398438 l 1
 185.145507812 505.021484375 l 1
 339.145507812 442.021484375 l 1
 374.6171875 427.510742188 l 1
 361.635742188 391.451171875 l 2
 327.107421875 295.541015625 310 199.359375 310 100 c 0
 310 -148.127929688 435.879882812 -267 719 -267 c 0
 959.333984375 -267 1164 -155.583007812 1164 -67 c 0
 1164 -39.9384765625 1138 0 1040 0 c 2
 907 0 l 2
 844 0 827.0078125 32.3876953125 817 75 c 2
 786 207 l 2
 776.201171875 248.725585938 789 260 826 260 c 2
 1455 260 l 5
 1455 220 l 5
 1455 40 l 5
 1455 0 l 5
 1395.89257812 0 l 1
EndSplineSet
EndChar

StartChar: uniFECC.compact
Encoding: 65579 -1 324
Width: 1071
VWidth: 2990
Flags: HW
AnchorPoint: "Anchor-7" 574.511 -197.021 basechar 0
AnchorPoint: "Anchor-10" 598.107 1140.89 basechar 0
LayerCount: 2
Fore
SplineSet
830.291015625 278.356445312 m 1
 880.068359375 265.876953125 947.971679688 260 1045 260 c 2
 1089 260 l 1
 1089 220 l 1
 1089 40 l 1
 1089 0 l 1
 1045 0 l 2
 849.04296875 0 715.529296875 46.33203125 607.067382812 115.065429688 c 1
 497.409179688 46.0361328125 345.014648438 0 87 0 c 2
 -19 0 l 1
 -19 40 l 1
 -19 220 l 1
 -19 260 l 1
 90 260 l 2
 218.881835938 260 311.348632812 265.814453125 369.94140625 278.202148438 c 1
 225.197265625 372.891601562 127 471.16796875 127 599 c 0
 127 802.548828125 405.680664062 856 607 856 c 0
 794.860351562 856 1080 802.677734375 1080 599 c 4
 1080 489.112304688 978.44921875 378.991210938 830.291015625 278.356445312 c 1
603.194335938 415.346679688 m 1
 683.901367188 460.940429688 799.888671875 539.169921875 820.213867188 573.864257812 c 1
 800.916015625 586.831054688 726.182617188 602 604 602 c 0
 479.275390625 602 403.61328125 586.481445312 386.176757812 574.069335938 c 1
 402.522460938 541.240234375 514.359375 461.865234375 603.194335938 415.346679688 c 1
EndSplineSet
EndChar

